<?xml version="1.0" encoding="UTF-8"?>
<svg version="1.1" xmlns="http://www.w3.org/2000/svg" width="300" height="209">
<path d="M0 0 C99 0 198 0 300 0 C300 68.97 300 137.94 300 209 C201 209 102 209 0 209 C0 140.03 0 71.06 0 0 Z " fill="#FCFDFD" transform="translate(0,0)"/>
<path d="M0 0 C1.8125 1.0625 1.8125 1.0625 3 3 C3.375 6.5625 3.375 6.5625 3 10 C0 12 0 12 -2.7890625 12.7421875 C-6.98923979 14.38751242 -9.32753462 16.88189486 -12.375 20.125 C-12.92027344 20.68832031 -13.46554688 21.25164063 -14.02734375 21.83203125 C-15.3609075 23.21238671 -16.68177679 24.60498709 -18 26 C-17.14277344 26.08636719 -16.28554687 26.17273438 -15.40234375 26.26171875 C-2.08619935 27.89808824 -2.08619935 27.89808824 2 33 C4.82309454 38.37668124 5.50697356 42.91823261 5.6875 48.9375 C5.72166016 49.71673828 5.75582031 50.49597656 5.79101562 51.29882812 C5.8726071 53.19874393 5.93799885 55.09934403 6 57 C11.91239476 52.02004138 11.91239476 52.02004138 14.8125 45.125 C14.874375 44.09375 14.93625 43.0625 15 42 C18 40 18 40 21.5625 40.1875 C25 41 25 41 27 44 C26.7909311 46.78758532 26.33997443 48.50703708 24.75 50.8125 C23 52 23 52 20.78125 51.7265625 C16.62355039 52.1353251 14.53237322 54.70170204 11.75 57.5625 C10.93789063 58.33303711 10.93789063 58.33303711 10.109375 59.11914062 C6.39360845 62.85813071 5.24670204 65.56570229 5 71 C8.06277267 70.85873374 11.12513542 70.71215604 14.1875 70.5625 C15.05181641 70.52318359 15.91613281 70.48386719 16.80664062 70.44335938 C20.95914122 70.23652984 24.94537862 69.99896469 29 69 C29.625 71.375 29.625 71.375 30 74 C29.34 74.66 28.68 75.32 28 76 C25.875 75.625 25.875 75.625 24 75 C24 74.34 24 73.68 24 73 C17.73 73 11.46 73 5 73 C5 77.62 5 82.24 5 87 C6.42054688 86.97679688 7.84109375 86.95359375 9.3046875 86.9296875 C11.16145309 86.91093229 13.01822435 86.89273183 14.875 86.875 C15.81214844 86.85824219 16.74929688 86.84148437 17.71484375 86.82421875 C18.61074219 86.81777344 19.50664062 86.81132813 20.4296875 86.8046875 C21.25710449 86.79421387 22.08452148 86.78374023 22.93701172 86.77294922 C25 87 25 87 27 89 C27.265625 91.75 27.265625 91.75 27.25 95 C27.25773437 96.60875 27.25773437 96.60875 27.265625 98.25 C27 101 27 101 25 103 C22.93701172 103.22705078 22.93701172 103.22705078 20.4296875 103.1953125 C19.53378906 103.18886719 18.63789063 103.18242188 17.71484375 103.17578125 C16.30912109 103.15064453 16.30912109 103.15064453 14.875 103.125 C13.45767578 103.11146484 13.45767578 103.11146484 12.01171875 103.09765625 C9.67422708 103.07404522 7.33723877 103.04111516 5 103 C5 105.64 5 108.28 5 111 C7.89611544 110.85865273 10.7918081 110.7120847 13.6875 110.5625 C14.50412109 110.52318359 15.32074219 110.48386719 16.16210938 110.44335938 C20.19655811 110.23101997 24.05747309 109.95552078 28 109 C28.33 110.65 28.66 112.3 29 114 C27.34385343 114.38218767 25.67542976 114.71395102 24 115 C23.67 114.67 23.34 114.34 23 114 C20.64686445 113.92728259 18.29166332 113.91629132 15.9375 113.9375 C14.64714844 113.94652344 13.35679687 113.95554687 12.02734375 113.96484375 C11.02832031 113.97644531 10.02929688 113.98804688 9 114 C10.3921875 115.1446875 10.3921875 115.1446875 11.8125 116.3125 C13.51600659 117.7149217 15.00450972 119.00529402 16.4375 120.6875 C18.92872314 122.78012744 21.89694819 123.19550509 25 124 C26 125 26 125 26.25 128.375 C26 132 26 132 24.875 134 C22.01126853 135.52732345 20.04699809 134.84278671 17 134 C15 132 15 132 14.3125 128.8125 C13.44652878 125.40243255 11.94945617 123.67748103 9.41796875 121.26171875 C8.78012451 120.64643311 8.14228027 120.03114746 7.48510742 119.3972168 C6.99502197 118.93613525 6.50493652 118.47505371 6 118 C5.98598145 118.84594727 5.98598145 118.84594727 5.97167969 119.70898438 C5.91742514 122.30681992 5.83389317 124.90295919 5.75 127.5 C5.73582031 128.386875 5.72164062 129.27375 5.70703125 130.1875 C5.48677008 136.17860395 4.51866115 141.03674918 1 146 C-4.57809622 150.43970923 -9.25550517 151.19319722 -16.1875 151.5625 C-16.93708984 151.60568359 -17.68667969 151.64886719 -18.45898438 151.69335938 C-20.30578375 151.79922685 -22.15286834 151.9000976 -24 152 C-22.52695135 154.15637008 -22.52695135 154.15637008 -20 156 C-17.04437116 156.31992407 -14.49895095 156.42534397 -11.5625 156.3125 C-10.43618164 156.29799805 -10.43618164 156.29799805 -9.28710938 156.28320312 C-5.41474605 156.20487036 -1.77964679 155.92424762 2 155 C2.33 156.65 2.66 158.3 3 160 C1.34385343 160.38218767 -0.32457024 160.71395102 -2 161 C-2.33 160.67 -2.66 160.34 -3 160 C-5.04429272 159.96206467 -7.0887152 159.92740937 -9.13330078 159.91186523 C-19.85285593 159.75326707 -19.85285593 159.75326707 -23.46875 157.37890625 C-25.125 155.4375 -25.125 155.4375 -26.3203125 153.49609375 C-28.6207567 151.11317597 -28.6207567 151.11317597 -36 152 C-31.38 156.62 -26.76 161.24 -22 166 C-22.33 166.99 -22.66 167.98 -23 169 C-39.64318231 170.0569763 -39.64318231 170.0569763 -44.69140625 167.79296875 C-46.70585395 165.99720849 -48.31108537 164.10464747 -50 162 C-51.8234631 160.21900474 -53.65721575 158.44849632 -55.5 156.6875 C-57.04430713 155.16877628 -58.55807888 153.61625175 -60 152 C-60 151.34 -60 150.68 -60 150 C-64.62 150 -69.24 150 -74 150 C-73.67 151.670625 -73.34 153.34125 -73 155.0625 C-72.18899159 159.48306694 -71.80083599 163.51880972 -72 168 C-71.21753906 167.98839844 -70.43507812 167.97679687 -69.62890625 167.96484375 C-68.61699219 167.95582031 -67.60507813 167.94679687 -66.5625 167.9375 C-65.55316406 167.92589844 -64.54382813 167.91429687 -63.50390625 167.90234375 C-61 168 -61 168 -60 169 C-59.875 171.5 -59.875 171.5 -60 174 C-61.82556117 175.82556117 -64.70538603 175.12772403 -67.15625 175.12939453 C-68.47431641 175.13254669 -69.79238281 175.13569885 -71.15039062 175.13894653 C-72.60026075 175.13715675 -74.05013058 175.1351058 -75.5 175.1328125 C-76.97591162 175.13348557 -78.45182313 175.13445563 -79.92773438 175.13571167 C-83.02475029 175.13718848 -86.12173742 175.13503464 -89.21875 175.13037109 C-93.19708549 175.1246738 -97.17535352 175.1279529 -101.15368652 175.13394356 C-104.20247917 175.13754963 -107.25125571 175.13641037 -110.30004883 175.13381577 C-111.76733406 175.13314662 -113.23462074 175.13397447 -114.7019043 175.13629532 C-116.74918593 175.13882257 -118.79647266 175.1342906 -120.84375 175.12939453 C-122.59461914 175.12820114 -122.59461914 175.12820114 -124.38085938 175.12698364 C-127 175 -127 175 -128 174 C-128.125 171.5 -128.125 171.5 -128 169 C-127 168 -127 168 -124.49609375 167.90234375 C-122.98208984 167.91974609 -122.98208984 167.91974609 -121.4375 167.9375 C-120.42558594 167.94652344 -119.41367188 167.95554688 -118.37109375 167.96484375 C-117.19740234 167.98224609 -117.19740234 167.98224609 -116 168 C-115.93941406 167.10796875 -115.87882812 166.2159375 -115.81640625 165.296875 C-115.69072266 163.54117188 -115.69072266 163.54117188 -115.5625 161.75 C-115.44068359 160.00976562 -115.44068359 160.00976562 -115.31640625 158.234375 C-115 155 -115 155 -114 151 C-122.25 151 -130.5 151 -139 151 C-139 154.3 -139 157.6 -139 161 C-138.01 161.33 -137.02 161.66 -136 162 C-135.875 164.375 -135.875 164.375 -136 167 C-138 169 -138 169 -140.5 169.25 C-143 169 -143 169 -145 167 C-145.125 164.375 -145.125 164.375 -145 162 C-144.01 161.67 -143.02 161.34 -142 161 C-142 157.7 -142 154.4 -142 151 C-147.7204359 152.04490934 -149.98569315 155.00795342 -153.55883789 159.22290039 C-163.04841221 170.25538553 -163.04841221 170.25538553 -170.55859375 171.12109375 C-175.44853234 171.24405159 -180.1742785 170.76353194 -185 170 C-184.4164506 166.60733571 -183.33564677 164.95964862 -180.91015625 162.546875 C-179.98106445 161.61875 -179.98106445 161.61875 -179.03320312 160.671875 C-178.05770508 159.72054687 -178.05770508 159.72054687 -177.0625 158.75 C-176.41603516 158.1003125 -175.76957031 157.450625 -175.10351562 156.78125 C-170.26702009 152 -170.26702009 152 -168 152 C-168 151.34 -168 150.68 -168 150 C-174.02509596 149.78434013 -178.07560817 150.49449753 -182.66015625 154.5703125 C-184.15123533 156.06533971 -185.61853117 157.58442309 -187.0625 159.125 C-187.81982422 159.87265625 -188.57714844 160.6203125 -189.35742188 161.390625 C-193.80438814 165.96920551 -195.60492176 168.66262256 -196 175 C-199.23253796 177.15502531 -200.25150923 177.46856135 -204 177 C-205.8125 175.875 -205.8125 175.875 -207 174 C-207.38273002 170.93815985 -207.56479824 168.93025592 -205.9375 166.25 C-204 165 -204 165 -200.78125 164.3046875 C-196.23860415 163.05267994 -193.69199957 160.25972852 -190.5625 156.875 C-190.02173828 156.31167969 -189.48097656 155.74835938 -188.92382812 155.16796875 C-187.6040952 153.78984056 -186.30034849 152.39643335 -185 151 C-186.09828125 150.71640625 -187.1965625 150.4328125 -188.328125 150.140625 C-193.45919636 148.54671773 -195.76688034 145.94766578 -198.59765625 141.4765625 C-200.47274215 136.82802086 -200.56346186 132.59361351 -200.6875 127.625 C-200.73874023 126.23474609 -200.73874023 126.23474609 -200.79101562 124.81640625 C-200.87299552 122.54439188 -200.94230494 120.27273896 -201 118 C-206.3097567 122.75408449 -209.4641004 126.01863816 -211 133 C-214 135 -214 135 -216.5625 134.75 C-219 134 -219 134 -221 132 C-221.25 128.5 -221.25 128.5 -221 125 C-219 123 -219 123 -216 122.5 C-210.80300563 121.19801615 -207.67625895 116.99288283 -204.13671875 113.21484375 C-202 111 -202 111 -200 110 C-199.99635437 109.09877411 -199.99270874 108.19754822 -199.98895264 107.26901245 C-199.9510442 98.76473042 -199.89415903 90.26083077 -199.81609726 81.75681877 C-199.77663275 77.3850647 -199.74443935 73.01351174 -199.72900391 68.64160156 C-199.71383038 64.42031791 -199.679373 60.19958718 -199.63169098 55.97854996 C-199.61688426 54.37030984 -199.60895939 52.76199077 -199.60811615 51.15368271 C-199.60574247 48.89596763 -199.57863407 46.63977567 -199.54589844 44.38232422 C-199.53701599 43.09881073 -199.52813354 41.81529724 -199.51898193 40.4928894 C-198.70332075 35.00326805 -196.28755285 31.97755605 -191.93359375 28.671875 C-187.21557496 26.23790643 -182.27093253 26.32832229 -177.0625 26.25 C-176.09248047 26.22035156 -175.12246094 26.19070312 -174.12304688 26.16015625 C-171.74861702 26.08997606 -169.37513914 26.03702676 -167 26 C-169.83377354 22.38401604 -169.83377354 22.38401604 -173.92578125 20.57128906 C-176.13524276 20.47188379 -178.29120391 20.51436945 -180.5 20.625 C-181.24636719 20.63917969 -181.99273437 20.65335938 -182.76171875 20.66796875 C-186.61046217 20.77014778 -190.24324272 21.09062621 -194 22 C-194.495 19.525 -194.495 19.525 -195 17 C-193.34385343 16.61781233 -191.67542976 16.28604898 -190 16 C-189.67 16.33 -189.34 16.66 -189 17 C-186.97254417 17.01898762 -184.94502431 17.03544034 -182.91748047 17.03735352 C-172.24728403 17.14554708 -172.24728403 17.14554708 -168.30859375 19.84375 C-166.375 22.0625 -166.375 22.0625 -164.8984375 24.28515625 C-162.60657661 26.35537627 -161.79682999 26.24543328 -158.7890625 26.24609375 C-156.91347656 26.12427734 -156.91347656 26.12427734 -155 26 C-155.4846875 25.53102295 -155.969375 25.0620459 -156.46875 24.57885742 C-158.65360637 22.45623795 -160.8268529 20.3221031 -163 18.1875 C-163.763125 17.44951172 -164.52625 16.71152344 -165.3125 15.95117188 C-166.034375 15.23896484 -166.75625 14.52675781 -167.5 13.79296875 C-168.1703125 13.1383667 -168.840625 12.48376465 -169.53125 11.80932617 C-171 10 -171 10 -171 7 C-163.21508212 5.7332743 -154.34888443 4.31172999 -147.35302734 8.63623047 C-141.66636404 13.36900186 -135.34864079 19.30271841 -132 26 C-123.75 26 -115.5 26 -107 26 C-108.711875 24.22625 -110.42375 22.4525 -112.1875 20.625 C-112.71625732 20.06893066 -113.24501465 19.51286133 -113.78979492 18.93994141 C-116.65865394 16.02157341 -119.07544011 14.19099989 -123 13 C-122.67 11.35 -122.34 9.7 -122 8 C-119.6875 8.125 -119.6875 8.125 -117 9 C-115.98040734 10.99008312 -114.98384665 12.99200454 -114 15 C-110.58489257 19.80527199 -106.73677244 24.98217596 -100.82373047 26.59277344 C-95.87575661 27.30896852 -90.98289146 27.25118914 -86 27 C-86.08715017 25.06166004 -86.19532964 23.1242571 -86.3125 21.1875 C-86.39951172 19.56908203 -86.39951172 19.56908203 -86.48828125 17.91796875 C-87.04730184 14.73027117 -87.66892219 14.06575188 -90 12 C-89.57894737 7.57894737 -89.57894737 7.57894737 -88 6 C-85.5625 5.8125 -85.5625 5.8125 -83 6 C-81 8 -81 8 -80.875 10.625 C-80.91625 11.40875 -80.9575 12.1925 -81 13 C-81.99 13.33 -82.98 13.66 -84 14 C-84 18.29 -84 22.58 -84 27 C-69.75227606 28.49913786 -69.75227606 28.49913786 -56.58398438 24.38232422 C-53.78380499 21.6594869 -51.37628591 18.71732698 -48.93359375 15.67578125 C-45.32907345 11.50212616 -42.95844324 9.52425396 -37.359375 8.94140625 C-32.19668319 8.82867062 -27.10320956 9.2258842 -22 10 C-23.28174718 12.81878012 -24.61007615 14.85241496 -26.8203125 17.015625 C-27.35527344 17.54414062 -27.89023438 18.07265625 -28.44140625 18.6171875 C-28.99699219 19.15601562 -29.55257812 19.69484375 -30.125 20.25 C-30.96998047 21.08144531 -30.96998047 21.08144531 -31.83203125 21.9296875 C-33.21686028 23.29104485 -34.60783204 24.64614859 -36 26 C-31.24236723 26.60146994 -26.87177811 27.08569245 -22.60839844 24.61279297 C-20.37022754 22.66724332 -18.37186549 20.62941714 -16.375 18.4375 C-15.66988281 17.73302734 -14.96476563 17.02855469 -14.23828125 16.30273438 C-10.02169108 11.8952196 -8.23124062 9.10475233 -8 3 C-5.87018094 -0.30121955 -3.7966872 -0.56950308 0 0 Z " fill="#303942" transform="translate(249,24)"/>
<path d="M0 0 C1.8125 1.0625 1.8125 1.0625 3 3 C3.375 6.5625 3.375 6.5625 3 10 C0 12 0 12 -2.7890625 12.7421875 C-6.98923979 14.38751242 -9.32753462 16.88189486 -12.375 20.125 C-12.92027344 20.68832031 -13.46554688 21.25164063 -14.02734375 21.83203125 C-15.3609075 23.21238671 -16.68177679 24.60498709 -18 26 C-17.14277344 26.08636719 -16.28554687 26.17273438 -15.40234375 26.26171875 C-2.08619935 27.89808824 -2.08619935 27.89808824 2 33 C4.82309454 38.37668124 5.50697356 42.91823261 5.6875 48.9375 C5.72166016 49.71673828 5.75582031 50.49597656 5.79101562 51.29882812 C5.8726071 53.19874393 5.93799885 55.09934403 6 57 C11.91239476 52.02004138 11.91239476 52.02004138 14.8125 45.125 C14.874375 44.09375 14.93625 43.0625 15 42 C18 40 18 40 21.5625 40.1875 C25 41 25 41 27 44 C26.7909311 46.78758532 26.33997443 48.50703708 24.75 50.8125 C23 52 23 52 20.78125 51.7265625 C16.62355039 52.1353251 14.53237322 54.70170204 11.75 57.5625 C10.93789063 58.33303711 10.93789063 58.33303711 10.109375 59.11914062 C6.39360845 62.85813071 5.24670204 65.56570229 5 71 C8.06277267 70.85873374 11.12513542 70.71215604 14.1875 70.5625 C15.05181641 70.52318359 15.91613281 70.48386719 16.80664062 70.44335938 C20.95914122 70.23652984 24.94537862 69.99896469 29 69 C29.625 71.375 29.625 71.375 30 74 C29.34 74.66 28.68 75.32 28 76 C25.875 75.625 25.875 75.625 24 75 C24 74.34 24 73.68 24 73 C17.73 73 11.46 73 5 73 C5 77.62 5 82.24 5 87 C6.42054688 86.97679688 7.84109375 86.95359375 9.3046875 86.9296875 C11.16145309 86.91093229 13.01822435 86.89273183 14.875 86.875 C15.81214844 86.85824219 16.74929688 86.84148437 17.71484375 86.82421875 C18.61074219 86.81777344 19.50664062 86.81132813 20.4296875 86.8046875 C21.25710449 86.79421387 22.08452148 86.78374023 22.93701172 86.77294922 C25 87 25 87 27 89 C27.265625 91.75 27.265625 91.75 27.25 95 C27.25773437 96.60875 27.25773437 96.60875 27.265625 98.25 C27 101 27 101 25 103 C22.93701172 103.22705078 22.93701172 103.22705078 20.4296875 103.1953125 C19.53378906 103.18886719 18.63789063 103.18242188 17.71484375 103.17578125 C16.30912109 103.15064453 16.30912109 103.15064453 14.875 103.125 C13.45767578 103.11146484 13.45767578 103.11146484 12.01171875 103.09765625 C9.67422708 103.07404522 7.33723877 103.04111516 5 103 C5 105.64 5 108.28 5 111 C7.89611544 110.85865273 10.7918081 110.7120847 13.6875 110.5625 C14.50412109 110.52318359 15.32074219 110.48386719 16.16210938 110.44335938 C20.19655811 110.23101997 24.05747309 109.95552078 28 109 C28.33 110.65 28.66 112.3 29 114 C27.34385343 114.38218767 25.67542976 114.71395102 24 115 C23.67 114.67 23.34 114.34 23 114 C20.64686445 113.92728259 18.29166332 113.91629132 15.9375 113.9375 C14.64714844 113.94652344 13.35679687 113.95554687 12.02734375 113.96484375 C11.02832031 113.97644531 10.02929688 113.98804688 9 114 C10.3921875 115.1446875 10.3921875 115.1446875 11.8125 116.3125 C13.51600659 117.7149217 15.00450972 119.00529402 16.4375 120.6875 C18.92872314 122.78012744 21.89694819 123.19550509 25 124 C26 125 26 125 26.25 128.375 C26 132 26 132 24.875 134 C22.01126853 135.52732345 20.04699809 134.84278671 17 134 C15 132 15 132 14.3125 128.8125 C13.44652878 125.40243255 11.94945617 123.67748103 9.41796875 121.26171875 C8.78012451 120.64643311 8.14228027 120.03114746 7.48510742 119.3972168 C6.99502197 118.93613525 6.50493652 118.47505371 6 118 C5.98598145 118.84594727 5.98598145 118.84594727 5.97167969 119.70898438 C5.91742514 122.30681992 5.83389317 124.90295919 5.75 127.5 C5.73582031 128.386875 5.72164062 129.27375 5.70703125 130.1875 C5.48677008 136.17860395 4.51866115 141.03674918 1 146 C-4.57809622 150.43970923 -9.25550517 151.19319722 -16.1875 151.5625 C-16.93708984 151.60568359 -17.68667969 151.64886719 -18.45898438 151.69335938 C-20.30578375 151.79922685 -22.15286834 151.9000976 -24 152 C-22.52695135 154.15637008 -22.52695135 154.15637008 -20 156 C-17.04437116 156.31992407 -14.49895095 156.42534397 -11.5625 156.3125 C-10.43618164 156.29799805 -10.43618164 156.29799805 -9.28710938 156.28320312 C-5.41474605 156.20487036 -1.77964679 155.92424762 2 155 C2.33 156.65 2.66 158.3 3 160 C1.34385343 160.38218767 -0.32457024 160.71395102 -2 161 C-2.33 160.67 -2.66 160.34 -3 160 C-5.04429272 159.96206467 -7.0887152 159.92740937 -9.13330078 159.91186523 C-19.85285593 159.75326707 -19.85285593 159.75326707 -23.46875 157.37890625 C-25.125 155.4375 -25.125 155.4375 -26.3203125 153.49609375 C-28.6207567 151.11317597 -28.6207567 151.11317597 -36 152 C-31.38 156.62 -26.76 161.24 -22 166 C-22.33 166.99 -22.66 167.98 -23 169 C-39.64318231 170.0569763 -39.64318231 170.0569763 -44.69140625 167.79296875 C-46.70585395 165.99720849 -48.31108537 164.10464747 -50 162 C-51.8234631 160.21900474 -53.65721575 158.44849632 -55.5 156.6875 C-57.04430713 155.16877628 -58.55807888 153.61625175 -60 152 C-60 151.34 -60 150.68 -60 150 C-64.62 150 -69.24 150 -74 150 C-73.67 151.670625 -73.34 153.34125 -73 155.0625 C-72.18899159 159.48306694 -71.80083599 163.51880972 -72 168 C-71.21753906 167.98839844 -70.43507812 167.97679687 -69.62890625 167.96484375 C-68.61699219 167.95582031 -67.60507813 167.94679687 -66.5625 167.9375 C-65.55316406 167.92589844 -64.54382813 167.91429687 -63.50390625 167.90234375 C-61 168 -61 168 -60 169 C-59.875 171.5 -59.875 171.5 -60 174 C-61.82556117 175.82556117 -64.70538603 175.12772403 -67.15625 175.12939453 C-68.47431641 175.13254669 -69.79238281 175.13569885 -71.15039062 175.13894653 C-72.60026075 175.13715675 -74.05013058 175.1351058 -75.5 175.1328125 C-76.97591162 175.13348557 -78.45182313 175.13445563 -79.92773438 175.13571167 C-83.02475029 175.13718848 -86.12173742 175.13503464 -89.21875 175.13037109 C-93.19708549 175.1246738 -97.17535352 175.1279529 -101.15368652 175.13394356 C-104.20247917 175.13754963 -107.25125571 175.13641037 -110.30004883 175.13381577 C-111.76733406 175.13314662 -113.23462074 175.13397447 -114.7019043 175.13629532 C-116.74918593 175.13882257 -118.79647266 175.1342906 -120.84375 175.12939453 C-122.59461914 175.12820114 -122.59461914 175.12820114 -124.38085938 175.12698364 C-127 175 -127 175 -128 174 C-128.125 171.5 -128.125 171.5 -128 169 C-127 168 -127 168 -124.49609375 167.90234375 C-122.98208984 167.91974609 -122.98208984 167.91974609 -121.4375 167.9375 C-120.42558594 167.94652344 -119.41367188 167.95554688 -118.37109375 167.96484375 C-117.19740234 167.98224609 -117.19740234 167.98224609 -116 168 C-115.93941406 167.10796875 -115.87882812 166.2159375 -115.81640625 165.296875 C-115.69072266 163.54117188 -115.69072266 163.54117188 -115.5625 161.75 C-115.44068359 160.00976562 -115.44068359 160.00976562 -115.31640625 158.234375 C-115 155 -115 155 -114 151 C-122.25 151 -130.5 151 -139 151 C-139 154.3 -139 157.6 -139 161 C-138.01 161.33 -137.02 161.66 -136 162 C-135.875 164.375 -135.875 164.375 -136 167 C-138 169 -138 169 -140.5 169.25 C-143 169 -143 169 -145 167 C-145.125 164.375 -145.125 164.375 -145 162 C-144.01 161.67 -143.02 161.34 -142 161 C-142 157.7 -142 154.4 -142 151 C-147.7204359 152.04490934 -149.98569315 155.00795342 -153.55883789 159.22290039 C-163.04841221 170.25538553 -163.04841221 170.25538553 -170.55859375 171.12109375 C-175.44853234 171.24405159 -180.1742785 170.76353194 -185 170 C-184.4164506 166.60733571 -183.33564677 164.95964862 -180.91015625 162.546875 C-179.98106445 161.61875 -179.98106445 161.61875 -179.03320312 160.671875 C-178.05770508 159.72054687 -178.05770508 159.72054687 -177.0625 158.75 C-176.41603516 158.1003125 -175.76957031 157.450625 -175.10351562 156.78125 C-170.26702009 152 -170.26702009 152 -168 152 C-168 151.34 -168 150.68 -168 150 C-174.02509596 149.78434013 -178.07560817 150.49449753 -182.66015625 154.5703125 C-184.15123533 156.06533971 -185.61853117 157.58442309 -187.0625 159.125 C-187.81982422 159.87265625 -188.57714844 160.6203125 -189.35742188 161.390625 C-193.80438814 165.96920551 -195.60492176 168.66262256 -196 175 C-199.23253796 177.15502531 -200.25150923 177.46856135 -204 177 C-205.8125 175.875 -205.8125 175.875 -207 174 C-207.38273002 170.93815985 -207.56479824 168.93025592 -205.9375 166.25 C-204 165 -204 165 -200.78125 164.3046875 C-196.23860415 163.05267994 -193.69199957 160.25972852 -190.5625 156.875 C-190.02173828 156.31167969 -189.48097656 155.74835938 -188.92382812 155.16796875 C-187.6040952 153.78984056 -186.30034849 152.39643335 -185 151 C-186.09828125 150.71640625 -187.1965625 150.4328125 -188.328125 150.140625 C-193.45919636 148.54671773 -195.76688034 145.94766578 -198.59765625 141.4765625 C-200.47274215 136.82802086 -200.56346186 132.59361351 -200.6875 127.625 C-200.73874023 126.23474609 -200.73874023 126.23474609 -200.79101562 124.81640625 C-200.87299552 122.54439188 -200.94230494 120.27273896 -201 118 C-206.3097567 122.75408449 -209.4641004 126.01863816 -211 133 C-214 135 -214 135 -216.5625 134.75 C-219 134 -219 134 -221 132 C-221.25 128.5 -221.25 128.5 -221 125 C-219 123 -219 123 -216 122.5 C-210.80300563 121.19801615 -207.67625895 116.99288283 -204.13671875 113.21484375 C-202 111 -202 111 -200 110 C-199.99635437 109.09877411 -199.99270874 108.19754822 -199.98895264 107.26901245 C-199.9510442 98.76473042 -199.89415903 90.26083077 -199.81609726 81.75681877 C-199.77663275 77.3850647 -199.74443935 73.01351174 -199.72900391 68.64160156 C-199.71383038 64.42031791 -199.679373 60.19958718 -199.63169098 55.97854996 C-199.61688426 54.37030984 -199.60895939 52.76199077 -199.60811615 51.15368271 C-199.60574247 48.89596763 -199.57863407 46.63977567 -199.54589844 44.38232422 C-199.53701599 43.09881073 -199.52813354 41.81529724 -199.51898193 40.4928894 C-198.70332075 35.00326805 -196.28755285 31.97755605 -191.93359375 28.671875 C-187.21557496 26.23790643 -182.27093253 26.32832229 -177.0625 26.25 C-176.09248047 26.22035156 -175.12246094 26.19070312 -174.12304688 26.16015625 C-171.74861702 26.08997606 -169.37513914 26.03702676 -167 26 C-169.83377354 22.38401604 -169.83377354 22.38401604 -173.92578125 20.57128906 C-176.13524276 20.47188379 -178.29120391 20.51436945 -180.5 20.625 C-181.24636719 20.63917969 -181.99273437 20.65335938 -182.76171875 20.66796875 C-186.61046217 20.77014778 -190.24324272 21.09062621 -194 22 C-194.495 19.525 -194.495 19.525 -195 17 C-193.34385343 16.61781233 -191.67542976 16.28604898 -190 16 C-189.67 16.33 -189.34 16.66 -189 17 C-186.97254417 17.01898762 -184.94502431 17.03544034 -182.91748047 17.03735352 C-172.24728403 17.14554708 -172.24728403 17.14554708 -168.30859375 19.84375 C-166.375 22.0625 -166.375 22.0625 -164.8984375 24.28515625 C-162.60657661 26.35537627 -161.79682999 26.24543328 -158.7890625 26.24609375 C-156.91347656 26.12427734 -156.91347656 26.12427734 -155 26 C-155.4846875 25.53102295 -155.969375 25.0620459 -156.46875 24.57885742 C-158.65360637 22.45623795 -160.8268529 20.3221031 -163 18.1875 C-163.763125 17.44951172 -164.52625 16.71152344 -165.3125 15.95117188 C-166.034375 15.23896484 -166.75625 14.52675781 -167.5 13.79296875 C-168.1703125 13.1383667 -168.840625 12.48376465 -169.53125 11.80932617 C-171 10 -171 10 -171 7 C-163.21508212 5.7332743 -154.34888443 4.31172999 -147.35302734 8.63623047 C-141.66636404 13.36900186 -135.34864079 19.30271841 -132 26 C-123.75 26 -115.5 26 -107 26 C-108.711875 24.22625 -110.42375 22.4525 -112.1875 20.625 C-112.71625732 20.06893066 -113.24501465 19.51286133 -113.78979492 18.93994141 C-116.65865394 16.02157341 -119.07544011 14.19099989 -123 13 C-122.67 11.35 -122.34 9.7 -122 8 C-119.6875 8.125 -119.6875 8.125 -117 9 C-115.98040734 10.99008312 -114.98384665 12.99200454 -114 15 C-110.58489257 19.80527199 -106.73677244 24.98217596 -100.82373047 26.59277344 C-95.87575661 27.30896852 -90.98289146 27.25118914 -86 27 C-86.08715017 25.06166004 -86.19532964 23.1242571 -86.3125 21.1875 C-86.39951172 19.56908203 -86.39951172 19.56908203 -86.48828125 17.91796875 C-87.04730184 14.73027117 -87.66892219 14.06575188 -90 12 C-89.57894737 7.57894737 -89.57894737 7.57894737 -88 6 C-85.5625 5.8125 -85.5625 5.8125 -83 6 C-81 8 -81 8 -80.875 10.625 C-80.91625 11.40875 -80.9575 12.1925 -81 13 C-81.99 13.33 -82.98 13.66 -84 14 C-84 18.29 -84 22.58 -84 27 C-69.75227606 28.49913786 -69.75227606 28.49913786 -56.58398438 24.38232422 C-53.78380499 21.6594869 -51.37628591 18.71732698 -48.93359375 15.67578125 C-45.32907345 11.50212616 -42.95844324 9.52425396 -37.359375 8.94140625 C-32.19668319 8.82867062 -27.10320956 9.2258842 -22 10 C-23.28174718 12.81878012 -24.61007615 14.85241496 -26.8203125 17.015625 C-27.35527344 17.54414062 -27.89023438 18.07265625 -28.44140625 18.6171875 C-28.99699219 19.15601562 -29.55257812 19.69484375 -30.125 20.25 C-30.96998047 21.08144531 -30.96998047 21.08144531 -31.83203125 21.9296875 C-33.21686028 23.29104485 -34.60783204 24.64614859 -36 26 C-31.24236723 26.60146994 -26.87177811 27.08569245 -22.60839844 24.61279297 C-20.37022754 22.66724332 -18.37186549 20.62941714 -16.375 18.4375 C-15.66988281 17.73302734 -14.96476563 17.02855469 -14.23828125 16.30273438 C-10.02169108 11.8952196 -8.23124062 9.10475233 -8 3 C-5.87018094 -0.30121955 -3.7966872 -0.56950308 0 0 Z M-184.90279484 42.29176998 C-186.86320806 45.34392179 -186.42346595 48.93173038 -186.40405273 52.44702148 C-186.41091599 53.30910217 -186.41777924 54.17118286 -186.42485046 55.05938721 C-186.44317474 57.91345621 -186.43927291 60.76697845 -186.43359375 63.62109375 C-186.43815296 65.60262736 -186.44345775 67.58415938 -186.44947815 69.56568909 C-186.45842039 73.72102273 -186.45597359 77.87616431 -186.44604492 82.03149414 C-186.43455581 87.35939068 -186.45476029 92.68662442 -186.48396206 98.01443386 C-186.50229935 102.10736816 -186.5020365 106.20014293 -186.49632454 110.29310799 C-186.49617101 112.25752759 -186.50224127 114.22195779 -186.51461601 116.18633842 C-186.52947701 118.93251102 -186.51888513 121.67745026 -186.50170898 124.42358398 C-186.51137695 125.23670547 -186.52104492 126.04982697 -186.53100586 126.8875885 C-186.48726956 130.22323709 -186.38754953 132.46577723 -184.39804935 135.20823002 C-181.17547718 137.6160654 -179.13430907 137.50305418 -175.13000488 137.50793457 C-174.09393121 137.51729451 -174.09393121 137.51729451 -173.03692675 137.52684355 C-170.72283812 137.54279643 -168.40979953 137.53016135 -166.09570312 137.51757812 C-164.43659348 137.52299826 -162.77748864 137.53012031 -161.11839294 137.53881836 C-156.61218677 137.55706766 -152.10634654 137.54997763 -147.6001339 137.53730202 C-142.88677349 137.52718264 -138.17344463 137.53656474 -133.46008301 137.54284668 C-125.54445768 137.55012619 -117.62898158 137.54052744 -109.71337891 137.52148438 C-100.55876535 137.49971503 -91.40450812 137.50676619 -82.2499032 137.52879 C-74.39331844 137.54693536 -66.53684101 137.54950655 -58.68024206 137.53903532 C-53.98635866 137.53279563 -49.29264281 137.53197779 -44.59877014 137.54518127 C-40.18604394 137.55672663 -35.77377761 137.54873833 -31.36110115 137.52560425 C-29.74055305 137.52031009 -28.11996631 137.52184303 -26.49943352 137.53065491 C-24.28909629 137.54156683 -22.08023779 137.52790202 -19.86999512 137.50793457 C-18.63261345 137.50642647 -17.39523178 137.50491837 -16.1203537 137.50336456 C-12.39199926 136.90191944 -11.19832659 136.03031231 -9 133 C-8.61060917 130.0169701 -8.46284133 127.40506844 -8.49829102 124.42358398 C-8.49288803 123.55975098 -8.48748505 122.69591797 -8.48191833 121.8059082 C-8.46941696 118.95228758 -8.48592994 116.09967299 -8.50390625 113.24609375 C-8.50375131 111.26359504 -8.50226314 109.28109603 -8.49949646 107.29859924 C-8.49811188 103.14497478 -8.51068156 98.99169538 -8.53344727 94.83813477 C-8.56185049 89.50912066 -8.5590903 84.18067919 -8.54635715 78.85162258 C-8.53940911 74.75872388 -8.54717895 70.665958 -8.55961418 66.57307625 C-8.56413588 64.60784476 -8.56445923 62.64259905 -8.56054878 60.67736626 C-8.55764466 57.93361952 -8.57410438 55.19066786 -8.59594727 52.44702148 C-8.59144562 51.63187576 -8.58694397 50.81673004 -8.58230591 49.97688293 C-8.57202213 45.93548557 -8.57202213 45.93548557 -10.09720516 42.29176998 C-12.97708566 40.33667577 -15.37681432 40.62216505 -18.83239746 40.61904907 C-19.53113149 40.6143691 -20.22986552 40.60968913 -20.94977331 40.60486734 C-23.29678536 40.5928781 -25.64321774 40.60238951 -27.99023438 40.61181641 C-29.67052044 40.60775243 -31.35080384 40.60241154 -33.03108215 40.59588623 C-37.59920846 40.58218601 -42.16713197 40.5875224 -46.73526192 40.59702349 C-51.51048463 40.6046061 -56.28568971 40.59757837 -61.06091309 40.59286499 C-69.08084234 40.58740335 -77.10068878 40.59460975 -85.12060547 40.60888672 C-94.39956407 40.62521402 -103.67832493 40.6199258 -112.95727873 40.6034075 C-120.91657313 40.58980425 -128.87580792 40.58786728 -136.83511019 40.59572351 C-141.59210738 40.60040643 -146.34901155 40.60100794 -151.10600281 40.59111404 C-155.57773303 40.58246352 -160.04920772 40.5884311 -164.52091026 40.60579681 C-166.16445681 40.60977193 -167.80802478 40.60861016 -169.45156288 40.60200882 C-171.69053551 40.59384336 -173.92868288 40.60405326 -176.16760254 40.61904907 C-178.04912899 40.62074569 -178.04912899 40.62074569 -179.96866608 40.62247658 C-182.95914102 40.76140767 -182.95914102 40.76140767 -184.90279484 42.29176998 Z " fill="#39424C" transform="translate(249,24)"/>
<path d="M0 0 C0.74395082 -0.00794881 1.48790165 -0.01589762 2.25439644 -0.02408731 C4.74313324 -0.04331178 7.22958941 -0.01971845 9.71826172 0.0038147 C11.50397591 -0.00104211 13.28968467 -0.00848172 15.07537842 -0.01831055 C19.92266129 -0.0371235 24.76913613 -0.01828332 29.6163559 0.00835371 C34.68824892 0.03098521 39.76010224 0.02276752 44.83203125 0.01885986 C53.34958092 0.01709397 61.86681223 0.03925437 70.38427734 0.07608032 C80.23247495 0.11841594 90.08020616 0.12543548 99.92847633 0.1129564 C109.40109034 0.10156773 118.87354005 0.11286194 128.34613037 0.1353035 C132.37794024 0.14459374 136.40964961 0.14634397 140.44146729 0.14213181 C145.18911087 0.13836493 149.93627967 0.15458118 154.683815 0.18625259 C156.42648606 0.19473887 158.16920529 0.19643893 159.91188812 0.19087219 C162.29041283 0.18442694 164.66751956 0.20259056 167.04589844 0.22705078 C168.08116511 0.21571281 168.08116511 0.21571281 169.13734627 0.20414579 C173.83990855 0.28973919 176.21207976 1.44195355 179.52294922 4.7484436 C180.6529255 7.00839617 180.6554188 8.2434873 180.67012024 10.75169373 C180.6808532 12.00710213 180.6808532 12.00710213 180.69180298 13.28787231 C180.69449188 14.20790039 180.69718079 15.12792847 180.69995117 16.07583618 C180.70652237 17.04345383 180.71309357 18.01107147 180.71986389 19.00801086 C180.73962284 22.21966625 180.7512649 25.43127484 180.76123047 28.64297485 C180.765306 29.73815619 180.76938152 30.83333752 180.77358055 31.96170616 C180.79445176 37.7575601 180.80874928 43.55339027 180.81811523 49.34927368 C180.82918556 55.34177249 180.86358993 61.33390056 180.90328693 67.3262682 C180.92940646 71.92876384 180.93780291 76.5311705 180.94139671 81.13373375 C180.94627425 83.34295851 180.95792123 85.55217899 180.97643471 87.76133156 C181.00072786 90.85214413 180.99987895 93.94198903 180.99291992 97.03286743 C181.00572998 97.94682281 181.01854004 98.8607782 181.03173828 99.8024292 C180.9973767 103.98589555 180.88322338 106.17243506 178.61857605 109.79316711 C175.03391489 113.13775289 172.12387324 112.89685584 167.44462585 112.89561462 C166.33866986 112.90112966 166.33866986 112.90112966 165.21037132 112.9067561 C162.72691052 112.917815 160.24349153 112.92164049 157.76000977 112.92544556 C155.98459743 112.9317085 154.20918642 112.93835515 152.43377686 112.94535828 C147.60107363 112.96278278 142.76838031 112.97332382 137.93565345 112.98156381 C134.91808191 112.9867105 131.90051346 112.99278636 128.88294411 112.99907494 C119.44669271 113.01813038 110.01044916 113.03236121 100.57418221 113.04068691 C89.67213296 113.05046402 78.7702865 113.07679443 67.86830872 113.1171878 C59.447876 113.14731895 51.02750151 113.16215289 42.60701591 113.16546792 C37.57489619 113.16782169 32.54299303 113.17682457 27.51093102 113.20192909 C22.77736883 113.22516261 18.0441665 113.22946213 13.31056213 113.21916771 C11.57269915 113.2186711 9.83481874 113.22502834 8.09700966 113.23872375 C5.72498053 113.25637219 3.35425274 113.24937235 0.98222351 113.2361908 C-0.05027628 113.25264466 -0.05027628 113.25264466 -1.10363466 113.26943094 C-5.80762368 113.20628421 -8.16715631 112.05552828 -11.47705078 108.7484436 C-13.2117519 105.27904137 -12.65220158 101.25746554 -12.66992188 97.43692017 C-12.68218811 95.98790314 -12.68218811 95.98790314 -12.69470215 94.50961304 C-12.71957789 91.30277125 -12.7360781 88.0959738 -12.75048828 84.8890686 C-12.75581196 83.79513542 -12.76113564 82.70120224 -12.76662064 81.57411957 C-12.79336217 75.78360189 -12.81273355 69.99310584 -12.82714844 64.20254517 C-12.84379526 58.21902718 -12.88857099 52.23606009 -12.93951988 46.2527504 C-12.97316479 41.65450401 -12.98472292 37.05638877 -12.99037552 32.4580307 C-12.99709598 30.25240623 -13.01233854 28.04679062 -13.03626633 25.84128571 C-13.06785952 22.75291486 -13.06796298 19.66603496 -13.06054688 16.57754517 C-13.08515488 15.212005 -13.08515488 15.212005 -13.11026001 13.81887817 C-13.10194153 12.9721051 -13.09362305 12.12533203 -13.08505249 11.25289917 C-13.08836264 10.52359318 -13.09167278 9.79428719 -13.09508324 9.04288101 C-11.17819747 1.92646766 -6.88955329 -0.14722447 0 0 Z M-3.37984562 10.04021358 C-5.34025885 13.0923654 -4.90051674 16.68017398 -4.88110352 20.19546509 C-4.88796677 21.05754578 -4.89483002 21.91962646 -4.90190125 22.80783081 C-4.92022552 25.66189982 -4.91632369 28.51542206 -4.91064453 31.36953735 C-4.91520374 33.35107096 -4.92050853 35.33260298 -4.92652893 37.31413269 C-4.93547118 41.46946634 -4.93302437 45.62460791 -4.9230957 49.77993774 C-4.91160659 55.10783429 -4.93181107 60.43506802 -4.96101284 65.76287746 C-4.97935014 69.85581176 -4.97908728 73.94858653 -4.97337532 78.04155159 C-4.97322179 80.00597119 -4.97929205 81.9704014 -4.99166679 83.93478203 C-5.00652779 86.68095462 -4.99593591 89.42589386 -4.97875977 92.17202759 C-4.98842773 92.98514908 -4.9980957 93.79827057 -5.00805664 94.6360321 C-4.96432034 97.97168069 -4.86460032 100.21422083 -2.87510014 102.95667362 C0.34747204 105.364509 2.38864015 105.25149779 6.39294434 105.25637817 C7.42901801 105.26573812 7.42901801 105.26573812 8.48602247 105.27528715 C10.8001111 105.29124003 13.11314969 105.27860495 15.42724609 105.26602173 C17.08635574 105.27144187 18.74546057 105.27856392 20.40455627 105.28726196 C24.91076245 105.30551126 29.41660268 105.29842123 33.92281532 105.28574562 C38.63617573 105.27562625 43.34950458 105.28500834 48.06286621 105.29129028 C55.97849154 105.29856979 63.89396764 105.28897104 71.80957031 105.26992798 C80.96418387 105.24815864 90.1184411 105.2552098 99.27304602 105.2772336 C107.12963078 105.29537897 114.98610821 105.29795016 122.84270716 105.28747892 C127.53659055 105.28123923 132.23030641 105.28042139 136.92417908 105.29362488 C141.33690528 105.30517023 145.7491716 105.29718194 150.16184807 105.27404785 C151.78239617 105.26875369 153.40298291 105.27028664 155.0235157 105.27909851 C157.23385292 105.29001043 159.44271143 105.27634562 161.6529541 105.25637817 C162.89033577 105.25487007 164.12771744 105.25336197 165.40259552 105.25180817 C169.13094995 104.65036305 170.32462263 103.77875591 172.52294922 100.7484436 C172.91234005 97.76541371 173.06010789 95.15351205 173.0246582 92.17202759 C173.03006119 91.30819458 173.03546417 90.44436157 173.04103088 89.55435181 C173.05353226 86.70073118 173.03701928 83.84811659 173.01904297 80.99453735 C173.01919791 79.01203865 173.02068608 77.02953963 173.02345276 75.04704285 C173.02483734 70.89341838 173.01226766 66.74013898 172.98950195 62.58657837 C172.96109873 57.25756426 172.96385892 51.92912279 172.97659206 46.60006618 C172.98354011 42.50716748 172.97577027 38.4144016 172.96333504 34.32151985 C172.95881333 32.35628837 172.95848999 30.39104266 172.96240044 28.42580986 C172.96530456 25.68206312 172.94884484 22.93911147 172.92700195 20.19546509 C172.9315036 19.38031937 172.93600525 18.56517365 172.94064331 17.72532654 C172.95092708 13.68392917 172.95092708 13.68392917 171.42574406 10.04021358 C168.54586356 8.08511937 166.1461349 8.37060865 162.69055176 8.36749268 C161.99181773 8.3628127 161.2930837 8.35813273 160.57317591 8.35331094 C158.22616385 8.34132171 155.87973148 8.35083311 153.53271484 8.36026001 C151.85242878 8.35619604 150.17214538 8.35085514 148.49186707 8.34432983 C143.92374076 8.33062962 139.35581725 8.335966 134.7876873 8.34546709 C130.01246459 8.3530497 125.23725951 8.34602198 120.46203613 8.34130859 C112.44210688 8.33584696 104.42226044 8.34305335 96.40234375 8.35733032 C87.12338515 8.37365762 77.84462429 8.3683694 68.56567049 8.35185111 C60.60637609 8.33824786 52.6471413 8.33631088 44.68783903 8.34416711 C39.93084184 8.34885003 35.17393767 8.34945154 30.41694641 8.33955765 C25.94521619 8.33090713 21.4737415 8.3368747 17.00203896 8.35424042 C15.3584924 8.35821553 13.71492444 8.35705377 12.07138634 8.35045242 C9.8324137 8.34228696 7.59426634 8.35249687 5.35534668 8.36749268 C3.47382023 8.36918929 3.47382023 8.36918929 1.55428314 8.37092018 C-1.4361918 8.50985127 -1.4361918 8.50985127 -3.37984562 10.04021358 Z " fill="#F0F1F1" transform="translate(67.47705078125,56.251556396484375)"/>
<path d="M0 0 C1.36172585 -0.01418472 1.36172585 -0.01418472 2.7509613 -0.02865601 C3.72912308 -0.02258331 4.70728485 -0.01651062 5.71508789 -0.01025391 C7.22601768 -0.01455917 7.22601768 -0.01455917 8.76747131 -0.01895142 C10.89837201 -0.02099347 13.02929138 -0.0154538 15.16015625 -0.00292969 C18.42173245 0.01310488 21.68206625 -0.00276542 24.94360352 -0.02197266 C27.01326771 -0.01998992 29.08293113 -0.01614562 31.15258789 -0.01025391 C32.6167942 -0.01936295 32.6167942 -0.01936295 34.11058044 -0.02865601 C35.47703453 -0.01447128 35.47703453 -0.01447128 36.87109375 0 C38.06997475 0.00358017 38.06997475 0.00358017 39.29307556 0.00723267 C42.12467908 0.49595926 43.47888194 1.3549874 45.50024414 3.38818359 C45.99472046 5.43040466 45.99472046 5.43040466 45.98608398 7.79614258 C45.99223724 8.68393906 45.9983905 9.57173553 46.00473022 10.48643494 C45.99035919 11.44272293 45.97598816 12.39901093 45.96118164 13.38427734 C45.95980698 14.86191307 45.95980698 14.86191307 45.95840454 16.36940002 C45.95236115 18.45326553 45.93659314 20.53712206 45.91186523 22.62084961 C45.87542454 25.80989626 45.87084538 28.99777889 45.87133789 32.18701172 C45.86150425 34.2111103 45.84984617 36.235201 45.83618164 38.25927734 C45.83395599 39.21354111 45.83173035 40.16780487 45.82943726 41.15098572 C45.81667755 42.04193436 45.80391785 42.932883 45.79077148 43.85083008 C45.77933609 45.02306374 45.77933609 45.02306374 45.76766968 46.21897888 C45.46135023 48.70366896 44.87478733 50.2970965 43.50024414 52.38818359 C40.72292906 53.31395529 39.03661849 53.51917237 36.16821289 53.53344727 C35.29720947 53.53982712 34.42620605 53.54620697 33.52880859 53.55278015 C32.59125732 53.55389297 31.65370605 53.5550058 30.68774414 53.55615234 C29.23984497 53.56114494 29.23984497 53.56114494 27.76269531 53.5662384 C25.72176592 53.57130113 23.68082825 53.57364693 21.63989258 53.57348633 C18.51247601 53.57567503 15.38541089 53.59384378 12.25805664 53.61279297 C10.27628702 53.61572654 8.29451571 53.61771158 6.31274414 53.61865234 C5.37519287 53.62583786 4.4376416 53.63302338 3.47167969 53.64042664 C2.16517456 53.63581169 2.16517456 53.63581169 0.83227539 53.63110352 C0.06633057 53.63252853 -0.69961426 53.63395355 -1.48876953 53.63542175 C-3.49975586 53.38818359 -3.49975586 53.38818359 -6.49975586 51.38818359 C-7.43145107 48.59309796 -7.63568877 46.8567692 -7.66088867 43.96435547 C-7.67529999 42.62781921 -7.67529999 42.62781921 -7.69000244 41.26428223 C-7.69425232 40.30485718 -7.6985022 39.34543213 -7.70288086 38.35693359 C-7.70858093 37.36947144 -7.71428101 36.38200928 -7.72015381 35.36462402 C-7.72959935 33.27662222 -7.73613602 31.18860554 -7.73999023 29.10058594 C-7.74971806 25.90061676 -7.7807548 22.70128387 -7.81225586 19.50146484 C-7.81878378 17.47412491 -7.82403508 15.44678039 -7.82788086 13.41943359 C-7.84022766 12.46000854 -7.85257446 11.5005835 -7.86529541 10.51208496 C-7.86229431 9.62106079 -7.85929321 8.73003662 -7.85620117 7.81201172 C-7.8598468 7.028302 -7.86349243 6.24459229 -7.86724854 5.43713379 C-7.04817878 0.87042203 -4.26327695 0.01274394 0 0 Z " fill="#5E6770" transform="translate(134.499755859375,94.61181640625)"/>
<path d="M0 0 C0.89102417 -0.00945648 1.78204834 -0.01891296 2.70007324 -0.02865601 C3.65949829 -0.02258331 4.61892334 -0.01651062 5.60742188 -0.01025391 C6.59488403 -0.01312408 7.58234619 -0.01599426 8.59973145 -0.01895142 C10.68774997 -0.02099316 12.77578758 -0.01545565 14.86376953 -0.00292969 C18.06391071 0.01312209 21.26278884 -0.002775 24.46289062 -0.02197266 C26.49023717 -0.01999024 28.51758293 -0.01614661 30.54492188 -0.01025391 C31.98405945 -0.01936295 31.98405945 -0.01936295 33.45227051 -0.02865601 C34.78880676 -0.01447128 34.78880676 -0.01447128 36.15234375 0 C37.32790833 0.00358017 37.32790833 0.00358017 38.52722168 0.00723267 C41.15893962 0.49653465 42.02995911 1.21808927 43.57617188 3.38818359 C43.9571228 5.43040466 43.9571228 5.43040466 43.96435547 7.79614258 C43.97381195 8.68393906 43.98326843 9.57173553 43.99301147 10.48643494 C43.98693878 11.44272293 43.98086609 12.39901093 43.97460938 13.38427734 C43.97747955 14.36936783 43.98034973 15.35445831 43.98330688 16.36940002 C43.98534881 18.4532224 43.97981003 20.53706388 43.96728516 22.62084961 C43.95125069 25.81000714 43.96712102 28.997894 43.98632812 32.18701172 C43.98434538 34.21110306 43.98050106 36.23519361 43.97460938 38.25927734 C43.98371841 39.69067299 43.98371841 39.69067299 43.99301147 41.15098572 C43.98355499 42.04193436 43.97409851 42.932883 43.96435547 43.85083008 C43.96196869 44.63231918 43.95958191 45.41380829 43.9571228 46.21897888 C43.47193728 48.98171458 42.48026651 50.35166073 40.57617188 52.38818359 C36.61217907 53.70951453 32.80689869 53.55072163 28.67382812 53.55615234 C27.79971786 53.55948074 26.9256076 53.56280914 26.02500916 53.5662384 C24.17659023 53.57130008 22.32816218 53.57364696 20.47973633 53.57348633 C17.65300437 53.57567251 14.82666289 53.5938353 12 53.61279297 C10.20377738 53.61572711 8.4075529 53.61771177 6.61132812 53.61865234 C5.34398582 53.62943062 5.34398582 53.62943062 4.05104065 53.64042664 C3.26019577 53.63735001 2.46935089 53.63427338 1.65454102 53.63110352 C0.96187637 53.63252853 0.26921173 53.63395355 -0.44444275 53.63542175 C-2.80913599 53.34005613 -4.39867113 52.63157388 -6.42382812 51.38818359 C-7.59923218 49.03737549 -7.56269401 47.60702934 -7.58496094 44.98608398 C-7.59456848 44.07496353 -7.60417603 43.16384308 -7.61407471 42.22511292 C-7.61832458 41.2386528 -7.62257446 40.25219269 -7.62695312 39.23583984 C-7.6326532 38.22476669 -7.63835327 37.21369354 -7.64422607 36.17198181 C-7.65368228 34.03092498 -7.66021251 31.88985355 -7.6640625 29.7487793 C-7.67377828 26.46751665 -7.70480025 23.18687753 -7.73632812 19.90576172 C-7.74285699 17.82829149 -7.74810792 15.75081677 -7.75195312 13.67333984 C-7.77047333 12.19668602 -7.77047333 12.19668602 -7.78936768 10.69020081 C-7.78636658 9.77592819 -7.78336548 8.86165558 -7.78027344 7.91967773 C-7.78391907 7.11518692 -7.7875647 6.31069611 -7.7913208 5.48182678 C-6.99207184 0.92842407 -4.26859443 0.01299996 0 0 Z " fill="#4B5860" transform="translate(79.423828125,94.61181640625)"/>
<path d="M0 0 C1.37918861 -0.00218285 1.37918861 -0.00218285 2.78623962 -0.00440979 C4.7270729 -0.00275186 6.66791945 0.00879752 8.60864258 0.02954102 C11.58276019 0.05852472 14.55509847 0.05014224 17.52929688 0.03710938 C19.41537326 0.04334601 21.30144402 0.05173636 23.1875 0.0625 C24.07816666 0.05956436 24.96883331 0.05662872 25.88648987 0.05360413 C26.71422409 0.0662883 27.54195831 0.07897247 28.39477539 0.09204102 C29.12217422 0.097444 29.84957306 0.10284698 30.59901428 0.1084137 C33.14827684 0.62092894 34.01613905 1.39358052 35.52734375 3.49609375 C35.9150238 5.62097168 35.9150238 5.62097168 35.93139648 8.10351562 C35.94408066 9.0345813 35.95676483 9.96564697 35.96983337 10.92492676 C35.96689774 11.92809937 35.9639621 12.93127197 35.9609375 13.96484375 C35.96617935 14.996698 35.9714212 16.02855225 35.9768219 17.0916748 C35.98324693 19.27383524 35.98189891 21.45603029 35.97338867 23.63818359 C35.96487612 26.98337209 35.99363878 30.3268552 36.02539062 33.671875 C36.02700258 35.79036407 36.02642522 37.90885617 36.0234375 40.02734375 C36.04028847 41.53210266 36.04028847 41.53210266 36.05747986 43.06726074 C36.04340843 44.46385925 36.04340843 44.46385925 36.02905273 45.88867188 C36.02888657 46.70791138 36.0287204 47.52715088 36.02854919 48.37121582 C35.52734375 50.49609375 35.52734375 50.49609375 33.75088501 52.26177979 C31.38068369 53.57750648 30.12823512 53.86664054 27.44897461 53.85253906 C26.65812973 53.85554016 25.86728485 53.85854126 25.05247498 53.8616333 C24.20758011 53.8492865 23.36268524 53.8369397 22.4921875 53.82421875 C21.61712051 53.82234558 20.74205353 53.82047241 19.84046936 53.81854248 C17.99378641 53.81182985 16.1471175 53.79793101 14.30053711 53.77734375 C11.47170822 53.7461694 8.64343685 53.73636912 5.81445312 53.73046875 C4.01952445 53.72129905 2.22460144 53.71092338 0.4296875 53.69921875 C-0.4172316 53.69496887 -1.2641507 53.69071899 -2.13673401 53.68634033 C-5.48839273 53.64545991 -8.27200128 53.56297874 -11.47265625 52.49609375 C-13.31996165 49.67516482 -13.72978389 47.39914056 -13.76318359 44.06640625 C-13.7759433 43.19870605 -13.788703 42.33100586 -13.80184937 41.43701172 C-13.80407501 40.50775879 -13.80630066 39.57850586 -13.80859375 38.62109375 C-13.81525055 37.65961426 -13.82190735 36.69813477 -13.82876587 35.70751953 C-13.83888085 33.67677725 -13.84358325 31.64600182 -13.84326172 29.61523438 C-13.84764052 26.50725766 -13.8839879 23.40069481 -13.921875 20.29296875 C-13.92774223 18.31901527 -13.93171225 16.34505505 -13.93359375 14.37109375 C-13.94796478 13.44184082 -13.96233582 12.51258789 -13.97714233 11.55517578 C-13.95045648 7.79207731 -13.88180634 5.23256391 -12.03588867 1.90991211 C-8.09601341 -0.26322987 -4.43013037 -0.05600452 0 0 Z " fill="#47525D" transform="translate(197.47265625,94.50390625)"/>
<path d="M0 0 C0.69873403 -0.00467997 1.39746806 -0.00935994 2.11737585 -0.01418173 C4.4643879 -0.02617097 6.81082028 -0.01665956 9.15783691 -0.00723267 C10.83812298 -0.01129664 12.51840638 -0.01663753 14.19868469 -0.02316284 C18.766811 -0.03686306 23.33473451 -0.03152667 27.90286446 -0.02202559 C32.67808717 -0.01444298 37.45329225 -0.0214707 42.22851562 -0.02618408 C50.24844488 -0.03164572 58.26829132 -0.02443932 66.28820801 -0.01016235 C75.5671666 0.00616494 84.84592746 0.00087672 94.12488127 -0.01564157 C102.08417567 -0.02924482 110.04341046 -0.03118179 118.00271273 -0.02332556 C122.75970992 -0.01864265 127.51661409 -0.01804114 132.27360535 -0.02793503 C136.74533557 -0.03658555 141.21681026 -0.03061798 145.6885128 -0.01325226 C147.33205935 -0.00927715 148.97562732 -0.01043891 150.61916542 -0.01704025 C152.85813805 -0.02520571 155.09628542 -0.01499581 157.33520508 0 C159.21673153 0.00169662 159.21673153 0.00169662 161.13626862 0.00342751 C164.16760254 0.38095093 164.16760254 0.38095093 167.16760254 3.38095093 C167.16760254 7.01095093 167.16760254 10.64095093 167.16760254 14.38095093 C108.75760254 14.38095093 50.34760254 14.38095093 -9.83239746 14.38095093 C-9.83239746 10.75095093 -9.83239746 7.12095093 -9.83239746 3.38095093 C-6.12759633 -0.3238502 -5.09728571 0.00459634 0 0 Z " fill="#57646E" transform="translate(72.8323974609375,64.61904907226563)"/>
<path d="M0 0 C1.8125 1.0625 1.8125 1.0625 3 3 C3.375 6.5625 3.375 6.5625 3 10 C0 12 0 12 -2.7890625 12.7421875 C-6.98923979 14.38751242 -9.32753462 16.88189486 -12.375 20.125 C-12.92027344 20.68832031 -13.46554688 21.25164063 -14.02734375 21.83203125 C-15.3609075 23.21238671 -16.68177679 24.60498709 -18 26 C-14.7 26.33 -11.4 26.66 -8 27 C-8 27.33 -8 27.66 -8 28 C-67.4 28 -126.8 28 -188 28 C-188 27.67 -188 27.34 -188 27 C-177.605 26.505 -177.605 26.505 -167 26 C-171.11761623 21.07174068 -171.11761623 21.07174068 -174.04882812 20.41650391 C-174.70302734 20.43632324 -175.35722656 20.45614258 -176.03125 20.4765625 C-176.75957031 20.48816406 -177.48789063 20.49976562 -178.23828125 20.51171875 C-179.35783203 20.56779297 -179.35783203 20.56779297 -180.5 20.625 C-181.24636719 20.63917969 -181.99273437 20.65335938 -182.76171875 20.66796875 C-186.61046217 20.77014778 -190.24324272 21.09062621 -194 22 C-194.33 20.35 -194.66 18.7 -195 17 C-193.34385343 16.61781233 -191.67542976 16.28604898 -190 16 C-189.67 16.33 -189.34 16.66 -189 17 C-186.97254417 17.01898762 -184.94502431 17.03544034 -182.91748047 17.03735352 C-172.24728403 17.14554708 -172.24728403 17.14554708 -168.30859375 19.84375 C-166.375 22.0625 -166.375 22.0625 -164.8984375 24.28515625 C-162.60657661 26.35537627 -161.79682999 26.24543328 -158.7890625 26.24609375 C-156.91347656 26.12427734 -156.91347656 26.12427734 -155 26 C-155.4846875 25.53102295 -155.969375 25.0620459 -156.46875 24.57885742 C-158.65360637 22.45623795 -160.8268529 20.3221031 -163 18.1875 C-163.763125 17.44951172 -164.52625 16.71152344 -165.3125 15.95117188 C-166.034375 15.23896484 -166.75625 14.52675781 -167.5 13.79296875 C-168.1703125 13.1383667 -168.840625 12.48376465 -169.53125 11.80932617 C-171 10 -171 10 -171 7 C-163.21508212 5.7332743 -154.34888443 4.31172999 -147.35302734 8.63623047 C-141.66636404 13.36900186 -135.34864079 19.30271841 -132 26 C-123.75 26 -115.5 26 -107 26 C-108.711875 24.22625 -110.42375 22.4525 -112.1875 20.625 C-112.71625732 20.06893066 -113.24501465 19.51286133 -113.78979492 18.93994141 C-116.65865394 16.02157341 -119.07544011 14.19099989 -123 13 C-122.67 11.35 -122.34 9.7 -122 8 C-119.6875 8.125 -119.6875 8.125 -117 9 C-115.98040734 10.99008312 -114.98384665 12.99200454 -114 15 C-110.58489257 19.80527199 -106.73677244 24.98217596 -100.82373047 26.59277344 C-95.87575661 27.30896852 -90.98289146 27.25118914 -86 27 C-86.08715017 25.06166004 -86.19532964 23.1242571 -86.3125 21.1875 C-86.37050781 20.10855469 -86.42851562 19.02960937 -86.48828125 17.91796875 C-87.04730184 14.73027117 -87.66892219 14.06575188 -90 12 C-89.57894737 7.57894737 -89.57894737 7.57894737 -88 6 C-85.5625 5.8125 -85.5625 5.8125 -83 6 C-81 8 -81 8 -80.875 10.625 C-80.91625 11.40875 -80.9575 12.1925 -81 13 C-81.99 13.33 -82.98 13.66 -84 14 C-84 18.29 -84 22.58 -84 27 C-69.75227606 28.49913786 -69.75227606 28.49913786 -56.58398438 24.38232422 C-53.78380499 21.6594869 -51.37628591 18.71732698 -48.93359375 15.67578125 C-45.32907345 11.50212616 -42.95844324 9.52425396 -37.359375 8.94140625 C-32.19668319 8.82867062 -27.10320956 9.2258842 -22 10 C-23.28174718 12.81878012 -24.61007615 14.85241496 -26.8203125 17.015625 C-27.35527344 17.54414062 -27.89023438 18.07265625 -28.44140625 18.6171875 C-28.99699219 19.15601562 -29.55257812 19.69484375 -30.125 20.25 C-30.96998047 21.08144531 -30.96998047 21.08144531 -31.83203125 21.9296875 C-33.21686028 23.29104485 -34.60783204 24.64614859 -36 26 C-31.24236723 26.60146994 -26.87177811 27.08569245 -22.60839844 24.61279297 C-20.37022754 22.66724332 -18.37186549 20.62941714 -16.375 18.4375 C-15.66988281 17.73302734 -14.96476563 17.02855469 -14.23828125 16.30273438 C-10.02169108 11.8952196 -8.23124062 9.10475233 -8 3 C-5.87018094 -0.30121955 -3.7966872 -0.56950308 0 0 Z " fill="#9792DC" transform="translate(249,24)"/>
<path d="M0 0 C0.33 0 0.66 0 1 0 C1.33 5.61 1.66 11.22 2 17 C9.02240239 10.83077252 9.02240239 10.83077252 11 2 C14 0 14 0 17.5625 0.1875 C21 1 21 1 23 4 C22.7909311 6.78758532 22.33997443 8.50703708 20.75 10.8125 C19 12 19 12 16.78125 11.7265625 C12.62355039 12.1353251 10.53237322 14.70170204 7.75 17.5625 C7.20859375 18.07619141 6.6671875 18.58988281 6.109375 19.11914062 C2.39360845 22.85813071 1.24670204 25.56570229 1 31 C4.06277267 30.85873374 7.12513542 30.71215604 10.1875 30.5625 C11.05181641 30.52318359 11.91613281 30.48386719 12.80664062 30.44335938 C16.95914122 30.23652984 20.94537862 29.99896469 25 29 C25.625 31.375 25.625 31.375 26 34 C25.34 34.66 24.68 35.32 24 36 C21.875 35.625 21.875 35.625 20 35 C20 34.34 20 33.68 20 33 C13.73 33 7.46 33 1 33 C1 37.62 1 42.24 1 47 C2.42054688 46.97679687 3.84109375 46.95359375 5.3046875 46.9296875 C7.16145309 46.91093229 9.01822435 46.89273183 10.875 46.875 C11.81214844 46.85824219 12.74929688 46.84148437 13.71484375 46.82421875 C14.61074219 46.81777344 15.50664062 46.81132813 16.4296875 46.8046875 C17.25710449 46.79421387 18.08452148 46.78374023 18.93701172 46.77294922 C21 47 21 47 23 49 C23.265625 51.75 23.265625 51.75 23.25 55 C23.25515625 56.0725 23.2603125 57.145 23.265625 58.25 C23 61 23 61 21 63 C18.93701172 63.22705078 18.93701172 63.22705078 16.4296875 63.1953125 C15.53378906 63.18886719 14.63789063 63.18242188 13.71484375 63.17578125 C12.77769531 63.15902344 11.84054687 63.14226562 10.875 63.125 C9.93011719 63.11597656 8.98523438 63.10695312 8.01171875 63.09765625 C5.67422708 63.07404522 3.33723877 63.04111516 1 63 C1 65.64 1 68.28 1 71 C3.89611544 70.85865273 6.7918081 70.7120847 9.6875 70.5625 C10.50412109 70.52318359 11.32074219 70.48386719 12.16210938 70.44335938 C16.19655811 70.23101997 20.05747309 69.95552078 24 69 C24.33 70.65 24.66 72.3 25 74 C23.34385343 74.38218767 21.67542976 74.71395102 20 75 C19.505 74.505 19.505 74.505 19 74 C16.64686445 73.92728259 14.29166332 73.91629132 11.9375 73.9375 C10.64714844 73.94652344 9.35679687 73.95554687 8.02734375 73.96484375 C7.02832031 73.97644531 6.02929688 73.98804688 5 74 C5.928125 74.763125 6.85625 75.52625 7.8125 76.3125 C9.51600659 77.7149217 11.00450972 79.00529402 12.4375 80.6875 C14.92872314 82.78012744 17.89694819 83.19550509 21 84 C22 85 22 85 22.25 88.375 C22 92 22 92 20.875 94 C18.01126853 95.52732345 16.04699809 94.84278671 13 94 C11 92 11 92 10.3125 88.8125 C8.93811833 83.91512986 8.93811833 83.91512986 2 78 C1.67 84.6 1.34 91.2 1 98 C0.67 98 0.34 98 0 98 C0 65.66 0 33.32 0 0 Z " fill="#918DCB" transform="translate(253,64)"/>
<path d="M0 0 C0.33 0 0.66 0 1 0 C1 22.11 1 44.22 1 67 C-8.405 67.495 -8.405 67.495 -18 68 C-18.495 68.495 -18.495 68.495 -19 69 C-20.66617115 69.04063832 -22.33388095 69.042721 -24 69 C-24 67.35 -24 65.7 -24 64 C-21.525 63.505 -21.525 63.505 -19 63 C-19 63.66 -19 64.32 -19 65 C-12.73 65 -6.46 65 0 65 C0 62.03 0 59.06 0 56 C-1.33675781 56.02320313 -2.67351563 56.04640625 -4.05078125 56.0703125 C-5.80468192 56.0890708 -7.55858862 56.10727093 -9.3125 56.125 C-10.63411133 56.15013672 -10.63411133 56.15013672 -11.98242188 56.17578125 C-12.82998047 56.18222656 -13.67753906 56.18867187 -14.55078125 56.1953125 C-15.72120972 56.21102295 -15.72120972 56.21102295 -16.9152832 56.22705078 C-19 56 -19 56 -22 54 C-22.36328125 51.03125 -22.36328125 51.03125 -22.3125 47.5 C-22.30863281 46.3346875 -22.30476563 45.169375 -22.30078125 43.96875 C-22 41 -22 41 -20 39 C-17.93701172 38.77294922 -17.93701172 38.77294922 -15.4296875 38.8046875 C-14.53378906 38.81113281 -13.63789062 38.81757812 -12.71484375 38.82421875 C-11.77769531 38.84097656 -10.84054688 38.85773438 -9.875 38.875 C-8.93011719 38.88402344 -7.98523438 38.89304688 -7.01171875 38.90234375 C-4.67422708 38.92595478 -2.33723877 38.95888484 0 39 C0 36.36 0 33.72 0 31 C-2.39614575 31.14165893 -4.79182897 31.28818841 -7.1875 31.4375 C-7.86103516 31.47681641 -8.53457031 31.51613281 -9.22851562 31.55664062 C-12.18335623 31.74402076 -15.02237553 32.0045707 -17.92578125 32.59765625 C-18.95251953 32.79681641 -18.95251953 32.79681641 -20 33 C-21 32 -21 32 -21.0625 29.4375 C-21.041875 28.633125 -21.02125 27.82875 -21 27 C-19.0625 26.4375 -19.0625 26.4375 -17 26 C-16.67 26.33 -16.34 26.66 -16 27 C-13.30764224 27.23678716 -10.63501844 27.42198025 -7.9375 27.5625 C-7.17888672 27.60568359 -6.42027344 27.64886719 -5.63867188 27.69335938 C-3.75934562 27.79973633 -1.87969756 27.90039934 0 28 C-1.84495793 23.91803059 -3.54223761 21.10527349 -7 18.25 C-7.680625 17.67765625 -8.36125 17.1053125 -9.0625 16.515625 C-12.45158662 13.84823805 -12.45158662 13.84823805 -16.5 12.5625 C-19 12 -19 12 -20.875 10.8125 C-22 9 -22 9 -21.8125 5.9375 C-21 3 -21 3 -19 1 C-15.98478096 0.67923202 -13.89038397 0.45940973 -11.25 2.0625 C-10 4 -10 4 -9.3125 7.25 C-7.45111178 12.56825207 -4.38699617 14.53285787 0 18 C0 12.06 0 6.12 0 0 Z " fill="#B162D6" transform="translate(49,63)"/>
<path d="M0 0 C7.77272548 -1.26474181 16.62480543 -2.66750448 23.63085938 1.60400391 C30.18572575 7.00053397 36.1920394 13.3840788 40 21 C21.19 21 2.38 21 -17 21 C-17 20.67 -17 20.34 -17 20 C-6.605 19.505 -6.605 19.505 4 19 C-0.11761623 14.07174068 -0.11761623 14.07174068 -3.04882812 13.41650391 C-3.70302734 13.43632324 -4.35722656 13.45614258 -5.03125 13.4765625 C-5.75957031 13.48816406 -6.48789063 13.49976563 -7.23828125 13.51171875 C-7.98464844 13.54910156 -8.73101562 13.58648437 -9.5 13.625 C-10.24636719 13.63917969 -10.99273437 13.65335938 -11.76171875 13.66796875 C-15.61046217 13.77014778 -19.24324272 14.09062621 -23 15 C-23.33 13.35 -23.66 11.7 -24 10 C-22.34385343 9.61781233 -20.67542976 9.28604898 -19 9 C-18.67 9.33 -18.34 9.66 -18 10 C-15.97254417 10.01898762 -13.94502431 10.03544034 -11.91748047 10.03735352 C-1.24728403 10.14554708 -1.24728403 10.14554708 2.69140625 12.84375 C4.625 15.0625 4.625 15.0625 6.1015625 17.28515625 C8.39342339 19.35537627 9.20317001 19.24543328 12.2109375 19.24609375 C14.08652344 19.12427734 14.08652344 19.12427734 16 19 C15.5153125 18.53102295 15.030625 18.0620459 14.53125 17.57885742 C12.34639363 15.45623795 10.1731471 13.3221031 8 11.1875 C7.236875 10.44951172 6.47375 9.71152344 5.6875 8.95117188 C4.965625 8.23896484 4.24375 7.52675781 3.5 6.79296875 C2.8296875 6.1383667 2.159375 5.48376465 1.46875 4.80932617 C0 3 0 3 0 0 Z " fill="#4FD3BA" transform="translate(78,31)"/>
<path d="M0 0 C17.82 0 35.64 0 54 0 C54 0.33 54 0.66 54 1 C45.75 1 37.5 1 29 1 C29 4.3 29 7.6 29 11 C29.99 11.33 30.98 11.66 32 12 C32.125 14.375 32.125 14.375 32 17 C30 19 30 19 27.5 19.25 C25 19 25 19 23 17 C22.875 14.375 22.875 14.375 23 12 C23.99 11.67 24.98 11.34 26 11 C26 7.7 26 4.4 26 1 C20.2795641 2.04490934 18.01430685 5.00795342 14.44116211 9.22290039 C4.95158779 20.25538553 4.95158779 20.25538553 -2.55859375 21.12109375 C-7.44853234 21.24405159 -12.1742785 20.76353194 -17 20 C-16.4164506 16.60733571 -15.33564677 14.95964862 -12.91015625 12.546875 C-12.29076172 11.928125 -11.67136719 11.309375 -11.03320312 10.671875 C-10.38287109 10.03765625 -9.73253906 9.4034375 -9.0625 8.75 C-8.41603516 8.1003125 -7.76957031 7.450625 -7.10351562 6.78125 C-2.26702009 2 -2.26702009 2 0 2 C0 1.34 0 0.68 0 0 Z " fill="#41C9B4" transform="translate(81,174)"/>
<path d="M0 0 C17.16 0 34.32 0 52 0 C52 0.33 52 0.66 52 1 C44.08 1.495 44.08 1.495 36 2 C39.52895235 6.36482711 39.52895235 6.36482711 43.93359375 6.42578125 C45.43527213 6.40858141 46.93683078 6.37016876 48.4375 6.3125 C49.18837891 6.30283203 49.93925781 6.29316406 50.71289062 6.28320312 C54.58525395 6.20487036 58.22035321 5.92424762 62 5 C62.495 7.475 62.495 7.475 63 10 C61.34385343 10.38218767 59.67542976 10.71395102 58 11 C57.505 10.505 57.505 10.505 57 10 C54.95570728 9.96206467 52.9112848 9.92740937 50.86669922 9.91186523 C40.14714407 9.75326707 40.14714407 9.75326707 36.53125 7.37890625 C34.875 5.4375 34.875 5.4375 33.6796875 3.49609375 C31.3792433 1.11317597 31.3792433 1.11317597 24 2 C28.62 6.62 33.24 11.24 38 16 C37.505 17.485 37.505 17.485 37 19 C20.35681769 20.0569763 20.35681769 20.0569763 15.30859375 17.79296875 C13.29414605 15.99720849 11.68891463 14.10464747 10 12 C8.1765369 10.21900474 6.34278425 8.44849632 4.5 6.6875 C2.95569287 5.16877628 1.44192112 3.61625175 0 2 C0 1.34 0 0.68 0 0 Z " fill="#6CD97B" transform="translate(189,174)"/>
<path d="M0 0 C1.31806641 -0.00315216 2.63613281 -0.00630432 3.99414062 -0.009552 C5.44401075 -0.00776222 6.89388058 -0.00571127 8.34375 -0.00341797 C9.81966162 -0.00409104 11.29557313 -0.0050611 12.77148438 -0.00631714 C15.86850029 -0.00779395 18.96548742 -0.00564011 22.0625 -0.00097656 C26.04083549 0.00472073 30.01910352 0.00144163 33.99743652 -0.00454903 C37.04622917 -0.0081551 40.09500571 -0.00701584 43.14379883 -0.00442123 C44.61108406 -0.00375209 46.07837074 -0.00457994 47.5456543 -0.00690079 C49.59293593 -0.00942804 51.64022266 -0.00489607 53.6875 0 C55.43836914 0.00119339 55.43836914 0.00119339 57.22460938 0.00241089 C59.84375 0.12939453 59.84375 0.12939453 60.84375 1.12939453 C60.96875 3.62939453 60.96875 3.62939453 60.84375 6.12939453 C59.01818883 7.9549557 56.13836397 7.25711856 53.6875 7.25878906 C52.36943359 7.26194122 51.05136719 7.26509338 49.69335938 7.26834106 C48.24348925 7.26655129 46.79361942 7.26450033 45.34375 7.26220703 C43.86783838 7.26288011 42.39192687 7.26385016 40.91601562 7.2651062 C37.81899971 7.26658301 34.72201258 7.26442917 31.625 7.25976562 C27.64666451 7.25406834 23.66839648 7.25734743 19.69006348 7.26333809 C16.64127083 7.26694417 13.59249429 7.2658049 10.54370117 7.2632103 C9.07641594 7.26254116 7.60912926 7.263369 6.1418457 7.26568985 C4.09456407 7.2682171 2.04727734 7.26368513 0 7.25878906 C-1.75086914 7.25759567 -1.75086914 7.25759567 -3.53710938 7.25637817 C-6.15625 7.12939453 -6.15625 7.12939453 -7.15625 6.12939453 C-7.28125 3.62939453 -7.28125 3.62939453 -7.15625 1.12939453 C-5.33068883 -0.69616664 -2.45086397 0.00167051 0 0 Z " fill="#2D3640" transform="translate(128.15625,191.87060546875)"/>
<path d="M0 0 C-3.24516086 6.7967476 -8.23969581 13.41693769 -15 17 C-22.21633959 18.56046178 -29.71890758 17.8283995 -37 17 C-36.61400635 16.557771 -36.2280127 16.11554199 -35.83032227 15.65991211 C-33.41943046 12.8763906 -31.09667796 10.13638829 -28.96484375 7.12890625 C-21.2524487 -2.63418344 -11.36039291 -1.01908024 0 0 Z " fill="#9182F3" transform="translate(227,34)"/>
<path d="M0 0 C3.29188269 -0.05376941 6.58289426 -0.09356106 9.875 -0.125 C10.81214844 -0.14175781 11.74929688 -0.15851563 12.71484375 -0.17578125 C13.61074219 -0.18222656 14.50664062 -0.18867187 15.4296875 -0.1953125 C16.25710449 -0.20578613 17.08452148 -0.21625977 17.93701172 -0.22705078 C20 0 20 0 22 2 C22.265625 4.75 22.265625 4.75 22.25 8 C22.25515625 9.0725 22.2603125 10.145 22.265625 11.25 C22 14 22 14 20 16 C17.93701172 16.22705078 17.93701172 16.22705078 15.4296875 16.1953125 C14.53378906 16.18886719 13.63789063 16.18242188 12.71484375 16.17578125 C11.77769531 16.15902344 10.84054687 16.14226562 9.875 16.125 C8.93011719 16.11597656 7.98523438 16.10695313 7.01171875 16.09765625 C4.67437173 16.07404668 2.33715451 16.03817494 0 16 C0 10.72 0 5.44 0 0 Z " fill="#B55FD5" transform="translate(254,111)"/>
<path d="M0 0 C9.57 0 19.14 0 29 0 C29 2.97 29 5.94 29 9 C27.19720809 10.80279191 24.45952299 10.13036605 22.03125 10.1328125 C20.82082031 10.13410156 19.61039063 10.13539062 18.36328125 10.13671875 C17.08839844 10.13285156 15.81351563 10.12898438 14.5 10.125 C13.22511719 10.12886719 11.95023438 10.13273437 10.63671875 10.13671875 C8.82107422 10.13478516 8.82107422 10.13478516 6.96875 10.1328125 C5.84919922 10.13168457 4.72964844 10.13055664 3.57617188 10.12939453 C1 10 1 10 0 9 C0 6.03 0 3.06 0 0 Z " fill="#3A9DEC" transform="translate(194,113)"/>
<path d="M0 0 C0 9.24 0 18.48 0 28 C-0.33 28 -0.66 28 -1 28 C-1.495 18.1 -1.495 18.1 -2 8 C-7.42580826 12.98824308 -10.43022398 15.86465443 -12 23 C-15 25 -15 25 -17.5625 24.75 C-20 24 -20 24 -22 22 C-22.25 18.5 -22.25 18.5 -22 15 C-20 13 -20 13 -17 12.5 C-11.80300563 11.19801615 -8.67625895 6.99288283 -5.13671875 3.21484375 C-2.03527337 0 -2.03527337 0 0 0 Z " fill="#45CAB7" transform="translate(50,134)"/>
<path d="M0 0 C0.85722656 0.13148438 1.71445313 0.26296875 2.59765625 0.3984375 C-1.92677092 5.9011192 -6.86754039 10.74436694 -12.109375 15.5546875 C-14.82852314 18.92698706 -14.93435671 21.17145774 -15.40234375 25.3984375 C-18.63488171 27.55346281 -19.65385298 27.86699885 -23.40234375 27.3984375 C-25.21484375 26.2734375 -25.21484375 26.2734375 -26.40234375 24.3984375 C-26.78507377 21.33659735 -26.96714199 19.32869342 -25.33984375 16.6484375 C-23.40234375 15.3984375 -23.40234375 15.3984375 -20.19140625 14.734375 C-14.78108597 13.24553994 -11.7947332 8.99288085 -8.20898438 4.921875 C-4.08818853 0.47875457 -4.08818853 0.47875457 0 0 Z " fill="#75E675" transform="translate(68.40234375,173.6015625)"/>
<path d="M0 0 C2.5625 0.1875 2.5625 0.1875 4.5625 2.1875 C4.6875 4.8125 4.6875 4.8125 4.5625 7.1875 C3.5725 7.5175 2.5825 7.8475 1.5625 8.1875 C1.5625 12.8075 1.5625 17.4275 1.5625 22.1875 C-13.9475 22.1875 -29.4575 22.1875 -45.4375 22.1875 C-45.4375 21.8575 -45.4375 21.5275 -45.4375 21.1875 C-37.5175 20.8575 -29.5975 20.5275 -21.4375 20.1875 C-23.149375 18.41375 -24.86125 16.64 -26.625 14.8125 C-27.15375732 14.25643066 -27.68251465 13.70036133 -28.22729492 13.12744141 C-31.09615394 10.20907341 -33.51294011 8.37849989 -37.4375 7.1875 C-37.1075 5.5375 -36.7775 3.8875 -36.4375 2.1875 C-34.125 2.3125 -34.125 2.3125 -31.4375 3.1875 C-30.41790734 5.17758312 -29.42134665 7.17950454 -28.4375 9.1875 C-25.02239257 13.99277199 -21.17427244 19.16967596 -15.26123047 20.78027344 C-10.31325661 21.49646852 -5.42039146 21.43868914 -0.4375 21.1875 C-0.52465017 19.24916004 -0.63282964 17.3117571 -0.75 15.375 C-0.80800781 14.29605469 -0.86601562 13.21710937 -0.92578125 12.10546875 C-1.48480184 8.91777117 -2.10642219 8.25325188 -4.4375 6.1875 C-3.87661439 0.29820111 -3.87661439 0.29820111 0 0 Z " fill="#A5A4CC" transform="translate(163.4375,29.8125)"/>
<path d="M0 0 C0.33 0 0.66 0 1 0 C1.33 5.61 1.66 11.22 2 17 C9.02240239 10.83077252 9.02240239 10.83077252 11 2 C14 0 14 0 17.5625 0.1875 C21 1 21 1 23 4 C22.7909311 6.78758532 22.33997443 8.50703708 20.75 10.8125 C19 12 19 12 16.8125 11.66796875 C12.33429086 12.19664622 10.21506392 15.29506574 7.25 18.5 C5.17911261 20.67964296 3.09625281 22.84453101 1 25 C0.67 25 0.34 25 0 25 C0 16.75 0 8.5 0 0 Z " fill="#4BDFC0" transform="translate(253,64)"/>
<path d="M0 0 C0.33 0 0.66 0 1 0 C1 8.25 1 16.5 1 25 C-1 25 -1 25 -3.1875 22.9375 C-4.72819571 21.35590086 -6.22719617 19.74836855 -7.70703125 18.109375 C-11.03482982 14.19851832 -11.03482982 14.19851832 -15.6875 12.8125 C-16.450625 12.874375 -17.21375 12.93625 -18 13 C-20.375 11.375 -20.375 11.375 -22 9 C-21.85205998 5.3014996 -21.64194427 3.64194427 -19 1 C-15.98478096 0.67923202 -13.89038397 0.45940973 -11.25 2.0625 C-10 4 -10 4 -9.3125 7.25 C-7.45111178 12.56825207 -4.38699617 14.53285787 0 18 C0 12.06 0 6.12 0 0 Z " fill="#54E3C2" transform="translate(49,63)"/>
<path d="M0 0 C4.86261946 0.56107148 8.3687272 4.08502759 11.4375 7.6875 C13.92872314 9.78012744 16.89694819 10.19550509 20 11 C21 12 21 12 21.25 15.375 C21 19 21 19 19.875 21 C17.01126853 22.52732345 15.04699809 21.84278671 12 21 C10 19 10 19 9.3125 15.8125 C8.24062088 11.5864848 5.68594524 9.52242996 2.5546875 6.64453125 C0.58612808 4.56221086 0.08628498 2.84740439 0 0 Z " fill="#3ED0B5" transform="translate(254,137)"/>
<path d="M0 0 C0.89589844 -0.01417969 1.79179687 -0.02835937 2.71484375 -0.04296875 C5.0625 0.1875 5.0625 0.1875 7.0625 2.1875 C7.328125 4.5 7.328125 4.5 7.3125 7.1875 C7.31765625 8.074375 7.3228125 8.96125 7.328125 9.875 C7.0625 12.1875 7.0625 12.1875 5.0625 14.1875 C2.96875 14.453125 2.96875 14.453125 0.5625 14.4375 C-0.2315625 14.44265625 -1.025625 14.4478125 -1.84375 14.453125 C-3.9375 14.1875 -3.9375 14.1875 -5.9375 12.1875 C-6.16796875 9.62109375 -6.16796875 9.62109375 -6.125 6.625 C-6.11855469 5.63371094 -6.11210937 4.64242187 -6.10546875 3.62109375 C-5.80775298 -0.69232317 -3.85746415 0.02767191 0 0 Z " fill="#61D686" transform="translate(166.9375,102.8125)"/>
<path d="M0 0 C0 2.31 0 4.62 0 7 C-0.59780273 7.10884521 -1.19560547 7.21769043 -1.81152344 7.32983398 C-4.26161605 8.08011335 -5.24965291 8.89909811 -7.015625 10.72265625 C-7.80839844 11.52993164 -7.80839844 11.52993164 -8.6171875 12.35351562 C-9.15601562 12.91748047 -9.69484375 13.48144531 -10.25 14.0625 C-10.80429688 14.63033203 -11.35859375 15.19816406 -11.9296875 15.78320312 C-13.29334214 17.18212469 -14.64760417 18.59019114 -16 20 C-19.16115776 18.63016497 -19.9927092 18.0109362 -22 15 C-26.09944046 15.51476992 -27.87099566 17.61967597 -30.625 20.5625 C-32.04700295 22.07662607 -33.49825153 23.56493148 -35 25 C-35.66 25 -36.32 25 -37 25 C-36.75 23.125 -36.75 23.125 -36 21 C-34.67532254 20.3162955 -33.34136367 19.65035814 -32 19 C-31.31513275 17.67592331 -30.65129797 16.34090759 -30 15 C-28.37253306 13.29503463 -26.71108689 11.62102968 -25 10 C-22.72707059 11.01889939 -21.16975439 11.80902631 -19.5 13.6875 C-19.005 14.120625 -18.51 14.55375 -18 15 C-13.34079123 14.54187696 -11.39196793 11.45521518 -8.5390625 8.07421875 C-6.87307537 5.82894169 -5.95153377 3.61671786 -5 1 C-2 0 -2 0 0 0 Z " fill="#D96964" transform="translate(116,101)"/>
<path d="M0 0 C4.45827926 -0.0578304 8.9164628 -0.09353855 13.375 -0.125 C15.28152344 -0.15013672 15.28152344 -0.15013672 17.2265625 -0.17578125 C18.43828125 -0.18222656 19.65 -0.18867187 20.8984375 -0.1953125 C22.01911621 -0.20578613 23.13979492 -0.21625977 24.29443359 -0.22705078 C27 0 27 0 29 2 C29 2.99 29 3.98 29 5 C19.1 5 9.2 5 -1 5 C-0.67 3.35 -0.34 1.7 0 0 Z " fill="#54B6D7" transform="translate(195,104)"/>
<path d="M0 0 C1.65 0 3.3 0 5 0 C5 8.91 5 17.82 5 27 C3.35 27 1.7 27 0 27 C0 18.09 0 9.18 0 0 Z " fill="#62E888" transform="translate(110,113)"/>
<path d="M0 0 C9.57 0 19.14 0 29 0 C29 2.97 29 5.94 29 9 C22.125 8.125 22.125 8.125 21 7 C19.33382885 6.95936168 17.66611905 6.957279 16 7 C16 5.68 16 4.36 16 3 C16.66 2.67 17.32 2.34 18 2 C12.72 2 7.44 2 2 2 C2 3.98 2 5.96 2 8 C1.34 8 0.68 8 0 8 C0 5.36 0 2.72 0 0 Z " fill="#41ACE9" transform="translate(194,113)"/>
<path d="M0 0 C10.56 0 21.12 0 32 0 C32 0.33 32 0.66 32 1 C23.75 1 15.5 1 7 1 C7 4.3 7 7.6 7 11 C7.99 11.33 8.98 11.66 10 12 C10.125 14.375 10.125 14.375 10 17 C8 19 8 19 5.5 19.25 C3 19 3 19 1 17 C0.875 14.375 0.875 14.375 1 12 C1.99 11.67 2.98 11.34 4 11 C4 7.7 4 4.4 4 1 C2.68 0.67 1.36 0.34 0 0 Z " fill="#8DD996" transform="translate(103,174)"/>
<path d="M0 0 C12.87 0 25.74 0 39 0 C39.495 1.485 39.495 1.485 40 3 C26.8 3 13.6 3 0 3 C0 2.01 0 1.02 0 0 Z " fill="#B9BDC0" transform="translate(134,132)"/>
<path d="M0 0 C6.93 0 13.86 0 21 0 C21 0.33 21 0.66 21 1 C13.08 1.495 13.08 1.495 5 2 C8.52895235 6.36482711 8.52895235 6.36482711 12.93359375 6.42578125 C14.43527213 6.40858141 15.93683078 6.37016876 17.4375 6.3125 C18.18837891 6.30283203 18.93925781 6.29316406 19.71289062 6.28320312 C23.58525395 6.20487036 27.22035321 5.92424762 31 5 C31.33 6.65 31.66 8.3 32 10 C30.34385343 10.38218767 28.67542976 10.71395102 27 11 C26.67 10.67 26.34 10.34 26 10 C23.97189366 9.98100629 21.94372191 9.96459035 19.91552734 9.96289062 C7.62574534 9.83696577 7.62574534 9.83696577 2.875 5 C0 1.42222222 0 1.42222222 0 0 Z " fill="#81E588" transform="translate(220,174)"/>
<path d="M0 0 C0 9.24 0 18.48 0 28 C-0.33 28 -0.66 28 -1 28 C-1.33 21.4 -1.66 14.8 -2 8 C-4.64 10.64 -7.28 13.28 -10 16 C-10.99 15.01 -11.98 14.02 -13 13 C-10.72536609 9.11416707 -4.98140074 0 0 0 Z " fill="#65C8BA" transform="translate(50,134)"/>
<path d="M0 0 C6.6 0 13.2 0 20 0 C20 3.96 20 7.92 20 12 C18.64003906 12.06058594 17.28007813 12.12117187 15.87890625 12.18359375 C14.10675903 12.26798171 12.33462423 12.35263058 10.5625 12.4375 C9.66466797 12.47681641 8.76683594 12.51613281 7.84179688 12.55664062 C6.56079102 12.61948242 6.56079102 12.61948242 5.25390625 12.68359375 C4.06776733 12.73858032 4.06776733 12.73858032 2.85766602 12.79467773 C0.98598559 12.80563257 0.98598559 12.80563257 0 14 C-1.66617115 14.04063832 -3.33388095 14.042721 -5 14 C-5 12.35 -5 10.7 -5 9 C-3.35 8.67 -1.7 8.34 0 8 C0 8.66 0 9.32 0 10 C6.27 10 12.54 10 19 10 C19 7.03 19 4.06 19 1 C12.73 1 6.46 1 0 1 C0 0.67 0 0.34 0 0 Z " fill="#C287DE" transform="translate(30,118)"/>
<path d="M0 0 C1.65 0 3.3 0 5 0 C5 6.27 5 12.54 5 19 C3.35 19 1.7 19 0 19 C0 12.73 0 6.46 0 0 Z " fill="#5DE585" transform="translate(90,121)"/>
<path d="M0 0 C0.33 0 0.66 0 1 0 C1 4.62 1 9.24 1 14 C0.67 14 0.34 14 0 14 C0 11.36 0 8.72 0 6 C-2.39614575 6.14165893 -4.79182897 6.28818841 -7.1875 6.4375 C-7.86103516 6.47681641 -8.53457031 6.51613281 -9.22851562 6.55664062 C-12.18335623 6.74402076 -15.02237553 7.0045707 -17.92578125 7.59765625 C-18.61027344 7.73042969 -19.29476563 7.86320312 -20 8 C-21 7 -21 7 -21.0625 4.4375 C-21.041875 3.633125 -21.02125 2.82875 -21 2 C-19.0625 1.4375 -19.0625 1.4375 -17 1 C-16.67 1.33 -16.34 1.66 -16 2 C-13.30764224 2.23678716 -10.63501844 2.42198025 -7.9375 2.5625 C-6.79958008 2.62727539 -6.79958008 2.62727539 -5.63867188 2.69335938 C-3.75934562 2.79973633 -1.87969756 2.90039934 0 3 C0 2.01 0 1.02 0 0 Z " fill="#BCA5E0" transform="translate(49,88)"/>
<path d="M0 0 C2.5625 0.1875 2.5625 0.1875 4.5625 2.1875 C4.6875 4.8125 4.6875 4.8125 4.5625 7.1875 C3.5725 7.5175 2.5825 7.8475 1.5625 8.1875 C1.5625 12.8075 1.5625 17.4275 1.5625 22.1875 C0.9025 22.1875 0.2425 22.1875 -0.4375 22.1875 C-0.47488281 21.28386719 -0.51226562 20.38023438 -0.55078125 19.44921875 C-0.61652344 18.26972656 -0.68226563 17.09023438 -0.75 15.875 C-0.80800781 14.70324219 -0.86601562 13.53148437 -0.92578125 12.32421875 C-1.47291477 8.97041556 -1.97692515 8.31466362 -4.4375 6.1875 C-3.87661439 0.29820111 -3.87661439 0.29820111 0 0 Z " fill="#7AE886" transform="translate(163.4375,29.8125)"/>
<path d="M0 0 C0.66386719 0.14308594 1.32773437 0.28617188 2.01171875 0.43359375 C4.54258704 0.91330081 6.59478246 1.05402634 9.14453125 1.03515625 C21.47152766 1.0469763 21.47152766 1.0469763 25.95703125 3.84375 C27.87277736 5.80436944 29.50538112 7.70581228 31 10 C30.01 10.33 29.02 10.66 28 11 C27.18660156 10.01902344 26.37320313 9.03804687 25.53515625 8.02734375 C23.02196364 5.51857707 21.43080899 4.56332622 17.87109375 4.37890625 C16.39227164 4.40913995 14.91379562 4.47095678 13.4375 4.5625 C12.69564453 4.58119141 11.95378906 4.59988281 11.18945312 4.61914062 C7.36418157 4.74517361 3.73426308 5.10525578 0 6 C-0.38218767 4.34385343 -0.71395102 2.67542976 -1 1 C-0.67 0.67 -0.34 0.34 0 0 Z " fill="#49DEC3" transform="translate(55,40)"/>
<path d="M0 0 C2.475 0.495 2.475 0.495 5 1 C5.625 2.875 5.625 2.875 6 5 C4 7 4 7 1.76953125 7.7421875 C-2.05126622 9.4774439 -4.4422532 12.11873907 -7.3125 15.125 C-7.86228516 15.68832031 -8.41207031 16.25164063 -8.97851562 16.83203125 C-10.32595438 18.21462058 -11.66394273 19.60640916 -13 21 C-13.99 20.34 -14.98 19.68 -16 19 C-15.49210938 18.56429687 -14.98421875 18.12859375 -14.4609375 17.6796875 C-12.29196364 15.80315956 -10.14212598 13.90710856 -8 12 C-7.40703125 11.47535156 -6.8140625 10.95070313 -6.203125 10.41015625 C-2.77525453 7.21137613 -1.0865837 4.56365155 0 0 Z " fill="#79EB90" transform="translate(263,35)"/>
<path d="M0 0 C1.65 0 3.3 0 5 0 C5 5.28 5 10.56 5 16 C3.35 16 1.7 16 0 16 C0 10.72 0 5.44 0 0 Z " fill="#5AE485" transform="translate(100,124)"/>
<path d="M0 0 C0.66 1.32 1.32 2.64 2 4 C1.58637207 4.39268066 1.17274414 4.78536133 0.74658203 5.18994141 C-1.1379345 6.99084277 -3.00640021 8.80759473 -4.875 10.625 C-5.52597656 11.24246094 -6.17695312 11.85992187 -6.84765625 12.49609375 C-10.52651479 16.09909954 -12.86522713 18.80561714 -14 24 C-15.65 23.67 -17.3 23.34 -19 23 C-18.8125 20.625 -18.8125 20.625 -18 18 C-17.25363281 17.71769531 -16.50726563 17.43539062 -15.73828125 17.14453125 C-12.32582882 15.71821376 -10.76700606 13.86139369 -8.375 11.0625 C-4.03303167 6.03144796 -4.03303167 6.03144796 -2.2890625 4.37109375 C-0.73817118 2.91356814 -0.73817118 2.91356814 0 0 Z " fill="#78E77E" transform="translate(50,164)"/>
<path d="M0 0 C0.33 0 0.66 0 1 0 C1.33 5.61 1.66 11.22 2 17 C3.98 15.35 5.96 13.7 8 12 C8.7421875 14.23046875 8.7421875 14.23046875 9 17 C7.3828125 19.23828125 7.3828125 19.23828125 5.125 21.3125 C4.38507813 22.00988281 3.64515625 22.70726563 2.8828125 23.42578125 C1 25 1 25 0 25 C0 16.75 0 8.5 0 0 Z " fill="#5CC7B5" transform="translate(253,64)"/>
<path d="M0 0 C5.42383389 0.62582699 9.03863791 4.86154489 12.375 8.8125 C12.91125 9.534375 13.4475 10.25625 14 11 C12.35 11.66 10.7 12.32 9 13 C7.67532989 11.78395887 6.36567595 10.55154778 5.0625 9.3125 C4.33160156 8.62800781 3.60070312 7.94351563 2.84765625 7.23828125 C0.80570157 4.76462368 0.34750001 3.14956359 0 0 Z " fill="#52D0BA" transform="translate(254,137)"/>
<path d="M0 0 C0.75390625 1.703125 0.75390625 1.703125 1 4 C-0.66015625 6.359375 -0.66015625 6.359375 -3.0625 8.75 C-4.22458984 9.94882812 -4.22458984 9.94882812 -5.41015625 11.171875 C-8.524835 13.37047176 -10.26833953 13.3682916 -14 13 C-3.15384615 0 -3.15384615 0 0 0 Z " fill="#8F86F5" transform="translate(238,38)"/>
<path d="M0 0 C1.67542976 0.28604898 3.34385343 0.61781233 5 1 C4.67 2.65 4.34 4.3 4 6 C3.01580078 5.76603516 3.01580078 5.76603516 2.01171875 5.52734375 C-2.42313844 4.75081234 -6.88916367 4.64641077 -11.38085938 4.48242188 C-16.78396374 4.21603626 -16.78396374 4.21603626 -19 2 C-17.71222656 1.93941406 -16.42445313 1.87882813 -15.09765625 1.81640625 C-13.41925841 1.73201753 -11.74087364 1.6473687 -10.0625 1.5625 C-8.78729492 1.50352539 -8.78729492 1.50352539 -7.48632812 1.44335938 C-6.67744141 1.40146484 -5.86855469 1.35957031 -5.03515625 1.31640625 C-3.91185913 1.26141968 -3.91185913 1.26141968 -2.76586914 1.20532227 C-0.97538674 1.18228937 -0.97538674 1.18228937 0 0 Z " fill="#B865D4" transform="translate(273,133)"/>
<path d="M0 0 C0.33 0 0.66 0 1 0 C1.05395478 1.62463842 1.09277195 3.24978541 1.125 4.875 C1.14820313 5.77992187 1.17140625 6.68484375 1.1953125 7.6171875 C1 10 1 10 -1 12 C-3.09375 12.30078125 -3.09375 12.30078125 -5.5 12.3125 C-6.2940625 12.32925781 -7.088125 12.34601563 -7.90625 12.36328125 C-8.5971875 12.24339844 -9.288125 12.12351562 -10 12 C-10.66 11.01 -11.32 10.02 -12 9 C-10.6696875 8.938125 -10.6696875 8.938125 -9.3125 8.875 C-4.74534142 7.66858075 -3.71415001 5.79981002 -1 2 C-0.67 1.34 -0.34 0.68 0 0 Z " fill="#3AC871" transform="translate(173,105)"/>
<path d="M0 0 C1.21816406 0.03480469 1.21816406 0.03480469 2.4609375 0.0703125 C3.68683594 0.09738281 3.68683594 0.09738281 4.9375 0.125 C5.87722656 0.15980469 5.87722656 0.15980469 6.8359375 0.1953125 C6.8359375 2.1753125 6.8359375 4.1553125 6.8359375 6.1953125 C3.2059375 6.1953125 -0.4240625 6.1953125 -4.1640625 6.1953125 C-4.1640625 0.37581792 -4.1640625 0.37581792 0 0 Z " fill="#9AD2F4" transform="translate(214.1640625,113.8046875)"/>
<path d="M0 0 C0 2.31 0 4.62 0 7 C-0.87398437 7.15275391 -0.87398437 7.15275391 -1.765625 7.30859375 C-4.37219275 8.11517153 -5.73535414 9.24157009 -7.75 11.0625 C-8.36359375 11.61035156 -8.9771875 12.15820312 -9.609375 12.72265625 C-10.06828125 13.14417969 -10.5271875 13.56570312 -11 14 C-11.66 13.34 -12.32 12.68 -13 12 C-12.50628906 11.54109375 -12.01257813 11.0821875 -11.50390625 10.609375 C-10.54291016 9.68898438 -10.54291016 9.68898438 -9.5625 8.75 C-8.92441406 8.14671875 -8.28632812 7.5434375 -7.62890625 6.921875 C-5.85941214 5.12329403 -5.85941214 5.12329403 -5.46484375 2.828125 C-5.31144531 2.22484375 -5.15804687 1.6215625 -5 1 C-2 0 -2 0 0 0 Z " fill="#E07D72" transform="translate(116,101)"/>
<path d="M0 0 C2.3125 0.125 2.3125 0.125 5 1 C6.5625 3.75 6.5625 3.75 8 7 C9.29241051 8.69859667 10.61490475 10.37609523 12 12 C11.01 12 10.02 12 9 12 C7.33333333 10.33333333 5.66666667 8.66666667 4 7 C1.33466965 5.680982 1.33466965 5.680982 -1 5 C-0.67 3.35 -0.34 1.7 0 0 Z " fill="#9A87F2" transform="translate(127,32)"/>
<path d="M0 0 C1.65 0 3.3 0 5 0 C5 3.63 5 7.26 5 11 C3.35 11 1.7 11 0 11 C0 7.37 0 3.74 0 0 Z " fill="#54E380" transform="translate(80,129)"/>
<path d="M0 0 C0.69649658 0.01571045 1.39299316 0.0314209 2.1105957 0.04760742 C2.86791992 0.05727539 3.62524414 0.06694336 4.40551758 0.0769043 C5.19120117 0.10204102 5.97688477 0.12717773 6.78637695 0.15307617 C7.98230469 0.17337891 7.98230469 0.17337891 9.20239258 0.1940918 C11.16817663 0.22940528 13.13361278 0.2832117 15.09887695 0.34057617 C15.09887695 1.33057617 15.09887695 2.32057617 15.09887695 3.34057617 C8.49887695 3.34057617 1.89887695 3.34057617 -4.90112305 3.34057617 C-1.90112305 0.34057617 -1.90112305 0.34057617 0 0 Z " fill="#52CDF2" transform="translate(207.901123046875,104.659423828125)"/>
<path d="M0 0 C2.97 0 5.94 0 9 0 C8.64947365 3.15473719 8.13480924 4.8233534 6.1875 7.375 C4 9 4 9 1.8125 8.875 C0 8 0 8 -1 6 C-0.01 5.67 0.98 5.34 2 5 C2 3.68 2 2.36 2 1 C1.34 0.67 0.68 0.34 0 0 Z " fill="#75EF97" transform="translate(164,104)"/>
<path d="M0 0 C0.33 0 0.66 0 1 0 C1 8.25 1 16.5 1 25 C-1 25 -1 25 -3.625 22.5 C-4.40875 21.675 -5.1925 20.85 -6 20 C-5.34 18.68 -4.68 17.36 -4 16 C-2.68 16.66 -1.36 17.32 0 18 C0 12.06 0 6.12 0 0 Z " fill="#7BD0C0" transform="translate(49,63)"/>
<path d="M0 0 C-0.9080162 1.13199353 -1.82683826 2.25532363 -2.75 3.375 C-3.26046875 4.00148437 -3.7709375 4.62796875 -4.296875 5.2734375 C-6.10874459 7.11024107 -7.58464087 8.10651349 -10 9 C-10.66 8.67 -11.32 8.34 -12 8 C-9.40790268 1.95177293 -6.74363595 -0.61305781 0 0 Z " fill="#63DA79" transform="translate(71,174)"/>
<path d="M0 0 C6.93 0 13.86 0 21 0 C21 0.33 21 0.66 21 1 C13.08 1.495 13.08 1.495 5 2 C6.65 3.98 8.3 5.96 10 8 C6 7 6 7 0 0 Z " fill="#8DCE96" transform="translate(220,174)"/>
<path d="M0 0 C2.31 0 4.62 0 7 0 C7 1.98 7 3.96 7 6 C4.69 6 2.38 6 0 6 C0 4.02 0 2.04 0 0 Z " fill="#D1D4D7" transform="translate(205,128)"/>
<path d="M0 0 C15.94977578 -1.22690583 15.94977578 -1.22690583 20.9765625 1.78125 C22.89394621 3.76138445 24.51836895 5.6791234 26 8 C25.01 8.33 24.02 8.66 23 9 C21.99403703 8.0479279 20.99538437 7.08812654 20 6.125 C19.443125 5.59132813 18.88625 5.05765625 18.3125 4.5078125 C17 3 17 3 17 1 C11.39 1 5.78 1 0 1 C0 0.67 0 0.34 0 0 Z " fill="#5FE1CB" transform="translate(60,42)"/>
<path d="M0 0 C0.66 1.32 1.32 2.64 2 4 C-1.3 7.3 -4.6 10.6 -8 14 C-8.99 13.67 -9.98 13.34 -11 13 C-10.28972656 12.31292969 -9.57945313 11.62585938 -8.84765625 10.91796875 C-7.92855469 10.01691406 -7.00945313 9.11585938 -6.0625 8.1875 C-4.68771484 6.84751953 -4.68771484 6.84751953 -3.28515625 5.48046875 C-0.82064892 3.14563407 -0.82064892 3.14563407 0 0 Z " fill="#87EA90" transform="translate(50,164)"/>
<path d="M0 0 C1.98 0 3.96 0 6 0 C6 1.98 6 3.96 6 6 C4.02 6 2.04 6 0 6 C0 4.02 0 2.04 0 0 Z " fill="#E0E3E5" transform="translate(216,128)"/>
<path d="M0 0 C1.98 0 3.96 0 6 0 C6 1.98 6 3.96 6 6 C4.02 6 2.04 6 0 6 C0 4.02 0 2.04 0 0 Z " fill="#DEDFE3" transform="translate(195,128)"/>
<path d="M0 0 C2.125 0.9375 2.125 0.9375 4 2 C4 3.32 4 4.64 4 6 C2.34385343 6.38218767 0.67542976 6.71395102 -1 7 C-2 6 -2 6 -2.0625 3.4375 C-2.041875 2.633125 -2.02125 1.82875 -2 1 C-1.34 0.67 -0.68 0.34 0 0 Z " fill="#AC6FE2" transform="translate(30,89)"/>
<path d="M0 0 C2.97 0 5.94 0 9 0 C8.67 1.32 8.34 2.64 8 4 C5.36 4 2.72 4 0 4 C0 2.68 0 1.36 0 0 Z " fill="#34669E" transform="translate(196,116)"/>
<path d="M0 0 C1.32 0 2.64 0 4 0 C5.125 3.75 5.125 3.75 4 6 C2.35 5.67 0.7 5.34 -1 5 C-0.67 3.35 -0.34 1.7 0 0 Z " fill="#E26261" transform="translate(228,69)"/>
<path d="M0 0 C0.67578125 1.796875 0.67578125 1.796875 1 4 C-0.14453125 5.703125 -0.14453125 5.703125 -1.8125 7.25 C-2.62654297 8.03117187 -2.62654297 8.03117187 -3.45703125 8.828125 C-5 10 -5 10 -7 10 C-6.75 8.125 -6.75 8.125 -6 6 C-4.67532254 5.3162955 -3.34136367 4.65035814 -2 4 C-0.73195434 1.9664052 -0.73195434 1.9664052 0 0 Z " fill="#CF5B5C" transform="translate(86,116)"/>
<path d="M0 0 C0.33 0 0.66 0 1 0 C1 3.3 1 6.6 1 10 C0.01 9.67 -0.98 9.34 -2 9 C-2 8.34 -2 7.68 -2 7 C-2.66 6.67 -3.32 6.34 -4 6 C-2.69593116 3.98079663 -1.36176581 1.98075027 0 0 Z " fill="#51DB81" transform="translate(173,105)"/>
<path d="M0 0 C0.33 0.99 0.66 1.98 1 3 C-0.65 4.32 -2.3 5.64 -4 7 C-4 6.01 -4 5.02 -4 4 C-4.66 3.67 -5.32 3.34 -6 3 C-3.375 0 -3.375 0 0 0 Z " fill="#71E482" transform="translate(61,181)"/>
<path d="M0 0 C-0.99 1.485 -0.99 1.485 -2 3 C-5.625 3.1875 -5.625 3.1875 -9 3 C-9.33 2.34 -9.66 1.68 -10 1 C-6.78548731 -0.60725635 -3.56387464 -0.05748185 0 0 Z " fill="#378FE6" transform="translate(204,120)"/>
<path d="M0 0 C0.66 0 1.32 0 2 0 C2 2.64 2 5.28 2 8 C-0.31 7.67 -2.62 7.34 -5 7 C-5 6.67 -5 6.34 -5 6 C-3.35 6 -1.7 6 0 6 C0 4.02 0 2.04 0 0 Z " fill="#42A8F6" transform="translate(221,114)"/>
<path d="M0 0 C0.66 0.33 1.32 0.66 2 1 C2 1.99 2 2.98 2 4 C-0.5 6.1875 -0.5 6.1875 -3 8 C-3.66 7.67 -4.32 7.34 -5 7 C-3.47793991 4.37098712 -2.15634036 2.15634036 0 0 Z " fill="#CE716B" transform="translate(91,111)"/>
<path d="M0 0 C0.33 0.99 0.66 1.98 1 3 C-0.25 4.5625 -0.25 4.5625 -2 6 C-4.125 5.8125 -4.125 5.8125 -6 5 C-6.33 4.34 -6.66 3.68 -7 3 C-6.21625 2.87625 -5.4325 2.7525 -4.625 2.625 C-1.85942178 2.20882007 -1.85942178 2.20882007 0 0 Z " fill="#DCF8E5" transform="translate(170,107)"/>
<path d="M0 0 C1.32 0.33 2.64 0.66 4 1 C4 2.32 4 3.64 4 5 C3.01 5 2.02 5 1 5 C0.67 3.35 0.34 1.7 0 0 Z " fill="#38C7AF" transform="translate(254,137)"/>
<path d="M0 0 C-1.28519565 2.86697492 -2.57129254 4.97607712 -5 7 C-5.66 7 -6.32 7 -7 7 C-3.86206897 0 -3.86206897 0 0 0 Z " fill="#E2605E" transform="translate(105,114)"/>
<path d="M0 0 C0.99 0.33 1.98 0.66 3 1 C1.35 2.65 -0.3 4.3 -2 6 C-2.66 5.34 -3.32 4.68 -4 4 C-2.68 2.68 -1.36 1.36 0 0 Z " fill="#D46F6B" transform="translate(107,109)"/>
<path d="M0 0 C0.66 1.32 1.32 2.64 2 4 C-0.97 6.475 -0.97 6.475 -4 9 C-3.35455571 5.51460083 -1.89865603 2.97180943 0 0 Z " fill="#7EDD8D" transform="translate(50,164)"/>
<path d="M0 0 C1.98 0.495 1.98 0.495 4 1 C3.34 2.32 2.68 3.64 2 5 C1.01 4.34 0.02 3.68 -1 3 C-0.67 2.01 -0.34 1.02 0 0 Z " fill="#4DDEBD" transform="translate(41,77)"/>
<path d="M0 0 C2.475 0.495 2.475 0.495 5 1 C4.67 1.99 4.34 2.98 4 4 C2.68 3.67 1.36 3.34 0 3 C0 2.01 0 1.02 0 0 Z " fill="#EC9265" transform="translate(71,70)"/>
<path d="M0 0 C1.98 1.65 3.96 3.3 6 5 C5.34 5.66 4.68 6.32 4 7 C2.35 5.02 0.7 3.04 -1 1 C-0.67 0.67 -0.34 0.34 0 0 Z " fill="#9F96F1" transform="translate(133,38)"/>
</svg>
