<?xml version="1.0" encoding="UTF-8"?>
<svg version="1.1" xmlns="http://www.w3.org/2000/svg" width="300" height="248">
<path d="M0 0 C99 0 198 0 300 0 C300 81.84 300 163.68 300 248 C201 248 102 248 0 248 C0 166.16 0 84.32 0 0 Z " fill="#626570" transform="translate(0,0)"/>
<path d="M0 0 C99 0 198 0 300 0 C300 81.84 300 163.68 300 248 C201 248 102 248 0 248 C0 166.16 0 84.32 0 0 Z M32.45330906 42.65219879 C30.59470886 45.65474238 30.50840472 47.53990384 30.52330017 51.06602478 C30.51898987 52.30959244 30.51467957 53.5531601 30.51023865 54.83441162 C30.52586391 56.20984361 30.5419152 57.5852708 30.55834961 58.96069336 C30.56115543 60.41127806 30.56226256 61.86186689 30.5617981 63.31245422 C30.56603015 67.25069616 30.5958987 71.18835676 30.63169551 75.1264236 C30.65925357 78.41421378 30.67429703 81.70201209 30.6893273 84.98987967 C30.72496758 92.74661842 30.78127947 100.50301796 30.85083008 108.25952148 C30.92225589 116.2608933 30.96097194 124.26194321 30.98320192 132.26359075 C31.00332867 139.13434449 31.04274197 146.00479919 31.09784323 152.8753615 C31.13061855 156.97849357 31.15631199 161.08135127 31.16389275 165.18461418 C31.17194782 169.04357383 31.20414746 172.90159433 31.25488663 176.76022148 C31.26951085 178.17549953 31.27569128 179.59089408 31.27276421 181.00624466 C31.27012718 182.93993237 31.3011659 184.87357826 31.33384705 186.80699158 C31.3418077 187.88859023 31.34976835 188.97018888 31.35797024 190.08456326 C32.25925485 194.17726804 33.58740602 195.58165547 37 198 C40.08507998 198.70058161 43.07733198 198.65831794 46.2301178 198.60800171 C47.1626176 198.6129794 48.0951174 198.61795709 49.05587476 198.62308562 C52.18233297 198.63366782 55.30747671 198.60849653 58.43383789 198.58349609 C60.67436341 198.58372277 62.91488963 198.58613637 65.15541077 198.59057617 C71.24215568 198.59628891 77.32842275 198.57096861 83.41507649 198.53990126 C89.77934056 198.51238254 96.14360502 198.5123625 102.50791931 198.50918579 C113.19523276 198.49997856 123.88235179 198.47259984 134.56958008 198.43212891 C145.56665395 198.39052072 156.56364392 198.36219347 167.56079102 198.35009766 C168.23825078 198.34934944 168.91571054 198.34860123 169.61369938 198.34783034 C172.336766 198.34485603 175.05983266 198.34191874 177.78289938 198.33904406 C188.89522711 198.32699336 200.00753877 198.30515422 211.11984706 198.2814641 C213.65298057 198.27609978 216.18611458 198.27096345 218.71924901 198.26605177 C225.93936509 198.25175756 233.15942969 198.23234207 240.37950706 198.20457458 C242.56929117 198.19684608 244.75908189 198.19078729 246.94887543 198.18649673 C249.93157788 198.18028913 252.91419146 198.16794062 255.89686584 198.15390015 C257.20497722 198.15315351 257.20497722 198.15315351 258.53951508 198.15239179 C259.33860997 198.14731725 260.13770486 198.14224271 260.96101475 198.13701439 C261.64939539 198.13468375 262.33777602 198.1323531 263.04701668 198.12995183 C265.16420676 197.98907365 266.9896975 197.68463018 269 197 C270.36490474 194.27019051 270.13537772 192.10423231 270.14717102 189.0471344 C270.15432632 187.77818329 270.16148163 186.50923218 270.16885376 185.201828 C270.17169412 183.78762842 270.17440584 182.37342857 270.17700195 180.95922852 C270.18326544 179.47613363 270.18991213 177.99304031 270.19691467 176.50994873 C270.21433165 172.47487592 270.22487769 168.43981496 270.2331202 164.40471387 C270.23826744 161.88566649 270.2443432 159.36662282 270.25063133 156.84757805 C270.26968283 148.97149221 270.28391571 141.09541576 270.2922433 133.2193113 C270.30202552 124.11706024 270.32837069 115.01505174 270.36874419 105.9128862 C270.3988577 98.88355567 270.41370751 91.85429486 270.41702431 84.82490104 C270.4193797 80.62337266 270.42840339 76.4221034 270.45348549 72.220644 C270.47668911 68.27008714 270.48103094 64.31996147 270.47072411 60.36935425 C270.47022679 58.91768399 270.47660467 57.46599306 270.49028015 56.01438713 C270.50787651 54.03628592 270.49854781 52.05799923 270.48774719 50.07984924 C270.49132972 48.41760488 270.49132972 48.41760488 270.49498463 46.72177982 C270.21405951 43.97635578 270.21405951 43.97635578 268.54600048 42.14423943 C264.65904439 40.39733936 260.99207141 40.58367174 256.77624512 40.61231995 C255.83234909 40.60693441 254.88845305 40.60154887 253.91595411 40.59600013 C250.74527004 40.58166422 247.57500013 40.58883821 244.40429688 40.59594727 C242.13436038 40.59024669 239.86442676 40.58328366 237.59449768 40.57514954 C231.42313403 40.55716959 225.25191217 40.55839549 219.08053017 40.56409192 C213.9335812 40.56717644 208.78665977 40.56109962 203.63971472 40.55505317 C190.80668352 40.54018963 177.97375215 40.54383489 165.14072484 40.55591648 C153.9920927 40.56585162 142.84362645 40.55290427 131.6950199 40.52898229 C120.25008314 40.50460926 108.80525299 40.49537892 97.36028528 40.50163502 C90.93377724 40.50501247 84.50740632 40.50253707 78.08091736 40.48538399 C72.03983157 40.469964 65.99906365 40.47381547 59.95799065 40.49268913 C57.73756409 40.49638857 55.51711423 40.4932274 53.29670906 40.48280334 C50.2720199 40.46968467 47.24839727 40.48106001 44.22375488 40.49879456 C42.89711107 40.48438705 42.89711107 40.48438705 41.54366636 40.46968848 C37.79843649 40.51505815 35.64396881 40.58221688 32.45330906 42.65219879 Z " fill="#FBFBFB" transform="translate(0,0)"/>
<path d="M0 0 C0.81016178 -0.00981429 1.62032355 -0.01962858 2.45503569 -0.02974027 C3.7816795 -0.01533276 3.7816795 -0.01533276 5.13512421 -0.00063419 C6.55096825 -0.00893579 6.55096825 -0.00893579 7.99541521 -0.01740509 C11.16623343 -0.03104572 14.33626917 -0.01602359 17.50707245 -0.00113773 C19.77700892 -0.00491966 22.0469431 -0.01041865 24.31687164 -0.01751041 C30.48829185 -0.03149868 36.65943431 -0.02027143 42.83083916 -0.0037992 C49.28187924 0.01002689 55.73290279 0.00359401 62.18395233 0.00006771 C73.01843653 -0.00263634 83.85279301 0.01077062 94.68724823 0.03401852 C105.83670408 0.05793966 116.98601352 0.06502295 128.13549042 0.05452633 C141.56822117 0.04190283 155.00083711 0.04440514 168.43357086 0.06018543 C173.56588065 0.06595189 178.69814144 0.06585736 183.83045197 0.06112003 C189.87150819 0.05635628 195.91236114 0.06642716 201.95337868 0.08807468 C204.1737989 0.0936509 206.39423862 0.09410024 208.61466026 0.08912182 C211.63920577 0.08318971 214.66312542 0.09563453 217.68761444 0.1128912 C218.57204365 0.10688115 219.45647286 0.10087111 220.36770296 0.09467894 C221.17786474 0.10311888 221.98802651 0.11155882 222.82273865 0.12025452 C223.86979264 0.12179821 223.86979264 0.12179821 224.93799925 0.12337309 C226.91136932 0.50057125 226.91136932 0.50057125 230.91136932 3.50057125 C230.91136932 8.78057125 230.91136932 14.06057125 230.91136932 19.50057125 C152.04136932 19.50057125 73.17136932 19.50057125 -8.08863068 19.50057125 C-8.08863068 0.00124378 -8.08863068 0.00124378 0 0 Z " fill="#3E3D58" transform="translate(39.08863067626953,40.49942874908447)"/>
<path d="M0 0 C3.82468048 1.98316766 7.09067421 4.07527477 9 8 C9.73204493 12.72666048 9.50111349 16.05146375 7.25 20.3125 C5 23 5 23 2.75 24.8125 C0.0206776 28.224153 0.67621281 31.79076648 1 36 C-0.32 35.67 -1.64 35.34 -3 35 C-3 32.36 -3 29.72 -3 27 C-3.59167969 26.92523438 -4.18335938 26.85046875 -4.79296875 26.7734375 C-9.11892833 26.05362041 -12.12752313 25.47408707 -15 22 C-17.93150405 17.60274392 -18.445681 15.34817205 -18 10 C-13.81593031 2.09675725 -8.9290523 -1.57478876 0 0 Z " fill="#2BBA61" transform="translate(248,72)"/>
<path d="M0 0 C3.87387722 0.04195535 7.55665644 0.48860941 11.375 1.125 C11.705 2.445 12.035 3.765 12.375 5.125 C10.395 4.465 8.415 3.805 6.375 3.125 C6.705 5.435 7.035 7.745 7.375 10.125 C8.365 10.455 9.355 10.785 10.375 11.125 C10.375 10.135 10.375 9.145 10.375 8.125 C11.365 8.125 12.355 8.125 13.375 8.125 C12.875 10.0625 12.875 10.0625 11.375 12.125 C3.67645568 13.97265064 -4.74371273 13.21108202 -12.625 13.125 C-12.625 9.165 -12.625 5.205 -12.625 1.125 C-11.965 1.125 -11.305 1.125 -10.625 1.125 C-10.625 4.425 -10.625 7.725 -10.625 11.125 C-8.645 11.125 -6.665 11.125 -4.625 11.125 C-4.63660156 10.41472656 -4.64820312 9.70445313 -4.66015625 8.97265625 C-4.67369141 7.59400391 -4.67369141 7.59400391 -4.6875 6.1875 C-4.69910156 5.27097656 -4.71070312 4.35445313 -4.72265625 3.41015625 C-4.56043507 -0.38581946 -3.95973144 0.13654246 0 0 Z " fill="#7F7F89" transform="translate(94.625,76.875)"/>
<path d="M0 0 C2.45862401 -0.05383848 4.9160755 -0.09359038 7.375 -0.125 C8.42300781 -0.15013672 8.42300781 -0.15013672 9.4921875 -0.17578125 C11.32897486 -0.19344267 13.16601963 -0.10303261 15 0 C15.66 0.66 16.32 1.32 17 2 C16.69496569 4.00451121 16.35919321 6.00448218 16 8 C16.3577614 10.27650745 16.3577614 10.27650745 17 12 C16.34 12 15.68 12 15 12 C14.67 10.68 14.34 9.36 14 8 C13.01 8 12.02 8 11 8 C11 9.32 11 10.64 11 12 C7.37 12 3.74 12 0 12 C0 8.04 0 4.08 0 0 Z " fill="#76787F" transform="translate(88,153)"/>
<path d="M0 0 C1.10589478 0.00616333 1.10589478 0.00616333 2.23413086 0.01245117 C3.0352832 0.01438477 3.83643555 0.01631836 4.66186523 0.01831055 C5.49911133 0.03055664 6.33635742 0.04280273 7.19897461 0.05541992 C8.46064453 0.05638672 8.46064453 0.05638672 9.74780273 0.05737305 C15.99624277 0.10268808 15.99624277 0.10268808 17.13647461 1.24291992 C17.27762622 3.91350843 17.17894568 6.5672423 17.13647461 9.24291992 C16.47647461 9.24291992 15.81647461 9.24291992 15.13647461 9.24291992 C15.13647461 6.93291992 15.13647461 4.62291992 15.13647461 2.24291992 C14.14647461 2.24291992 13.15647461 2.24291992 12.13647461 2.24291992 C12.13647461 4.55291992 12.13647461 6.86291992 12.13647461 9.24291992 C11.47647461 9.24291992 10.81647461 9.24291992 10.13647461 9.24291992 C10.13647461 6.93291992 10.13647461 4.62291992 10.13647461 2.24291992 C9.14647461 2.24291992 8.15647461 2.24291992 7.13647461 2.24291992 C7.13647461 4.55291992 7.13647461 6.86291992 7.13647461 9.24291992 C3.83647461 9.24291992 0.53647461 9.24291992 -2.86352539 9.24291992 C-3.48852539 5.86791992 -3.48852539 5.86791992 -3.86352539 2.24291992 C-1.86352539 0.24291992 -1.86352539 0.24291992 0 0 Z " fill="#787980" transform="translate(190.863525390625,155.757080078125)"/>
<path d="M0 0 C1.65322266 0.01740234 1.65322266 0.01740234 3.33984375 0.03515625 C4.99693359 0.04869141 4.99693359 0.04869141 6.6875 0.0625 C7.54214844 0.07410156 8.39679688 0.08570312 9.27734375 0.09765625 C9.27734375 0.75765625 9.27734375 1.41765625 9.27734375 2.09765625 C8.61734375 2.09765625 7.95734375 2.09765625 7.27734375 2.09765625 C7.27734375 4.40765625 7.27734375 6.71765625 7.27734375 9.09765625 C5.81941491 9.15165361 4.36091663 9.19044802 2.90234375 9.22265625 C2.09023437 9.24585937 1.278125 9.2690625 0.44140625 9.29296875 C-1.72265625 9.09765625 -1.72265625 9.09765625 -3.72265625 7.09765625 C-3.91015625 4.03515625 -3.91015625 4.03515625 -3.72265625 1.09765625 C-2.72265625 0.09765625 -2.72265625 0.09765625 0 0 Z " fill="#767880" transform="translate(134.72265625,98.90234375)"/>
<path d="M0 0 C1.9375 0.75 1.9375 0.75 3.9375 2.75 C4.1875 6.25 4.1875 6.25 3.9375 9.75 C1.9375 11.75 1.9375 11.75 -0.5625 12 C-3.0625 11.75 -3.0625 11.75 -5.0625 9.75 C-5.36328125 7.875 -5.36328125 7.875 -5.375 5.75 C-5.39175781 5.04875 -5.40851563 4.3475 -5.42578125 3.625 C-5.30589844 3.00625 -5.18601562 2.3875 -5.0625 1.75 C-2.0625 -0.25 -2.0625 -0.25 0 0 Z " fill="#E1E1E0" transform="translate(87.0625,134.25)"/>
<path d="M0 0 C0.66 0 1.32 0 2 0 C2.66 1.32 3.32 2.64 4 4 C4.66 2.68 5.32 1.36 6 0 C6.66 0 7.32 0 8 0 C8.66 1.65 9.32 3.3 10 5 C10.33 3.68 10.66 2.36 11 1 C11.66 1 12.32 1 13 1 C12.67 4.3 12.34 7.6 12 11 C10.68 11.33 9.36 11.66 8 12 C7.67 10.35 7.34 8.7 7 7 C6.34 8.65 5.68 10.3 5 12 C4.01 12 3.02 12 2 12 C0.70756464 7.8803623 -0.26252625 4.33168317 0 0 Z " fill="#D9DADC" transform="translate(63,153)"/>
<path d="M0 0 C0.66 0 1.32 0 2 0 C2 3.3 2 6.6 2 10 C3.98 10 5.96 10 8 10 C8 6.7 8 3.4 8 0 C10.64 0 13.28 0 16 0 C16 0.33 16 0.66 16 1 C14.02 1 12.04 1 10 1 C10 2.32 10 3.64 10 5 C11.65 5 13.3 5 15 5 C15 5.33 15 5.66 15 6 C13.35 6 11.7 6 10 6 C10 7.32 10 8.64 10 10 C11.98 10 13.96 10 16 10 C16 10.66 16 11.32 16 12 C10.72 12 5.44 12 0 12 C0 8.04 0 4.08 0 0 Z " fill="#C2C3C6" transform="translate(82,78)"/>
<path d="M0 0 C1.2684375 0.12375 1.2684375 0.12375 2.5625 0.25 C4.5625 3.25 4.5625 3.25 4.5625 6.25 C5.2225 6.25 5.8825 6.25 6.5625 6.25 C6.5625 7.9 6.5625 9.55 6.5625 11.25 C5.5725 11.745 5.5725 11.745 4.5625 12.25 C4.5625 11.26 4.5625 10.27 4.5625 9.25 C2.891875 9.311875 2.891875 9.311875 1.1875 9.375 C-2.4375 9.25 -2.4375 9.25 -4.4375 7.25 C-3.73681253 0.38326282 -3.73681253 0.38326282 0 0 Z " fill="#E3E4E4" transform="translate(91.4375,98.75)"/>
<path d="M0 0 C3.39914975 1.13304992 4.05254451 2.12518475 6 5 C6.45375 4.175 6.9075 3.35 7.375 2.5 C7.91125 1.675 8.4475 0.85 9 0 C9.66 0 10.32 0 11 0 C11 3.63 11 7.26 11 11 C10.34 11 9.68 11 9 11 C8.67 10.34 8.34 9.68 8 9 C7.67 9.66 7.34 10.32 7 11 C6.01 11 5.02 11 4 11 C3.67 10.01 3.34 9.02 3 8 C2.67 8.99 2.34 9.98 2 11 C1.34 11 0.68 11 0 11 C0 7.37 0 3.74 0 0 Z " fill="#DCDDDD" transform="translate(93,135)"/>
<path d="M0 0 C1.98 0 3.96 0 6 0 C6.66 0.66 7.32 1.32 8 2 C7.69496569 4.00451121 7.35919321 6.00448218 7 8 C7.3577614 10.27650745 7.3577614 10.27650745 8 12 C7.34 12 6.68 12 6 12 C5.67 10.68 5.34 9.36 5 8 C4.01 8 3.02 8 2 8 C2 9.32 2 10.64 2 12 C1.34 12 0.68 12 0 12 C0 8.04 0 4.08 0 0 Z " fill="#C7C7C8" transform="translate(97,153)"/>
<path d="M0 0 C0.66 0 1.32 0 2 0 C2 4.29 2 8.58 2 13 C0.02 13 -1.96 13 -4 13 C-6 11 -6 11 -6.25 8.5 C-6 6 -6 6 -4 4 C-2.68 4 -1.36 4 0 4 C0 2.68 0 1.36 0 0 Z " fill="#D8D8D9" transform="translate(110,95)"/>
<path d="M0 0 C0.66 0 1.32 0 2 0 C2 4.29 2 8.58 2 13 C0.02 13 -1.96 13 -4 13 C-4.66 12.34 -5.32 11.68 -6 11 C-5.625 7.875 -5.625 7.875 -5 5 C-3.35 4.67 -1.7 4.34 0 4 C0 2.68 0 1.36 0 0 Z " fill="#BFBFC3" transform="translate(69,95)"/>
<path d="M0 0 C1.98 0 3.96 0 6 0 C6.66 0.66 7.32 1.32 8 2 C7.625 5.125 7.625 5.125 7 8 C5.35 8.33 3.7 8.66 2 9 C2 9.99 2 10.98 2 12 C1.34 12 0.68 12 0 12 C0 8.04 0 4.08 0 0 Z " fill="#D3D3D5" transform="translate(119,156)"/>
<path d="M0 0 C2.31 0 4.62 0 7 0 C7.59732819 2.76264289 8 5.16032769 8 8 C8.33 8.99 8.66 9.98 9 11 C8.01 11 7.02 11 6 11 C5.67 9.68 5.34 8.36 5 7 C4.01 7 3.02 7 2 7 C2 8.32 2 9.64 2 11 C1.34 11 0.68 11 0 11 C0 7.37 0 3.74 0 0 Z " fill="#B6B6BA" transform="translate(72,135)"/>
<path d="M0 0 C0.66 0 1.32 0 2 0 C2 4.29 2 8.58 2 13 C1.01 13 0.02 13 -1 13 C-1.33 10.36 -1.66 7.72 -2 5 C-2.66 5 -3.32 5 -4 5 C-4 6.98 -4 8.96 -4 11 C-3.34 11 -2.68 11 -2 11 C-2 11.66 -2 12.32 -2 13 C-3.32 12.67 -4.64 12.34 -6 12 C-7.125 4.25 -7.125 4.25 -6 2 C-4.35 2.33 -2.7 2.66 -1 3 C-0.67 2.01 -0.34 1.02 0 0 Z " fill="#A6A7AD" transform="translate(165,95)"/>
<path d="M0 0 C1.98 0 3.96 0 6 0 C7 1 7 1 7.0625 4.5625 C7.041875 5.696875 7.02125 6.83125 7 8 C5.35 8.33 3.7 8.66 2 9 C2 9.99 2 10.98 2 12 C1.34 12 0.68 12 0 12 C0 8.04 0 4.08 0 0 Z " fill="#BBBDC1" transform="translate(150,99)"/>
<path d="M0 0 C1.81242052 -0.02687279 3.62495233 -0.04633715 5.4375 -0.0625 C6.44683594 -0.07410156 7.45617187 -0.08570313 8.49609375 -0.09765625 C11 0 11 0 12 1 C12.14115161 3.67058851 12.04247107 6.32432238 12 9 C11.34 9 10.68 9 10 9 C10 6.69 10 4.38 10 2 C9.01 2 8.02 2 7 2 C7 4.31 7 6.62 7 9 C6.34 9 5.68 9 5 9 C5 6.69 5 4.38 5 2 C4.01 2 3.02 2 2 2 C2 4.31 2 6.62 2 9 C1.34 9 0.68 9 0 9 C0 6.03 0 3.06 0 0 Z " fill="#D6D7D9" transform="translate(196,156)"/>
<path d="M0 0 C2.64 0 5.28 0 8 0 C8 0.66 8 1.32 8 2 C6.35 2 4.7 2 3 2 C3 2.99 3 3.98 3 5 C4.32 5 5.64 5 7 5 C7 5.66 7 6.32 7 7 C5.68 7 4.36 7 3 7 C3 7.99 3 8.98 3 10 C4.65 10 6.3 10 8 10 C8 10.66 8 11.32 8 12 C5.66705225 12.04241723 3.33297433 12.04092937 1 12 C0 11 0 11 -0.09765625 8.49609375 C-0.08605469 7.48675781 -0.07445313 6.47742188 -0.0625 5.4375 C-0.05347656 4.42558594 -0.04445313 3.41367188 -0.03515625 2.37109375 C-0.02355469 1.58863281 -0.01195313 0.80617187 0 0 Z " fill="#CCCCCE" transform="translate(106,153)"/>
<path d="M0 0 C4.55555556 0.55555556 4.55555556 0.55555556 6 2 C6.125 5 6.125 5 6 8 C5 9 5 9 2.5625 9.1875 C0 9 0 9 -2 7 C-2.25 4.5 -2.25 4.5 -2 2 C-1.34 1.34 -0.68 0.68 0 0 Z " fill="#D4D5D9" transform="translate(219,99)"/>
<path d="M0 0 C0.625 2.875 0.625 2.875 1 6 C-1 8 -1 8 -3.5625 8.1875 C-6 8 -6 8 -7 7 C-7.04092937 4.66702567 -7.04241723 2.33294775 -7 0 C-4.3333581 -1.33332095 -2.83319697 -0.67102033 0 0 Z " fill="#BEBFC1" transform="translate(122,138)"/>
<path d="M0 0 C4.55555556 0.55555556 4.55555556 0.55555556 6 2 C6.1875 4.4375 6.1875 4.4375 6 7 C5.34 7.66 4.68 8.32 4 9 C-0.55555556 8.44444444 -0.55555556 8.44444444 -2 7 C-2.1875 4.5625 -2.1875 4.5625 -2 2 C-1.34 1.34 -0.68 0.68 0 0 Z " fill="#D7D7D9" transform="translate(88,118)"/>
<path d="M0 0 C4.55555556 0.55555556 4.55555556 0.55555556 6 2 C6.1875 4.4375 6.1875 4.4375 6 7 C5.34 7.66 4.68 8.32 4 9 C-0.55555556 8.44444444 -0.55555556 8.44444444 -2 7 C-2.1875 4.5625 -2.1875 4.5625 -2 2 C-1.34 1.34 -0.68 0.68 0 0 Z " fill="#E0E0E3" transform="translate(170,99)"/>
<path d="M0 0 C1.81242052 -0.02687279 3.62495233 -0.04633715 5.4375 -0.0625 C6.44683594 -0.07410156 7.45617187 -0.08570312 8.49609375 -0.09765625 C11 0 11 0 12 1 C12.14115161 3.67058851 12.04247107 6.32432238 12 9 C11.34 9 10.68 9 10 9 C10 6.69 10 4.38 10 2 C9.01 2 8.02 2 7 2 C7 4.31 7 6.62 7 9 C6.34 9 5.68 9 5 9 C5 6.69 5 4.38 5 2 C4.01 2.33 3.02 2.66 2 3 C1.67 4.98 1.34 6.96 1 9 C0.67 9 0.34 9 0 9 C0 6.03 0 3.06 0 0 Z " fill="#D6D8DC" transform="translate(204,99)"/>
<path d="M0 0 C2.31 0 4.62 0 7 0 C7 0.33 7 0.66 7 1 C5.35 1 3.7 1 2 1 C2 2.32 2 3.64 2 5 C3.65 5 5.3 5 7 5 C7 5.66 7 6.32 7 7 C5.68 7 4.36 7 3 7 C3 7.66 3 8.32 3 9 C4.65 9 6.3 9 8 9 C8 9.99 8 10.98 8 12 C5.36 12 2.72 12 0 12 C0 8.04 0 4.08 0 0 Z " fill="#BABABE" transform="translate(73,78)"/>
<path d="M0 0 C3 1 3 1 3.94921875 2.7421875 C4.31466797 3.79792969 4.31466797 3.79792969 4.6875 4.875 C5.06455078 5.92300781 5.06455078 5.92300781 5.44921875 6.9921875 C6 9 6 9 6 12 C5.34 12 4.68 12 4 12 C4 11.01 4 10.02 4 9 C2.35 9 0.7 9 -1 9 C-1.33 9.99 -1.66 10.98 -2 12 C-2.66 12 -3.32 12 -4 12 C-3.52309796 10.37433394 -3.04340334 8.74948689 -2.5625 7.125 C-2.29566406 6.22007812 -2.02882812 5.31515625 -1.75390625 4.3828125 C-1 2 -1 2 0 0 Z " fill="#D7D7D8" transform="translate(180,153)"/>
<path d="M0 0 C1.81242052 -0.02687279 3.62495233 -0.04633715 5.4375 -0.0625 C6.44683594 -0.07410156 7.45617187 -0.08570312 8.49609375 -0.09765625 C11 0 11 0 12 1 C12.14115161 3.67058851 12.04247107 6.32432238 12 9 C11.67 9 11.34 9 11 9 C10.67 7.02 10.34 5.04 10 3 C9.34 3 8.68 3 8 3 C7.67 4.98 7.34 6.96 7 9 C6.34 9 5.68 9 5 9 C5 6.69 5 4.38 5 2 C4.01 2 3.02 2 2 2 C2 4.31 2 6.62 2 9 C1.34 9 0.68 9 0 9 C0 6.03 0 3.06 0 0 Z " fill="#D9D9DB" transform="translate(72,118)"/>
<path d="M0 0 C4.875 0.875 4.875 0.875 6 2 C6.04092937 4.33297433 6.04241723 6.66705225 6 9 C3.69 9 1.38 9 -1 9 C-1.33 7.68 -1.66 6.36 -2 5 C-0.35 4.34 1.3 3.68 3 3 C1.68 3 0.36 3 -1 3 C-0.67 2.01 -0.34 1.02 0 0 Z " fill="#DEDEE0" transform="translate(65,118)"/>
<path d="M0 0 C-0.58395206 3.51149841 -1.83279645 5.29031758 -4.3125 7.8125 C-4.90675781 8.43769531 -5.50101563 9.06289062 -6.11328125 9.70703125 C-8 11 -8 11 -10.12109375 10.7890625 C-12.3229197 9.86438715 -13.51219443 8.85975696 -15 7 C-15 6.34 -15 5.68 -15 5 C-14.401875 5.165 -13.80375 5.33 -13.1875 5.5 C-10.88655664 6.1114124 -10.88655664 6.1114124 -8 6 C-6.40240548 4.6905672 -6.40240548 4.6905672 -4.9375 3 C-2.20833333 0 -2.20833333 0 0 0 Z " fill="#EAF5ED" transform="translate(251,80)"/>
<path d="M0 0 C1.66611905 -0.042721 3.33382885 -0.04063832 5 0 C6 1 6 1 6.09765625 2.84765625 C6.06510417 4.8984375 6.03255208 6.94921875 6 9 C3.69 9 1.38 9 -1 9 C-1 7.35 -1 5.7 -1 4 C0.32 4 1.64 4 3 4 C3 3.34 3 2.68 3 2 C1.68 2.33 0.36 2.66 -1 3 C-0.67 2.01 -0.34 1.02 0 0 Z " fill="#C7C9CE" transform="translate(196,99)"/>
<path d="M0 0 C1.66611905 -0.042721 3.33382885 -0.04063832 5 0 C6 1 6 1 6.09765625 2.84765625 C6.06510417 4.8984375 6.03255208 6.94921875 6 9 C4.02 9 2.04 9 0 9 C-0.33 7.68 -0.66 6.36 -1 5 C0.65 4.67 2.3 4.34 4 4 C4 3.34 4 2.68 4 2 C2.35 2.33 0.7 2.66 -1 3 C-0.67 2.01 -0.34 1.02 0 0 Z " fill="#DCDCDE" transform="translate(74,99)"/>
<path d="M0 0 C1.2065625 0.0309375 1.2065625 0.0309375 2.4375 0.0625 C2.7675 1.7125 3.0975 3.3625 3.4375 5.0625 C1.7875 5.0625 0.1375 5.0625 -1.5625 5.0625 C-1.5625 5.7225 -1.5625 6.3825 -1.5625 7.0625 C0.0875 7.0625 1.7375 7.0625 3.4375 7.0625 C3.1075 7.7225 2.7775 8.3825 2.4375 9.0625 C0.77138095 9.105221 -0.89632885 9.10313832 -2.5625 9.0625 C-3.5625 8.0625 -3.5625 8.0625 -3.6875 4.5625 C-3.52762642 0.08603967 -3.52762642 0.08603967 0 0 Z " fill="#E3E3E5" transform="translate(117.5625,98.9375)"/>
<path d="M0 0 C1.65 0 3.3 0 5 0 C5.33 1.65 5.66 3.3 6 5 C4.35 5 2.7 5 1 5 C1 5.66 1 6.32 1 7 C2.65 7 4.3 7 6 7 C5.67 7.66 5.34 8.32 5 9 C3.33388095 9.042721 1.66617115 9.04063832 0 9 C-1 8 -1 8 -1.125 5.0625 C-1 2 -1 2 0 0 Z " fill="#E3E3E4" transform="translate(146,156)"/>
<path d="M0 0 C1.2065625 0.0309375 1.2065625 0.0309375 2.4375 0.0625 C2.4375 1.0525 2.4375 2.0425 2.4375 3.0625 C1.1175 2.7325 -0.2025 2.4025 -1.5625 2.0625 C-0.17054085 4.8464183 1.59325779 5.04148997 4.4375 6.0625 C4.1075 7.7125 3.7775 9.3625 3.4375 11.0625 C1.4575 11.0625 -0.5225 11.0625 -2.5625 11.0625 C-2.8925 10.0725 -3.2225 9.0825 -3.5625 8.0625 C-2.9025 8.0625 -2.2425 8.0625 -1.5625 8.0625 C-1.5625 8.7225 -1.5625 9.3825 -1.5625 10.0625 C-0.5725 9.7325 0.4175 9.4025 1.4375 9.0625 C1.7675 8.4025 2.0975 7.7425 2.4375 7.0625 C0.7875 6.7325 -0.8625 6.4025 -2.5625 6.0625 C-2.94468767 4.40635343 -3.27645102 2.73792976 -3.5625 1.0625 C-2.5625 0.0625 -2.5625 0.0625 0 0 Z " fill="#E1E2E3" transform="translate(67.5625,77.9375)"/>
<path d="M0 0 C1.67542976 0.28604898 3.34385343 0.61781233 5 1 C5.33 2.32 5.66 3.64 6 5 C4.35 5 2.7 5 1 5 C1 5.66 1 6.32 1 7 C2.32 7.33 3.64 7.66 5 8 C3.34385343 8.38218767 1.67542976 8.71395102 0 9 C-1 8 -1 8 -1.125 4.5 C-1 1 -1 1 0 0 Z " fill="#DBDBDF" transform="translate(211,156)"/>
<path d="M0 0 C1.65 0 3.3 0 5 0 C5.33 0.99 5.66 1.98 6 3 C4.35 2.67 2.7 2.34 1 2 C1 2.66 1 3.32 1 4 C2.65 4.33 4.3 4.66 6 5 C5.67 6.32 5.34 7.64 5 9 C3.02 9 1.04 9 -1 9 C-0.67 8.01 -0.34 7.02 0 6 C0.66 6 1.32 6 2 6 C1.01 5.34 0.02 4.68 -1 4 C-0.67 2.68 -0.34 1.36 0 0 Z " fill="#D3D4D6" transform="translate(124,99)"/>
<path d="M0 0 C0.78375 0.04125 1.5675 0.0825 2.375 0.125 C2.705 1.445 3.035 2.765 3.375 4.125 C1.395 3.465 -0.585 2.805 -2.625 2.125 C-2.295 4.435 -1.965 6.745 -1.625 9.125 C-0.635 9.455 0.355 9.785 1.375 10.125 C1.375 9.135 1.375 8.145 1.375 7.125 C2.365 7.125 3.355 7.125 4.375 7.125 C3.715 8.445 3.055 9.765 2.375 11.125 C0 11.25 0 11.25 -2.625 11.125 C-4.625 9.125 -4.625 9.125 -4.875 5.625 C-4.58138251 1.51435512 -4.25902123 0.20281053 0 0 Z " fill="#DCDEDF" transform="translate(103.625,77.875)"/>
<path d="M0 0 C0.99 0.99 1.98 1.98 3 3 C3.66 2.01 4.32 1.02 5 0 C5.66 0 6.32 0 7 0 C5.024 8.968 5.024 8.968 2 13 C1.34 13 0.68 13 0 13 C0 12.34 0 11.68 0 11 C0.66 11 1.32 11 2 11 C1.67 9.9275 1.34 8.855 1 7.75 C0 4 0 4 0 0 Z " fill="#DBDCDC" transform="translate(137,156)"/>
<path d="M0 0 C1.99954746 -0.04254356 4.00041636 -0.04080783 6 0 C7 1 7 1 7.09765625 2.84765625 C7.06510417 4.8984375 7.03255208 6.94921875 7 9 C6.34 9 5.68 9 5 9 C5 6.69 5 4.38 5 2 C4.01 2.495 4.01 2.495 3 3 C2.34227572 6.02934491 2.34227572 6.02934491 2 9 C1.34 9 0.68 9 0 9 C0 6.03 0 3.06 0 0 Z " fill="#D3D4D5" transform="translate(139,137)"/>
<path d="M0 0 C1.99954746 -0.04254356 4.00041636 -0.04080783 6 0 C7 1 7 1 7.09765625 2.84765625 C7.06510417 4.8984375 7.03255208 6.94921875 7 9 C6.34 9 5.68 9 5 9 C5 6.69 5 4.38 5 2 C4.01 2 3.02 2 2 2 C2 4.31 2 6.62 2 9 C1.34 9 0.68 9 0 9 C0 6.03 0 3.06 0 0 Z " fill="#DADADC" transform="translate(227,156)"/>
<path d="M0 0 C2.0625 0.4375 2.0625 0.4375 4 1 C4 3.31 4 5.62 4 8 C2.0625 8.5625 2.0625 8.5625 0 9 C-1 8 -1 8 -1.125 4.5 C-1 1 -1 1 0 0 Z " fill="#787980" transform="translate(85,136)"/>
<path d="M0 0 C1.99954746 -0.04254356 4.00041636 -0.04080783 6 0 C7 1 7 1 7.09765625 2.84765625 C7.06510417 4.8984375 7.03255208 6.94921875 7 9 C6.34 9 5.68 9 5 9 C5 6.69 5 4.38 5 2 C4.01 2 3.02 2 2 2 C2 4.31 2 6.62 2 9 C1.34 9 0.68 9 0 9 C0 6.03 0 3.06 0 0 Z " fill="#DEDEDF" transform="translate(104,118)"/>
<path d="M0 0 C1.99954746 -0.04254356 4.00041636 -0.04080783 6 0 C7 1 7 1 7.09765625 2.84765625 C7.06510417 4.8984375 7.03255208 6.94921875 7 9 C6.34 9 5.68 9 5 9 C5 6.69 5 4.38 5 2 C4.01 2 3.02 2 2 2 C2 4.31 2 6.62 2 9 C1.34 9 0.68 9 0 9 C0 6.03 0 3.06 0 0 Z " fill="#D7D7DB" transform="translate(178,99)"/>
<path d="M0 0 C0.66 0 1.32 0 2 0 C2 2.31 2 4.62 2 7 C2.99 7 3.98 7 5 7 C5 4.69 5 2.38 5 0 C5.66 0 6.32 0 7 0 C7 2.97 7 5.94 7 9 C5.00045254 9.04254356 2.99958364 9.04080783 1 9 C0 8 0 8 -0.09765625 6.15234375 C-0.06510417 4.1015625 -0.03255208 2.05078125 0 0 Z " fill="#D4D5D7" transform="translate(227,99)"/>
<path d="M0 0 C0.78375 0.185625 1.5675 0.37125 2.375 0.5625 C4.97089775 1.25962266 4.97089775 1.25962266 7 0 C6.67 1.65 6.34 3.3 6 5 C5.34 5 4.68 5 4 5 C4 5.99 4 6.98 4 8 C2.68 7.67 1.36 7.34 0 7 C0 4.69 0 2.38 0 0 Z " fill="#757780" transform="translate(101,80)"/>
<path d="M0 0 C1.67542976 0.28604898 3.34385343 0.61781233 5 1 C5 2.65 5 4.3 5 6 C2.625 6.625 2.625 6.625 0 7 C-0.66 6.34 -1.32 5.68 -2 5 C-1.46428571 1.46428571 -1.46428571 1.46428571 0 0 Z " fill="#399CD4" transform="translate(63,47)"/>
<path d="M0 0 C1.67542976 0.28604898 3.34385343 0.61781233 5 1 C5 2.65 5 4.3 5 6 C2.625 6.625 2.625 6.625 0 7 C-0.66 6.34 -1.32 5.68 -2 5 C-1.46428571 1.46428571 -1.46428571 1.46428571 0 0 Z " fill="#D9485B" transform="translate(40,47)"/>
<path d="M0 0 C0.66 0 1.32 0 2 0 C2 1.98 2 3.96 2 6 C3.65 6 5.3 6 7 6 C7 4.35 7 2.7 7 1 C7.33 1 7.66 1 8 1 C8 4.63 8 8.26 8 12 C7.67 12 7.34 12 7 12 C7 10.35 7 8.7 7 7 C5.35 7 3.7 7 2 7 C2 8.65 2 10.3 2 12 C1.34 12 0.68 12 0 12 C0 8.04 0 4.08 0 0 Z " fill="#E3E4E5" transform="translate(78,153)"/>
<path d="M0 0 C0.66 0 1.32 0 2 0 C2 2.31 2 4.62 2 7 C2.99 7 3.98 7 5 7 C5 4.69 5 2.38 5 0 C5.66 0 6.32 0 7 0 C7 2.97 7 5.94 7 9 C5.02 9 3.04 9 1 9 C-0.4783226 6.04335481 -0.06032783 3.25770263 0 0 Z " fill="#D9D9DB" transform="translate(95,118)"/>
<path d="M0 0 C2.97 0.495 2.97 0.495 6 1 C5.67 2.65 5.34 4.3 5 6 C3.125 6.625 3.125 6.625 1 7 C0.34 6.34 -0.32 5.68 -1 5 C-0.625 2.375 -0.625 2.375 0 0 Z " fill="#C8B541" transform="translate(51,47)"/>
<path d="M0 0 C0.66 0 1.32 0 2 0 C4.76773209 3.32127851 6.07523578 4.98431692 5.75 9.375 C5.5025 10.24125 5.255 11.1075 5 12 C4.01 12 3.02 12 2 12 C0.70756464 7.8803623 -0.26252625 4.33168317 0 0 Z " fill="#D0D1D4" transform="translate(63,153)"/>
<path d="M0 0 C1.66611905 -0.042721 3.33382885 -0.04063832 5 0 C6 1 6 1 6.0625 4.5625 C6.041875 5.696875 6.02125 6.83125 6 8 C5.34 8 4.68 8 4 8 C4 7.01 4 6.02 4 5 C3.01 5.99 2.02 6.98 1 8 C1.66 8.33 2.32 8.66 3 9 C1.68 8.67 0.36 8.34 -1 8 C-0.67 6.68 -0.34 5.36 0 4 C1.32 4 2.64 4 4 4 C4 3.34 4 2.68 4 2 C2.68 2.33 1.36 2.66 0 3 C0 2.01 0 1.02 0 0 Z " fill="#DCDCDD" transform="translate(129,156)"/>
<path d="M0 0 C1.98 0 3.96 0 6 0 C4.68 0.33 3.36 0.66 2 1 C2 1.99 2 2.98 2 4 C3.32 4 4.64 4 6 4 C6 4.66 6 5.32 6 6 C4.68 6 3.36 6 2 6 C2 7.32 2 8.64 2 10 C3.32 10.33 4.64 10.66 6 11 C4.02 11 2.04 11 0 11 C0 7.37 0 3.74 0 0 Z " fill="#D9DADB" transform="translate(89,154)"/>
<path d="M0 0 C1.65 0.33 3.3 0.66 5 1 C5 3.64 5 6.28 5 9 C4.34 8.67 3.68 8.34 3 8 C3 7.01 3 6.02 3 5 C2.01 5.99 1.02 6.98 0 8 C0.66 8.33 1.32 8.66 2 9 C0.68 8.67 -0.64 8.34 -2 8 C-1.67 6.68 -1.34 5.36 -1 4 C0.32 4 1.64 4 3 4 C3 3.34 3 2.68 3 2 C1.68 2.33 0.36 2.66 -1 3 C-0.67 2.01 -0.34 1.02 0 0 Z " fill="#DFE0E1" transform="translate(150,137)"/>
<path d="M0 0 C1.2065625 0.0309375 1.2065625 0.0309375 2.4375 0.0625 C2.7675 1.0525 3.0975 2.0425 3.4375 3.0625 C1.7875 2.7325 0.1375 2.4025 -1.5625 2.0625 C-1.2325 3.3825 -0.9025 4.7025 -0.5625 6.0625 C0.7575 6.0625 2.0775 6.0625 3.4375 6.0625 C3.1075 7.0525 2.7775 8.0425 2.4375 9.0625 C-2.4375 8.1875 -2.4375 8.1875 -3.5625 7.0625 C-3.6875 4.0625 -3.6875 4.0625 -3.5625 1.0625 C-2.5625 0.0625 -2.5625 0.0625 0 0 Z " fill="#D6D7D9" transform="translate(134.5625,98.9375)"/>
<path d="M0 0 C0.99 0 1.98 0 3 0 C3 3.96 3 7.92 3 12 C2.01 12 1.02 12 0 12 C0 8.04 0 4.08 0 0 Z " fill="#BFBFC4" transform="translate(222,153)"/>
<path d="M0 0 C0.78375 0.04125 1.5675 0.0825 2.375 0.125 C2.375 2.435 2.375 4.745 2.375 7.125 C0.395 7.125 -1.585 7.125 -3.625 7.125 C-4.25 4.75 -4.25 4.75 -4.625 2.125 C-2.625 0.125 -2.625 0.125 0 0 Z " fill="#CFD0D3" transform="translate(160.625,155.875)"/>
<path d="M0 0 C2.97 0 5.94 0 9 0 C9 0.66 9 1.32 9 2 C8.01 2 7.02 2 6 2 C6 4.97 6 7.94 6 11 C5.34 11 4.68 11 4 11 C4 8.03 4 5.06 4 2 C2.68 2 1.36 2 0 2 C0 1.34 0 0.68 0 0 Z " fill="#D8DADC" transform="translate(108,78)"/>
<path d="M0 0 C0.66 0 1.32 0 2 0 C2 0.66 2 1.32 2 2 C2.66 2 3.32 2 4 2 C4 4.97 4 7.94 4 11 C2.68 10.67 1.36 10.34 0 10 C-1.125 2.25 -1.125 2.25 0 0 Z " fill="#D3D4D4" transform="translate(82,97)"/>
<path d="M0 0 C2.625 0.375 2.625 0.375 5 1 C5 1.66 5 2.32 5 3 C3.35 2.67 1.7 2.34 0 2 C0 3.65 0 5.3 0 7 C1.65 6.67 3.3 6.34 5 6 C4.67 6.99 4.34 7.98 4 9 C2.35 9 0.7 9 -1 9 C-1.625 5.625 -1.625 5.625 -2 2 C-1.34 1.34 -0.68 0.68 0 0 Z " fill="#DBDCDD" transform="translate(189,156)"/>
<path d="M0 0 C2 2 2 2 2 5 C2.66 5 3.32 5 4 5 C4 6.65 4 8.3 4 10 C3.01 10.495 3.01 10.495 2 11 C2 10.01 2 9.02 2 8 C-0.31 7.34 -2.62 6.68 -5 6 C-5 5.34 -5 4.68 -5 4 C-3.35 4 -1.7 4 0 4 C0 2.68 0 1.36 0 0 Z " fill="#9B9DA2" transform="translate(94,100)"/>
<path d="M0 0 C2.5 0.3125 2.5 0.3125 5 1 C5.33 1.66 5.66 2.32 6 3 C4.35 3 2.7 3 1 3 C1 3.99 1 4.98 1 6 C2.65 6 4.3 6 6 6 C5.67 6.99 5.34 7.98 5 9 C3.33388095 9.042721 1.66617115 9.04063832 0 9 C-1 8 -1 8 -1.125 4.5 C-1 1 -1 1 0 0 Z " fill="#DADADD" transform="translate(237,156)"/>
<path d="M0 0 C0.66 0 1.32 0 2 0 C2 2.31 2 4.62 2 7 C3.32 7 4.64 7 6 7 C6 5.02 6 3.04 6 1 C6.33 1 6.66 1 7 1 C7 3.64 7 6.28 7 9 C5.00045254 9.04254356 2.99958364 9.04080783 1 9 C0 8 0 8 -0.09765625 6.15234375 C-0.06510417 4.1015625 -0.03255208 2.05078125 0 0 Z " fill="#DDDDDE" transform="translate(124,137)"/>
<path d="M0 0 C2.31 0 4.62 0 7 0 C7 0.33 7 0.66 7 1 C5.35 1 3.7 1 2 1 C2 2.32 2 3.64 2 5 C3.32 5.33 4.64 5.66 6 6 C4.68 6 3.36 6 2 6 C2 7.65 2 9.3 2 11 C1.34 11 0.68 11 0 11 C0 7.37 0 3.74 0 0 Z " fill="#EAEAEB" transform="translate(64,135)"/>
<path d="M0 0 C0.99 0.33 1.98 0.66 3 1 C4.23076923 6.41538462 4.23076923 6.41538462 3.0625 9.375 C2.711875 9.91125 2.36125 10.4475 2 11 C1.34 11 0.68 11 0 11 C0 7.37 0 3.74 0 0 Z " fill="#E4E4E3" transform="translate(93,135)"/>
<path d="M0 0 C0.99 0.33 1.98 0.66 3 1 C3 3.97 3 6.94 3 10 C1.68 9.67 0.36 9.34 -1 9 C-1.09765625 2.84765625 -1.09765625 2.84765625 -1 1 C-0.67 0.67 -0.34 0.34 0 0 Z " fill="#C9C9CD" transform="translate(246,98)"/>
<path d="M0 0 C0.66 0 1.32 0 2 0 C3.17571451 3.67410785 3.07366746 7.16929183 3 11 C2.01 11 1.02 11 0 11 C0 8.69 0 6.38 0 4 C-0.66 4 -1.32 4 -2 4 C-2 3.34 -2 2.68 -2 2 C-1.34 2 -0.68 2 0 2 C0 1.34 0 0.68 0 0 Z " fill="#D2D3D5" transform="translate(114,116)"/>
<path d="M0 0 C2.8125 -0.3125 2.8125 -0.3125 6 0 C7.875 2.5 7.875 2.5 9 5 C6.03 4.67 3.06 4.34 0 4 C0 2.68 0 1.36 0 0 Z " fill="#767880" transform="translate(92,84)"/>
<path d="M0 0 C0.66 0 1.32 0 2 0 C3.38232443 1.62626404 4.71937515 3.2925002 6 5 C1.98195309 5.84098656 -1.01803543 6.05404945 -5 5 C-5 4.34 -5 3.68 -5 3 C-3.35 3 -1.7 3 0 3 C0 2.01 0 1.02 0 0 Z " fill="#7F8087" transform="translate(121,101)"/>
<path d="M0 0 C1.1446875 0.495 1.1446875 0.495 2.3125 1 C4.99069135 2.17436686 4.99069135 2.17436686 8 2 C8 2.66 8 3.32 8 4 C7.071875 4.12375 7.071875 4.12375 6.125 4.25 C3.81562433 4.81258459 3.81562433 4.81258459 2.75 7.0625 C2.5025 7.701875 2.255 8.34125 2 9 C1.67 9 1.34 9 1 9 C0.67 6.03 0.34 3.06 0 0 Z " fill="#818389" transform="translate(145,137)"/>
<path d="M0 0 C0.66 0.33 1.32 0.66 2 1 C1.79375 1.9075 1.5875 2.815 1.375 3.75 C0.9872755 7.11027897 1.19588033 8.24075815 3 11 C2.01 11 1.02 11 0 11 C-0.33 9.68 -0.66 8.36 -1 7 C-1.99 7 -2.98 7 -4 7 C-4 6.34 -4 5.68 -4 5 C-2.68 5 -1.36 5 0 5 C0 3.35 0 1.7 0 0 Z " fill="#DFDEDF" transform="translate(78,135)"/>
<path d="M0 0 C0.66 0 1.32 0 2 0 C2 0.66 2 1.32 2 2 C2.66 2.33 3.32 2.66 4 3 C3.34 3 2.68 3 2 3 C2 4.98 2 6.96 2 9 C2.66 9 3.32 9 4 9 C4 9.66 4 10.32 4 11 C2.68 10.67 1.36 10.34 0 10 C-1.125 2.25 -1.125 2.25 0 0 Z " fill="#D9D9DC" transform="translate(159,97)"/>
<path d="M0 0 C0.99 0 1.98 0 3 0 C2.690625 0.53625 2.38125 1.0725 2.0625 1.625 C0.82172561 4.3984957 0.4090325 7.00042837 0 10 C-2.97 9.505 -2.97 9.505 -6 9 C-5.67 8.01 -5.34 7.02 -5 6 C-4.34 6 -3.68 6 -3 6 C-3 6.99 -3 7.98 -3 9 C-2.34 9 -1.68 9 -1 9 C-0.67 6.03 -0.34 3.06 0 0 Z " fill="#8F9197" transform="translate(136,155)"/>
<path d="M0 0 C1.67542976 0.28604898 3.34385343 0.61781233 5 1 C5 1.99 5 2.98 5 4 C3.35 4.33 1.7 4.66 0 5 C-0.5625 3.0625 -0.5625 3.0625 -1 1 C-0.67 0.67 -0.34 0.34 0 0 Z " fill="#72747D" transform="translate(238,158)"/>
<path d="M0 0 C1.65 0 3.3 0 5 0 C5 0.66 5 1.32 5 2 C4.01 2 3.02 2 2 2 C2 4.31 2 6.62 2 9 C1.34 9 0.68 9 0 9 C0 6.03 0 3.06 0 0 Z " fill="#CECED1" transform="translate(133,137)"/>
<path d="M0 0 C0.33 1.32 0.66 2.64 1 4 C1.99 4 2.98 4 4 4 C4 5.65 4 7.3 4 9 C3.01 9.33 2.02 9.66 1 10 C-0.1577506 6.52674819 -0.06866652 3.63932552 0 0 Z " fill="#95979E" transform="translate(185,101)"/>
<path d="M0 0 C0.33 0 0.66 0 1 0 C1 2.31 1 4.62 1 7 C-1.31 7 -3.62 7 -6 7 C-5.34 5.68 -4.68 4.36 -4 3 C-3.01 3 -2.02 3 -1 3 C-0.67 3.99 -0.34 4.98 0 6 C0 4.02 0 2.04 0 0 Z " fill="#B9BABD" transform="translate(70,120)"/>
<path d="M0 0 C0.66 0.33 1.32 0.66 2 1 C2.625 3.0625 2.625 3.0625 3 5 C5.31 5.33 7.62 5.66 10 6 C10 6.33 10 6.66 10 7 C6.37 7 2.74 7 -1 7 C-0.34 6.67 0.32 6.34 1 6 C0.34 4.35 -0.32 2.7 -1 1 C-0.67 0.67 -0.34 0.34 0 0 Z " fill="#6E6F79" transform="translate(104,159)"/>
<path d="M0 0 C1.32 0 2.64 0 4 0 C4 0.66 4 1.32 4 2 C3.34 2 2.68 2 2 2 C2 4.31 2 6.62 2 9 C1.34 9 0.68 9 0 9 C0 6.03 0 3.06 0 0 Z " fill="#D9DBDD" transform="translate(140,99)"/>
<path d="M0 0 C0.99 0.33 1.98 0.66 3 1 C3 3.31 3 5.62 3 8 C2.01 8 1.02 8 0 8 C-1.125 2.25 -1.125 2.25 0 0 Z " fill="#ABACB0" transform="translate(180,153)"/>
<path d="M0 0 C0.66 0.33 1.32 0.66 2 1 C2.40729228 3.32156597 2.74438677 5.6568787 3 8 C2.01 8 1.02 8 0 8 C-1.125 6.25 -1.125 6.25 -2 4 C-1.125 1.75 -1.125 1.75 0 0 Z " fill="#808288" transform="translate(80,137)"/>
<path d="M0 0 C0.99 0 1.98 0 3 0 C3 1.98 3 3.96 3 6 C2.01 6.33 1.02 6.66 0 7 C0 4.69 0 2.38 0 0 Z " fill="#83858D" transform="translate(111,120)"/>
<path d="M0 0 C2.0625 0.4375 2.0625 0.4375 4 1 C4.33 2.32 4.66 3.64 5 5 C3.35 5 1.7 5 0 5 C-0.5625 3.0625 -0.5625 3.0625 -1 1 C-0.67 0.67 -0.34 0.34 0 0 Z " fill="#C1C2C4" transform="translate(74,103)"/>
<path d="M0 0 C1.32 0.33 2.64 0.66 4 1 C4 2.32 4 3.64 4 5 C2.68 5 1.36 5 0 5 C0 3.35 0 1.7 0 0 Z " fill="#6A6C76" transform="translate(121,158)"/>
<path d="M0 0 C0.99 0 1.98 0 3 0 C3 1.98 3 3.96 3 6 C2.01 6.33 1.02 6.66 0 7 C0 4.69 0 2.38 0 0 Z " fill="#73737E" transform="translate(106,120)"/>
<path d="M0 0 C1.32 0.33 2.64 0.66 4 1 C4 2.32 4 3.64 4 5 C2.68 5 1.36 5 0 5 C0 3.35 0 1.7 0 0 Z " fill="#70727B" transform="translate(88,120)"/>
<path d="M0 0 C1.65 0 3.3 0 5 0 C4.34 3.3 3.68 6.6 3 10 C2.67 10 2.34 10 2 10 C1.855625 8.906875 1.71125 7.81375 1.5625 6.6875 C1.11711896 3.06877013 1.11711896 3.06877013 0 0 Z " fill="#6B807B" transform="translate(241,98)"/>
<path d="M0 0 C0.99 0 1.98 0 3 0 C3 1.65 3 3.3 3 5 C1.68 5 0.36 5 -1 5 C-0.67 3.35 -0.34 1.7 0 0 Z " fill="#6E6F7B" transform="translate(220,101)"/>
<path d="M0 0 C0.99 0 1.98 0 3 0 C3 1.65 3 3.3 3 5 C1.68 5 0.36 5 -1 5 C-0.67 3.35 -0.34 1.7 0 0 Z " fill="#777882" transform="translate(171,101)"/>
<path d="M0 0 C0 2.31 0 4.62 0 7 C-0.99 7 -1.98 7 -3 7 C-3 5.02 -3 3.04 -3 1 C-1 0 -1 0 0 0 Z " fill="#74757F" transform="translate(164,99)"/>
<path d="M0 0 C2.12508244 3.18762365 2.5020163 5.26512223 3 9 C1.68 8.67 0.36 8.34 -1 8 C-1.125 2.25 -1.125 2.25 0 0 Z " fill="#73747C" transform="translate(86,99)"/>
<path d="M0 0 C0.99 0 1.98 0 3 0 C4.125 3.75 4.125 3.75 3 6 C2.01 6 1.02 6 0 6 C-1.125 2.25 -1.125 2.25 0 0 Z " fill="#C9CACA" transform="translate(97,140)"/>
<path d="M0 0 C0.99 0.33 1.98 0.66 3 1 C3 2.32 3 3.64 3 5 C1.68 5 0.36 5 -1 5 C-0.67 3.35 -0.34 1.7 0 0 Z " fill="#70717B" transform="translate(107,101)"/>
<path d="M0 0 C1.65 0 3.3 0 5 0 C4.67 1.32 4.34 2.64 4 4 C2.35 3.67 0.7 3.34 -1 3 C-0.67 2.01 -0.34 1.02 0 0 Z " fill="#C1C1C5" transform="translate(115,99)"/>
<path d="M0 0 C0.33 0 0.66 0 1 0 C1 2.31 1 4.62 1 7 C0.01 7 -0.98 7 -2 7 C-2.125 4.625 -2.125 4.625 -2 2 C-1.34 1.34 -0.68 0.68 0 0 Z " fill="#6A6A75" transform="translate(231,99)"/>
<path d="M0 0 C1.98 0.495 1.98 0.495 4 1 C4 1.99 4 2.98 4 4 C2.35 3.67 0.7 3.34 -1 3 C-0.67 2.01 -0.34 1.02 0 0 Z " fill="#B2B3BA" transform="translate(211,156)"/>
<path d="M0 0 C1.65 0 3.3 0 5 0 C5.33 0.66 5.66 1.32 6 2 C5.67 2.66 5.34 3.32 5 4 C3.68 4 2.36 4 1 4 C0.67 2.68 0.34 1.36 0 0 Z " fill="#AFB1B5" transform="translate(146,156)"/>
<path d="M0 0 C1.65 0 3.3 0 5 0 C4.01 0.495 4.01 0.495 3 1 C3 1.66 3 2.32 3 3 C3.66 3 4.32 3 5 3 C4.67 3.66 4.34 4.32 4 5 C2.68 4.67 1.36 4.34 0 4 C0 2.68 0 1.36 0 0 Z " fill="#808188" transform="translate(66,136)"/>
<path d="M0 0 C0.99 0 1.98 0 3 0 C3 2.31 3 4.62 3 7 C2.01 6.67 1.02 6.34 0 6 C0 4.02 0 2.04 0 0 Z " fill="#767883" transform="translate(211,101)"/>
<path d="M0 0 C1.2065625 0.0309375 1.2065625 0.0309375 2.4375 0.0625 C2.1075 1.3825 1.7775 2.7025 1.4375 4.0625 C0.1175 4.0625 -1.2025 4.0625 -2.5625 4.0625 C-2.8925 3.0725 -3.2225 2.0825 -3.5625 1.0625 C-2.5625 0.0625 -2.5625 0.0625 0 0 Z " fill="#B4B6B8" transform="translate(91.5625,98.9375)"/>
<path d="M0 0 C1.98 0.66 3.96 1.32 6 2 C5.67 2.99 5.34 3.98 5 5 C4.01 5 3.02 5 2 5 C2 4.34 2 3.68 2 3 C1.34 3 0.68 3 0 3 C0 2.01 0 1.02 0 0 Z " fill="#7C7D85" transform="translate(64,83)"/>
<path d="M0 0 C0.33 0.99 0.66 1.98 1 3 C0.34 3.66 -0.32 4.32 -1 5 C-2.32 4.34 -3.64 3.68 -5 3 C-5 2.34 -5 1.68 -5 1 C-3.35 0.67 -1.7 0.34 0 0 Z " fill="#81828A" transform="translate(71,79)"/>
</svg>
