<?xml version="1.0" encoding="UTF-8"?>
<svg version="1.1" xmlns="http://www.w3.org/2000/svg" width="406" height="336">
<path d="M0 0 C133.98 0 267.96 0 406 0 C406 110.88 406 221.76 406 336 C272.02 336 138.04 336 0 336 C0 225.12 0 114.24 0 0 Z " fill="#FCFCFC" transform="translate(0,0)"/>
<path d="M0 0 C1.08013453 -0.00507454 2.16026906 -0.01014909 3.27313495 -0.0153774 C4.46941052 -0.01587516 5.66568609 -0.01637292 6.89821243 -0.01688576 C8.79327746 -0.02345914 8.79327746 -0.02345914 10.72662663 -0.03016531 C14.24501122 -0.04214944 17.76338209 -0.04778351 21.2817831 -0.05234647 C25.07195501 -0.05829559 28.86211045 -0.06990714 32.65227127 -0.08063698 C41.81134582 -0.10517656 50.97042584 -0.11979027 60.12952316 -0.13269705 C62.71548331 -0.1364078 65.30144292 -0.14038112 67.88740253 -0.14444971 C83.93813353 -0.16968468 99.98886536 -0.1917427 116.03961182 -0.20417786 C119.75869373 -0.20710766 123.47777561 -0.21006931 127.19685745 -0.21308327 C128.58343602 -0.21420234 128.58343602 -0.21420234 129.99802628 -0.21534403 C144.97684556 -0.22800113 159.95554623 -0.26122803 174.93431005 -0.3028851 C190.30483182 -0.34528206 205.67529283 -0.36887029 221.04587293 -0.37409842 C229.67909404 -0.37751506 238.31212979 -0.38929983 246.94529343 -0.42220116 C254.29689795 -0.45017211 261.64827913 -0.46121407 268.99993274 -0.4500057 C272.75166211 -0.4448114 276.50292356 -0.44775494 280.25458527 -0.47247124 C284.32085379 -0.49903684 288.38608799 -0.48692985 292.45241165 -0.47098732 C294.23344068 -0.49181045 294.23344068 -0.49181045 296.05045009 -0.51305425 C304.94570983 -0.42682361 304.94570983 -0.42682361 308.64658356 2.5500145 C311.61416209 5.91319826 312.05453448 7.34670002 312.02693558 11.70732689 C312.02371292 12.60322533 312.02049026 13.49912376 312.01716995 14.42217064 C312.00879105 15.35931908 312.00041214 16.29646751 311.99177933 17.26201439 C311.98726761 18.2068972 311.98275589 19.15178001 311.97810745 20.12529564 C311.96630289 22.46259826 311.94983691 24.799775 311.92927933 27.13701439 C311.26927933 27.13701439 310.60927933 27.13701439 309.92927933 27.13701439 C309.9329665 28.06615276 309.93665367 28.99529114 309.94045258 29.95258522 C310.02918975 52.54440995 310.09495328 75.13621211 310.13652802 97.72817421 C310.15716684 108.65341695 310.1853127 119.57854468 310.23103714 130.50371361 C310.27086444 140.02437501 310.29670253 149.54495313 310.30563331 159.06569552 C310.31085501 164.10844591 310.32315535 169.150958 310.35219955 174.19363213 C310.37930376 178.93781785 310.38773445 183.6816666 310.38171005 188.42592239 C310.38281253 190.16904785 310.39079615 191.91218431 310.40610123 193.65524292 C310.42595157 196.03209076 310.42123747 198.40766003 310.41029739 200.78453636 C310.42194876 201.47714664 310.43360013 202.16975691 310.44560456 202.88335538 C310.40376511 206.23746331 310.13912914 207.87297268 308.0242157 210.53404427 C304.75843495 213.03290249 302.94965391 213.26344031 298.88700008 213.27123547 C297.27632342 213.27792223 297.27632342 213.27792223 295.63310784 213.28474408 C294.44393205 213.28455972 293.25475625 213.28437536 292.02954483 213.28418541 C290.14567211 213.28970044 290.14567211 213.28970044 288.22374135 213.29532689 C284.7262268 213.30536289 281.2287294 213.30906624 277.73120248 213.3117162 C273.96354654 213.31561449 270.19590424 213.3251931 266.42825699 213.33392906 C257.32406038 213.35370633 248.21986263 213.36376101 239.11564991 213.37265685 C234.83115231 213.37703744 230.54665596 213.38240482 226.26215935 213.38764572 C212.02458801 213.40465881 197.78701746 213.419154 183.54943752 213.42639446 C179.85337892 213.42830444 176.15732033 213.43022476 172.46126175 213.4321804 C171.54259495 213.43266414 170.62392816 213.43314789 169.67742298 213.43364628 C154.78847909 213.44195039 139.89961545 213.46729336 125.01070663 213.49976108 C109.7339799 213.53280367 94.45729399 213.55084066 79.18053132 213.5540387 C70.59935139 213.55620634 62.01828849 213.56499197 53.43714333 213.59049988 C46.1305446 213.61216863 38.82409133 213.62027622 31.51746412 213.6105331 C27.78820137 213.60597729 24.05923897 213.60794832 20.33001709 213.62729454 C16.28978652 213.64807358 12.25022686 213.63797683 8.20996475 213.62476158 C6.43623931 213.64121545 6.43623931 213.64121545 4.62668103 213.65800172 C-3.27369639 213.59532438 -3.27369639 213.59532438 -7.27576351 211.29403019 C-10.52193937 207.39307212 -10.19440507 203.88202112 -10.19097519 198.98071861 C-10.19182961 198.24719947 -10.19268404 197.51368032 -10.19356436 196.75793332 C-10.19521495 194.29353011 -10.18970464 191.82919456 -10.18424606 189.36479759 C-10.18396407 187.60083073 -10.18412215 185.83686375 -10.18468857 184.07289696 C-10.18497609 179.27776275 -10.17908666 174.48265344 -10.17211461 169.68752503 C-10.16587355 164.67867995 -10.16527668 159.66983432 -10.1640892 154.66098595 C-10.16097812 145.1731427 -10.15276771 135.68531094 -10.14273971 126.19747275 C-10.13157169 115.39712655 -10.12606638 104.59677981 -10.12104428 93.79642928 C-10.11058492 71.5766179 -10.09298977 49.35681687 -10.07072067 27.13701439 C-10.73072067 27.13701439 -11.39072067 27.13701439 -12.07072067 27.13701439 C-12.21694092 23.92916718 -12.30508718 20.72218478 -12.38322067 17.51201439 C-12.44606247 16.15656517 -12.44606247 16.15656517 -12.5101738 14.77373314 C-12.59221492 10.27787975 -12.5908527 7.13259114 -9.67618942 3.55107689 C-6.16177967 0.29484717 -4.66466012 0.01159403 0 0 Z " fill="#60636F" transform="translate(54.07072067260742,54.862985610961914)"/>
<path d="M0 0 C1.26679439 -0.00779995 2.53358877 -0.01559991 3.83877087 -0.02363622 C7.34834501 -0.04449277 10.85723863 -0.0342005 14.36681509 -0.01870513 C18.15422755 -0.00739039 21.94152313 -0.02485489 25.72891235 -0.03860474 C33.14574308 -0.06084048 40.56232085 -0.05603454 47.9791615 -0.04154153 C54.00682988 -0.03025058 60.03442735 -0.02871776 66.06210327 -0.03416061 C66.91991998 -0.03492678 67.77773669 -0.03569294 68.66154784 -0.03648233 C70.40417427 -0.03808095 72.14680068 -0.03970202 73.88942707 -0.04134528 C90.23090546 -0.05560377 106.57224363 -0.03920852 122.91369903 -0.01234345 C136.93610721 0.00999544 150.95830844 0.00611534 164.98071289 -0.01693726 C181.26361785 -0.04369353 197.5463999 -0.05423046 213.82932377 -0.03887594 C215.56554729 -0.03728319 217.30177083 -0.03571133 219.03799438 -0.03416061 C220.31938436 -0.03300355 220.31938436 -0.03300355 221.626661 -0.03182311 C227.64724533 -0.02750558 233.66775172 -0.03479378 239.68832397 -0.04655838 C247.0252337 -0.06058001 254.36187595 -0.05679068 261.69875503 -0.03015466 C265.44238236 -0.01701172 269.18556372 -0.01187169 272.92918777 -0.02840042 C276.98654618 -0.04604344 281.04277811 -0.02498188 285.10009766 0 C286.28472186 -0.01115361 287.46934607 -0.02230722 288.68986797 -0.03379881 C297.56472077 0.07254895 297.56472077 0.07254895 301.26567078 3.0496006 C304.16898101 6.33538732 304.67607159 7.73150324 304.64770508 11.98648071 C304.64448242 12.83726196 304.64125977 13.68804321 304.63793945 14.56460571 C304.62956055 15.45405884 304.62118164 16.34351196 304.61254883 17.25991821 C304.60803711 18.15710571 304.60352539 19.05429321 304.59887695 19.97866821 C304.58707474 22.1974847 304.57061038 24.4161684 304.55004883 26.63491821 C300.97793649 27.45082731 297.68473511 27.76013591 294.02371788 27.76075935 C292.91834313 27.7633671 291.81296838 27.76597485 290.67409742 27.76866162 C289.46505927 27.7664309 288.25602113 27.76420017 287.01034546 27.76190186 C285.72187104 27.76346185 284.43339662 27.76502184 283.10587752 27.7666291 C279.53146152 27.77080588 275.9570722 27.76873917 272.3826561 27.76564288 C268.52716134 27.76338235 264.67167121 27.76687163 260.81617737 27.7696228 C253.26460289 27.77407221 245.71303835 27.77310778 238.16146348 27.77021016 C232.0260235 27.76795322 225.89058631 27.76764487 219.75514603 27.76873398 C218.44610327 27.76896383 218.44610327 27.76896383 217.1106152 27.76919832 C215.33786506 27.76951804 213.56511493 27.76984225 211.79236479 27.77017091 C195.16537508 27.77302319 178.53839087 27.76974245 161.91140206 27.76437055 C147.63567479 27.75990117 133.35995564 27.76068003 119.08422852 27.76528931 C102.51426549 27.77063681 85.94430729 27.77275018 69.37434351 27.76967704 C67.60866904 27.76935849 65.84299457 27.76904411 64.0773201 27.76873398 C63.20852244 27.7685797 62.33972478 27.76842543 61.44459992 27.76826648 C55.31344157 27.76740197 49.18228627 27.76886275 43.05112839 27.77121353 C35.58391593 27.77401361 28.11671399 27.77326879 20.64950274 27.76793279 C16.83753886 27.76529884 13.02559253 27.76428559 9.21362877 27.76758194 C5.08766543 27.77109597 0.96174669 27.76690939 -3.16421509 27.76190186 C-4.98446447 27.76524794 -4.98446447 27.76524794 -6.84148657 27.76866162 C-7.94164583 27.76605387 -9.04180509 27.76344612 -10.17530251 27.76075935 C-11.12834821 27.760597 -12.08139392 27.76043465 -13.0633198 27.76026738 C-15.44995117 27.63491821 -15.44995117 27.63491821 -18.44995117 26.63491821 C-18.62484478 23.23974007 -18.73098882 19.84572335 -18.82495117 16.44741821 C-18.87522461 15.48771118 -18.92549805 14.52800415 -18.97729492 13.53921509 C-19.00629883 12.1421936 -19.00629883 12.1421936 -19.03588867 10.71694946 C-19.08302002 9.43654785 -19.08302002 9.43654785 -19.13110352 8.13027954 C-18.31058864 5.1243718 -16.94840059 3.62287953 -14.52388 1.70258737 C-10.05031997 -0.60042418 -4.91556179 -0.04628156 0 0 Z " fill="#41405A" transform="translate(61.449951171875,54.365081787109375)"/>
<path d="M0 0 C0.66 0 1.32 0 2 0 C2.00238835 0.91790912 2.00477671 1.83581823 2.00723743 2.78154278 C2.06634965 25.10678552 2.14187549 47.43191997 2.23571491 69.75704479 C2.28069816 80.55327059 2.320107 91.34946322 2.34643555 102.14575195 C2.36939513 111.55478342 2.40277032 120.96371013 2.44870156 130.37265855 C2.47266128 135.35554808 2.49137204 140.33833368 2.49761391 145.32127953 C2.50365232 150.01050889 2.5236071 154.69947223 2.55427551 159.38860321 C2.5630757 161.11030799 2.56677423 162.83204751 2.56500816 164.55377388 C2.56335853 166.90388949 2.58002738 169.25319115 2.60127258 171.60319519 C2.60588155 172.91859378 2.61049051 174.23399237 2.61523914 175.58925152 C3.02447418 179.21695362 3.80336792 181.11678955 6 184 C8.51585866 185.25792933 10.22819593 185.126507 13.04507256 185.12863445 C14.65667426 185.13347112 14.65667426 185.13347112 16.30083358 185.1384055 C18.08562045 185.1360826 18.08562045 185.1360826 19.90646362 185.13371277 C21.79139469 185.1371111 21.79139469 185.1371111 23.71440518 185.14057809 C27.2138553 185.14671831 30.71328161 185.1465599 34.21273589 185.14538372 C37.98241406 185.14518027 41.75208445 185.15069312 45.52175903 185.15544128 C52.91164993 185.16376064 60.30153286 185.16649671 67.69142805 185.16705366 C73.69630603 185.16752823 79.70118136 185.16958001 85.7060585 185.17275429 C102.71793964 185.1815645 119.72981446 185.18617311 136.74169789 185.18542381 C137.65951083 185.18538386 138.57732377 185.1853439 139.52294922 185.18530273 C140.44187832 185.18526185 141.36080743 185.18522097 142.30758287 185.18517885 C157.20364127 185.18477231 172.09967441 185.19434287 186.9957255 185.2084411 C202.27809764 185.22279123 217.56045745 185.22971203 232.8428365 185.22884732 C241.4278572 185.22851487 250.01285141 185.23128289 258.59786606 185.24202538 C265.907028 185.25111249 273.21615145 185.25332042 280.52531658 185.24651595 C284.25639391 185.24324161 287.98739732 185.2432268 291.71846771 185.2518692 C295.75889133 185.26113211 299.79914236 185.25498203 303.83956909 185.24723816 C305.6176638 185.2549535 305.6176638 185.2549535 307.43167961 185.26282471 C308.51129624 185.25822592 309.59091287 185.25362712 310.70324516 185.24888897 C312.10278696 185.24921502 312.10278696 185.24921502 313.53060234 185.24954766 C316.16471454 184.98335459 317.779093 184.42306674 320 183 C321.46714606 180.06570789 321.1537128 177.10532771 321.15821838 173.88803101 C321.16562535 172.77678327 321.16562535 172.77678327 321.17318195 171.64308608 C321.18860271 169.14796467 321.19692991 166.65286908 321.20532227 164.15771484 C321.2148972 162.37418895 321.22490705 160.59066535 321.23532104 158.80714417 C321.26241791 153.95412618 321.28340154 149.10109843 321.30332303 144.2480464 C321.32515315 139.18045223 321.35255636 134.11288836 321.37937927 129.0453186 C321.42934647 119.44413302 321.47427033 109.84293067 321.51740164 100.24171221 C321.56673965 89.31319598 321.62167049 78.38471012 321.67708123 67.45622325 C321.79096307 44.97084383 321.89778857 22.48543528 322 0 C322.66 0 323.32 0 324 0 C324.11675085 23.64343737 324.20494782 47.28683161 324.25906086 70.93049908 C324.28485324 81.90843524 324.32002364 92.8861924 324.37719727 103.86401367 C324.42700043 113.43119688 324.45928349 122.99825046 324.47044247 132.56555969 C324.47696644 137.63243358 324.49232121 142.69893661 324.52865028 147.76569176 C324.56256091 152.53373242 324.57306292 157.30124908 324.56553841 162.06939888 C324.56691516 163.82017742 324.57687713 165.5709733 324.59602737 167.32164764 C324.62088958 169.71151142 324.61493182 172.09939443 324.60127258 174.48930359 C324.61583679 175.18289197 324.630401 175.87648035 324.64540654 176.59108657 C324.58676298 180.38431832 324.06654968 181.91768173 321.64992046 184.90691853 C317.96477496 187.81768883 315.3729981 188.12550811 310.81905556 188.13422108 C309.73979667 188.13867892 308.66053779 188.14313676 307.54857409 188.14772969 C306.35842019 188.14754533 305.16826629 188.14736097 303.94204712 188.14717102 C302.05076743 188.15268605 302.05076743 188.15268605 300.12128007 188.1583125 C296.61462329 188.16833571 293.10798362 188.17204979 289.60131454 188.17470181 C285.82208783 188.1786038 282.04287468 188.18818206 278.26365662 188.19691467 C269.13466424 188.21667988 260.00567074 188.2267444 250.87666231 188.23564246 C246.5797144 188.24002441 242.28276771 188.24539138 237.98582077 188.25063133 C223.70617491 188.26764205 209.42652982 188.28213762 195.14687538 188.28938007 C191.44101587 188.29129002 187.73515636 188.29321035 184.02929688 188.29516602 C182.64765901 188.29589163 182.64765901 188.29589163 181.23810928 188.2966319 C166.30719667 188.30493746 151.37636404 188.33028394 136.44548638 188.36274669 C121.1235275 188.39578882 105.80160932 188.41382617 90.47961462 188.41702431 C81.87385751 188.41919183 73.2682171 188.42797585 64.66249466 188.45348549 C57.33579149 188.47515348 50.00923338 188.48326214 42.68250181 188.47351871 C38.94310608 188.46896289 35.20400989 188.47093408 31.46465492 188.49028015 C27.41353078 188.51105865 23.36307576 188.50096265 19.31192017 188.48774719 C18.12622771 188.49871644 16.94053525 188.50968568 15.71891272 188.52098733 C7.8394695 188.45864132 7.8394695 188.45864132 3.85550499 186.2820158 C0.0032789 181.54430781 -0.248947 177.6236837 -0.24050903 171.60319519 C-0.24221788 170.86796719 -0.24392673 170.1327392 -0.24568737 169.37523156 C-0.24897593 166.91696535 -0.23798912 164.4589734 -0.22705078 162.00073242 C-0.22648653 160.23647061 -0.2268035 158.47220832 -0.22793579 156.70794678 C-0.22850976 151.92116429 -0.21674823 147.13448197 -0.20278788 142.34772277 C-0.19028794 137.34423184 -0.1891106 132.34073863 -0.18673706 127.3372345 C-0.18052013 117.8636076 -0.16410641 108.39002685 -0.14403808 98.91642028 C-0.12168573 88.13054261 -0.11068732 77.34466274 -0.10064721 66.55876768 C-0.07974039 44.37248603 -0.04456024 22.18624592 0 0 Z " fill="#B5B8BD" transform="translate(42,82)"/>
<path d="M0 0 C5.53552655 2.39765539 9.34491638 5.53696431 12 11 C13.11246618 17.17461851 12.74475849 22.65946541 9.4375 28.0625 C6.43485077 32.01825746 3.71336633 33.5859901 -1 35 C-1 35.66 -1 36.32 -1 37 C-0.34 37 0.32 37 1 37 C1 37.66 1 38.32 1 39 C0.34 39 -0.32 39 -1 39 C-1 41.64 -1 44.28 -1 47 C-0.34 47.33 0.32 47.66 1 48 C-0.65 47.67 -2.3 47.34 -4 47 C-4.33 43.37 -4.66 39.74 -5 36 C-6.340625 35.95875 -7.68125 35.9175 -9.0625 35.875 C-14.47802947 35.26095571 -17.54268112 33.14128711 -21 29 C-24.24942728 23.54934779 -24.91544823 18.21270482 -24 12 C-18.99562427 1.79877255 -10.87306401 -1.41243233 0 0 Z " fill="#28BA60" transform="translate(336,98)"/>
<path d="M0 0 C0.88042969 0.00257812 1.76085937 0.00515625 2.66796875 0.0078125 C3.54066406 0.00523438 4.41335937 0.00265625 5.3125 0 C7.65545779 0.12236646 9.59805806 0.54412429 11.85546875 1.1328125 C14.18845535 1.17303641 16.52253541 1.17601497 18.85546875 1.1328125 C23.85546875 1.1328125 28.85546875 1.1328125 33.85546875 1.1328125 C33.85546875 1.7928125 33.85546875 2.4528125 33.85546875 3.1328125 C32.20546875 3.1328125 30.55546875 3.1328125 28.85546875 3.1328125 C28.85546875 7.4228125 28.85546875 11.7128125 28.85546875 16.1328125 C27.86546875 16.1328125 26.87546875 16.1328125 25.85546875 16.1328125 C25.85546875 11.8428125 25.85546875 7.5528125 25.85546875 3.1328125 C24.20546875 3.7928125 22.55546875 4.4528125 20.85546875 5.1328125 C20.91734375 6.3909375 20.97921875 7.6490625 21.04296875 8.9453125 C21.17128815 11.55447365 21.14132001 12.7227575 19.6328125 14.88671875 C17.33716936 16.49619163 16.00267583 16.41132234 13.23046875 16.2578125 C11.77325624 16.18707403 10.31438562 16.13862492 8.85546875 16.1328125 C8.52546875 16.4628125 8.19546875 16.7928125 7.85546875 17.1328125 C6.30591316 17.23180773 4.75193202 17.26360774 3.19921875 17.265625 C1.78962891 17.26755859 1.78962891 17.26755859 0.3515625 17.26953125 C-0.63714844 17.26566406 -1.62585938 17.26179688 -2.64453125 17.2578125 C-3.63324219 17.26167969 -4.62195313 17.26554687 -5.640625 17.26953125 C-6.58035156 17.26824219 -7.52007812 17.26695313 -8.48828125 17.265625 C-9.35646484 17.26449707 -10.22464844 17.26336914 -11.11914062 17.26220703 C-13.14453125 17.1328125 -13.14453125 17.1328125 -14.14453125 16.1328125 C-14.21766692 13.60231848 -14.23700652 11.09976413 -14.20703125 8.5703125 C-14.20251953 7.85939453 -14.19800781 7.14847656 -14.19335938 6.41601562 C-14.18153989 4.65491237 -14.16360388 2.89385214 -14.14453125 1.1328125 C-13.15453125 1.1328125 -12.16453125 1.1328125 -11.14453125 1.1328125 C-11.14453125 5.4228125 -11.14453125 9.7128125 -11.14453125 14.1328125 C-8.50453125 14.1328125 -5.86453125 14.1328125 -3.14453125 14.1328125 C-3.15613281 13.20597656 -3.16773437 12.27914062 -3.1796875 11.32421875 C-3.18871094 10.12667969 -3.19773437 8.92914063 -3.20703125 7.6953125 C-3.21863281 6.50035156 -3.23023437 5.30539063 -3.2421875 4.07421875 C-3.11332268 0.19281051 -3.11332268 0.19281051 0 0 Z " fill="#797982" transform="translate(125.14453125,104.8671875)"/>
<path d="M0 0 C0.66 0 1.32 0 2 0 C2.00238835 0.91698732 2.00477671 1.83397465 2.00723743 2.77874947 C2.06636486 25.08765255 2.1419005 47.3964474 2.23571491 69.70523262 C2.28068683 80.49358265 2.32009831 91.28189956 2.34643555 102.0703125 C2.36940428 111.47312758 2.40278978 120.87583798 2.44870156 130.27857006 C2.47264889 135.25757902 2.49136779 140.23648422 2.49761391 145.21554947 C2.50365789 149.90231943 2.52363302 154.58882383 2.55427551 159.27549553 C2.56306672 160.99516774 2.56677608 162.71487463 2.56500816 164.43456841 C2.56335527 166.78433265 2.58005521 169.13328752 2.60127258 171.48294067 C2.60588155 172.79741747 2.61049051 174.11189426 2.61523914 175.46620369 C3.02834577 179.26033877 4.0900526 181.72389331 6 185 C4.125 184.8125 4.125 184.8125 2 184 C-0.20575805 179.87872315 -0.24697831 176.2190259 -0.24050903 171.60319519 C-0.24221788 170.86796719 -0.24392673 170.1327392 -0.24568737 169.37523156 C-0.24897593 166.91696535 -0.23798912 164.4589734 -0.22705078 162.00073242 C-0.22648653 160.23647061 -0.2268035 158.47220832 -0.22793579 156.70794678 C-0.22850976 151.92116429 -0.21674823 147.13448197 -0.20278788 142.34772277 C-0.19028794 137.34423184 -0.1891106 132.34073863 -0.18673706 127.3372345 C-0.18052013 117.8636076 -0.16410641 108.39002685 -0.14403808 98.91642028 C-0.12168573 88.13054261 -0.11068732 77.34466274 -0.10064721 66.55876768 C-0.07974039 44.37248603 -0.04456024 22.18624592 0 0 Z " fill="#BEBFC4" transform="translate(42,82)"/>
<path d="M0 0 C2.68217769 0.06470165 5.32572676 0.19120115 8 0.375 C8.75023437 0.41882813 9.50046875 0.46265625 10.2734375 0.5078125 C15.87159146 0.87159146 15.87159146 0.87159146 17 2 C17.07205511 3.68608966 17.08386068 5.37500659 17.0625 7.0625 C17.05347656 7.98160156 17.04445313 8.90070313 17.03515625 9.84765625 C17.02355469 10.55792969 17.01195312 11.26820313 17 12 C16.34 12 15.68 12 15 12 C14.67 9.36 14.34 6.72 14 4 C13.01 3.67 12.02 3.34 11 3 C11 5.97 11 8.94 11 12 C10.01 12.33 9.02 12.66 8 13 C8 9.7 8 6.4 8 3 C6.68 3 5.36 3 4 3 C4 6.3 4 9.6 4 13 C2.68 12.67 1.36 12.34 0 12 C-2.1421654 12.08816364 -2.1421654 12.08816364 -4.25 12.4375 C-5.4875 12.623125 -6.725 12.80875 -8 13 C-9.97538528 10.77769156 -10.93956032 9.41300448 -11.375 6.4375 C-11 4 -11 4 -9.9375 2.1875 C-7.02540466 0.40266737 -4.34119888 0.87625189 -1 1 C-0.67 0.67 -0.34 0.34 0 0 Z " fill="#71737A" transform="translate(264,211)"/>
<path d="M0 0 C6.6 0.6 6.6 0.6 9 3 C9.1953125 5.3828125 9.1953125 5.3828125 9.125 8.125 C9.10695312 9.03507813 9.08890625 9.94515625 9.0703125 10.8828125 C9.04710937 11.58148438 9.02390625 12.28015625 9 13 C2.9453125 13.1953125 2.9453125 13.1953125 1 13 C-1 11 -1 11 -1.125 8.375 C-1.08375 7.59125 -1.0425 6.8075 -1 6 C-1.33 8.31 -1.66 10.62 -2 13 C-2.99 13 -3.98 13 -5 13 C-5.33 10.03 -5.66 7.06 -6 4 C-6.99 4 -7.98 4 -9 4 C-9.33 6.97 -9.66 9.94 -10 13 C-10.99 13 -11.98 13 -13 13 C-13 9.04 -13 5.08 -13 1 C-9.90755208 1.03255208 -6.81510417 1.06510417 -3.72265625 1.09765625 C-1.08552366 1.31262571 -1.08552366 1.31262571 0 0 Z " fill="#797B81" transform="translate(201,185)"/>
<path d="M0 0 C0.66 0 1.32 0 2 0 C2 0.99 2 1.98 2 3 C2.99 3 3.98 3 5 3 C5.66 3.66 6.32 4.32 7 5 C7.66 4.34 8.32 3.68 9 3 C11.5 2.75 11.5 2.75 14 3 C16 5 16 5 16.125 7.625 C16.08375 8.40875 16.0425 9.1925 16 10 C13.69 10 11.38 10 9 10 C9.33 10.66 9.66 11.32 10 12 C11.258125 11.814375 12.51625 11.62875 13.8125 11.4375 C16.82744268 10.99267239 18.00468461 11.00156154 21 12 C20.67 14.31 20.34 16.62 20 19 C19.34 19 18.68 19 18 19 C17.34 17.68 16.68 16.36 16 15 C13.69 15.33 11.38 15.66 9 16 C6.90250005 13.64031256 6.03094296 12.45383006 5.8125 9.25 C5.874375 8.5075 5.93625 7.765 6 7 C5.01 7.495 5.01 7.495 4 8 C3.34227572 11.02934491 3.34227572 11.02934491 3 14 C3.66 14 4.32 14 5 14 C5 14.66 5 15.32 5 16 C3.35 15.67 1.7 15.34 0 15 C0 11.7 0 8.4 0 5 C-0.66 5 -1.32 5 -2 5 C-2 4.34 -2 3.68 -2 3 C-1.34 3 -0.68 3 0 3 C0 2.01 0 1.02 0 0 Z " fill="#EDEDED" transform="translate(112,131)"/>
<path d="M0 0 C0.74958984 0.01353516 1.49917969 0.02707031 2.27148438 0.04101562 C4.11879767 0.07631461 5.96574066 0.13012083 7.8125 0.1875 C7.8125 1.1775 7.8125 2.1675 7.8125 3.1875 C6.8225 3.5175 5.8325 3.8475 4.8125 4.1875 C4.4825 7.1575 4.1525 10.1275 3.8125 13.1875 C2.8225 13.1875 1.8325 13.1875 0.8125 13.1875 C0.4825 12.1975 0.1525 11.2075 -0.1875 10.1875 C-0.55875 10.703125 -0.93 11.21875 -1.3125 11.75 C-3.1875 13.1875 -3.1875 13.1875 -6.25 13.0625 C-9.1875 12.1875 -9.1875 12.1875 -11.1875 9.1875 C-11.72022765 4.07331458 -11.72022765 4.07331458 -10.1796875 1.51171875 C-7.01978904 -0.58868434 -3.65554994 -0.12451218 0 0 Z " fill="#696B74" transform="translate(188.1875,133.8125)"/>
<path d="M0 0 C0.99 0.33 1.98 0.66 3 1 C3.33 2.65 3.66 4.3 4 6 C4.99 5.67 5.98 5.34 7 5 C9.77119129 4.72288087 11.38798613 4.64123325 13.8125 6.0625 C15.646921 9.05550269 15.31107576 11.57816663 15 15 C13 17 13 17 10.0625 17.3125 C7 17 7 17 5.125 15.5 C4.75375 15.005 4.3825 14.51 4 14 C3.67 14.99 3.34 15.98 3 17 C2.01 17 1.02 17 0 17 C0 11.33333333 0 5.66666667 0 0 Z " fill="#E3E3E6" transform="translate(223,129)"/>
<path d="M0 0 C2.875 0.875 2.875 0.875 4.875 2.875 C5.17578125 5.15234375 5.17578125 5.15234375 5.1875 7.8125 C5.20425781 8.68777344 5.22101563 9.56304687 5.23828125 10.46484375 C4.875 12.875 4.875 12.875 3.54296875 14.66796875 C0.95661081 16.53959545 -1.03077349 16.26177831 -4.125 15.875 C-6.246517 14.2826143 -7.02319545 13.37301683 -7.55859375 10.75390625 C-7.56504731 6.92694279 -7.55112161 4.5633503 -5.5 1.25 C-3.125 -0.125 -3.125 -0.125 0 0 Z " fill="#F5F4F3" transform="translate(118.125,182.125)"/>
<path d="M0 0 C4.29 0 8.58 0 13 0 C13 0.66 13 1.32 13 2 C11.35 2 9.7 2 8 2 C8 6.29 8 10.58 8 15 C7.01 15 6.02 15 5 15 C5 10.71 5 6.42 5 2 C3.35 2.66 1.7 3.32 0 4 C0 5.98 0 7.96 0 10 C-0.99 10 -1.98 10 -3 10 C-3.33 10.99 -3.66 11.98 -4 13 C-5.65 12.67 -7.3 12.34 -9 12 C-10.25 5.375 -10.25 5.375 -8 2 C-6.35 2.33 -4.7 2.66 -3 3 C-3 3.66 -3 4.32 -3 5 C-2.34 5 -1.68 5 -1 5 C-0.67 3.35 -0.34 1.7 0 0 Z " fill="#757780" transform="translate(146,106)"/>
<path d="M0 0 C0.99 0 1.98 0 3 0 C3 5.94 3 11.88 3 18 C-5 18 -5 18 -7 16.875 C-8.48549091 14.08970454 -8.38050713 12.10747489 -8 9 C-6.5 6.625 -6.5 6.625 -5 5 C-3.35 5.33 -1.7 5.66 0 6 C0 4.02 0 2.04 0 0 Z " fill="#D8D8D9" transform="translate(149,129)"/>
<path d="M0 0 C0.66 0 1.32 0 2 0 C2.66 2.64 3.32 5.28 4 8 C4.99 5.36 5.98 2.72 7 0 C7.99 0 8.98 0 10 0 C10.99 2.64 11.98 5.28 13 8 C13.66 5.36 14.32 2.72 15 0 C15.66 0 16.32 0 17 0 C16.52013969 5.56890517 15.70084819 10.67067568 14 16 C13.01 16 12.02 16 11 16 C10.34 13.36 9.68 10.72 9 8 C7.58622659 10.63904371 6.62759865 13.07120629 6 16 C5.01 16 4.02 16 3 16 C-0.44419134 5.62642369 -0.44419134 5.62642369 0 0 Z " fill="#E6E6E7" transform="translate(86,208)"/>
<path d="M0 0 C6.8359375 -0.29296875 6.8359375 -0.29296875 9 0 C11 3 11 3 10.75 6.5625 C10 10 10 10 8 12 C6.68 12 5.36 12 4 12 C3.67 13.32 3.34 14.64 3 16 C2.01 16 1.02 16 0 16 C0 10.72 0 5.44 0 0 Z " fill="#DADADC" transform="translate(161,212)"/>
<path d="M0 0 C7 0 7 0 8.9375 1.0625 C10.6140629 4.11976176 10.36528977 6.5906288 10 10 C8.75 11.9375 8.75 11.9375 7 13 C5.68 13 4.36 13 3 13 C3 14.32 3 15.64 3 17 C2.01 17 1.02 17 0 17 C0 11.39 0 5.78 0 0 Z " fill="#CACBCE" transform="translate(203,134)"/>
<path d="M0 0 C1.32 0.33 2.64 0.66 4 1 C5.75 4.5625 5.75 4.5625 7 8 C9.40921705 5.59078295 10.53812156 3.05665491 12 0 C12.99 0 13.98 0 15 0 C15 4.95 15 9.9 15 15 C14.34 15 13.68 15 13 15 C12.67 12.36 12.34 9.72 12 7 C11.01 9.64 10.02 12.28 9 15 C8.01 15 7.02 15 6 15 C5.01 12.69 4.02 10.38 3 8 C2.67 10.31 2.34 12.62 2 15 C1.34 15 0.68 15 0 15 C0 10.05 0 5.1 0 0 Z " fill="#E8E9E8" transform="translate(126,183)"/>
<path d="M0 0 C6.8359375 -0.1953125 6.8359375 -0.1953125 9 0 C9.66 0.66 10.32 1.32 11 2 C10.625 4.375 10.625 4.375 10 7 C10 10.11257569 10.17361624 12.10765685 11 15 C10.01 15 9.02 15 8 15 C7.34 13.02 6.68 11.04 6 9 C5.01 9 4.02 9 3 9 C3 10.98 3 12.96 3 15 C2.01 15 1.02 15 0 15 C0 10.05 0 5.1 0 0 Z " fill="#E1E0E1" transform="translate(98,183)"/>
<path d="M0 0 C7 0 7 0 10 2 C10.29071481 5.41589896 10.08719244 7.73842267 9 11 C9.39397335 13.63804589 9.39397335 13.63804589 10 16 C9.01 15.67 8.02 15.34 7 15 C6.33333333 13.66666667 5.66666667 12.33333333 5 11 C4.01 10.67 3.02 10.34 2 10 C2 11.98 2 13.96 2 16 C1.34 16 0.68 16 0 16 C0 10.72 0 5.44 0 0 Z " fill="#E0E0E0" transform="translate(132,208)"/>
<path d="M0 0 C0.66 0 1.32 0 2 0 C2 5.94 2 11.88 2 18 C-5 18 -5 18 -6.9375 16.9375 C-8.59162584 13.92115289 -8.30575763 11.36333392 -8 8 C-6 6 -6 6 -2.875 5.875 C-1.92625 5.91625 -0.9775 5.9575 0 6 C0 4.02 0 2.04 0 0 Z " fill="#E4E4E5" transform="translate(94,129)"/>
<path d="M0 0 C2.9375 0.8125 2.9375 0.8125 4.9375 2.8125 C5.41424265 6.46752698 5.37070271 8.18676275 3.25 11.25 C0.9375 12.8125 0.9375 12.8125 -1.6875 12.75 C-4.0625 11.8125 -4.0625 11.8125 -6.0625 8.8125 C-6.39037294 5.66491978 -6.54552295 3.64437287 -4.9375 0.875 C-3.0625 -0.1875 -3.0625 -0.1875 0 0 Z " fill="#E5E5E8" transform="translate(300.0625,134.1875)"/>
<path d="M0 0 C7.34159292 -0.36106195 7.34159292 -0.36106195 9.9375 1.0625 C11.51168665 3.93307565 11.69573087 6.7747472 12 10 C12.99 10 13.98 10 15 10 C14.67 11.98 14.34 13.96 14 16 C13.34 16 12.68 16 12 16 C12 15.01 12 14.02 12 13 C10.35 12.67 8.7 12.34 7 12 C7 9.03 7 6.06 7 3 C6.01 3.33 5.02 3.66 4 4 C3.67 6.64 3.34 9.28 3 12 C2.01 12 1.02 12 0 12 C0 8.04 0 4.08 0 0 Z " fill="#DBDBDE" transform="translate(240,134)"/>
<path d="M0 0 C1.8125 1.125 1.8125 1.125 3 3 C3.39769128 6.18153026 3.55198782 8.12844028 1.8125 10.875 C-0.65507108 12.40659584 -2.14519831 12.42822025 -5 12 C-6.8125 10.875 -6.8125 10.875 -8 9 C-8.39769128 5.81846974 -8.55198782 3.87155972 -6.8125 1.125 C-4.34492892 -0.40659584 -2.85480169 -0.42822025 0 0 Z " fill="#E9E9E9" transform="translate(163,186)"/>
<path d="M0 0 C2.5625 0.3125 2.5625 0.3125 4.375 1.4375 C6.11448782 4.18405972 5.96019128 6.13096974 5.5625 9.3125 C4.375 11.1875 4.375 11.1875 2.5625 12.3125 C-0.28246772 12.73924516 -1.80102369 12.67316991 -4.3125 11.25 C-6.11810316 8.14035011 -5.23702488 5.69510527 -4.4375 2.3125 C-2.4375 0.3125 -2.4375 0.3125 0 0 Z " fill="#E3E2E4" transform="translate(121.4375,159.6875)"/>
<path d="M0 0 C2.47923801 -0.02685095 4.9581884 -0.04676547 7.4375 -0.0625 C8.14455078 -0.07087891 8.85160156 -0.07925781 9.58007812 -0.08789062 C11.38693559 -0.09653588 13.19387603 -0.05220011 15 0 C16 1 16 1 16.09765625 3.28515625 C16.08605469 4.20167969 16.07445312 5.11820313 16.0625 6.0625 C16.05347656 6.98160156 16.04445313 7.90070313 16.03515625 8.84765625 C16.02355469 9.55792969 16.01195312 10.26820313 16 11 C15.34 11 14.68 11 14 11 C13.67 8.36 13.34 5.72 13 3 C12.01 2.67 11.02 2.34 10 2 C10 4.97 10 7.94 10 11 C9.01 11.33 8.02 11.66 7 12 C7 8.7 7 5.4 7 2 C5.68 2 4.36 2 3 2 C3 5.3 3 8.6 3 12 C2.01 12 1.02 12 0 12 C0 8.04 0 4.08 0 0 Z " fill="#DDDEDF" transform="translate(265,212)"/>
<path d="M0 0 C-0.59047323 3.56677749 -1.95735668 5.41533359 -4.375 8.0625 C-4.98085938 8.73410156 -5.58671875 9.40570313 -6.2109375 10.09765625 C-6.80132812 10.72542969 -7.39171875 11.35320312 -8 12 C-8.53109375 12.57621094 -9.0621875 13.15242188 -9.609375 13.74609375 C-11 15 -11 15 -12.875 15 C-15.87980917 13.58597216 -17.76704502 11.41903456 -20 9 C-19.67 8.01 -19.34 7.02 -19 6 C-17.0625 6.3125 -17.0625 6.3125 -15 7 C-14.67 7.99 -14.34 8.98 -14 10 C-12.72799029 8.89718873 -11.45744147 7.79269231 -10.1875 6.6875 C-9.47980469 6.07261719 -8.77210938 5.45773438 -8.04296875 4.82421875 C-6.0163477 3.07797698 -6.0163477 3.07797698 -4.42578125 1.26953125 C-3 0 -3 0 0 0 Z " fill="#EEF6F0" transform="translate(340,109)"/>
<path d="M0 0 C10.77777778 0 10.77777778 0 15 1 C16 2 16 2 16.09765625 4.28515625 C16.08605469 5.20167969 16.07445313 6.11820313 16.0625 7.0625 C16.05347656 7.98160156 16.04445313 8.90070313 16.03515625 9.84765625 C16.02355469 10.55792969 16.01195313 11.26820313 16 12 C15.34 12 14.68 12 14 12 C14 9.03 14 6.06 14 3 C12.68 3.33 11.36 3.66 10 4 C9.67 6.64 9.34 9.28 9 12 C8.34 12 7.68 12 7 12 C7 9.03 7 6.06 7 3 C5.68 3 4.36 3 3 3 C3 5.97 3 8.94 3 12 C2.01 12 1.02 12 0 12 C0 8.04 0 4.08 0 0 Z " fill="#F1F0F0" transform="translate(98,160)"/>
<path d="M0 0 C4.49201278 -0.36421725 4.49201278 -0.36421725 6.65625 1.1875 C8.46278055 3.62421563 8.30430752 5.18944021 8.1875 8.1875 C8.16042969 9.08855469 8.13335937 9.98960937 8.10546875 10.91796875 C8.07066406 11.60503906 8.03585938 12.29210937 8 13 C1.9453125 13.1953125 1.9453125 13.1953125 0 13 C-0.66 12.34 -1.32 11.68 -2 11 C-1.44444444 6.44444444 -1.44444444 6.44444444 0 5 C1.66617115 4.95936168 3.33388095 4.957279 5 5 C5 4.34 5 3.68 5 3 C2.69 3.33 0.38 3.66 -2 4 C-1.34 2.68 -0.68 1.36 0 0 Z " fill="#BFC0C2" transform="translate(101,134)"/>
<path d="M0 0 C1.381875 0.185625 2.76375 0.37125 4.1875 0.5625 C7.74688575 0.97664237 10.49116557 0.74429821 14 0 C16 2 16 2 16.1953125 4.3828125 C16.17210937 5.28773438 16.14890625 6.19265625 16.125 7.125 C16.10695313 8.03507813 16.08890625 8.94515625 16.0703125 9.8828125 C16.04710937 10.58148438 16.02390625 11.28015625 16 12 C15.01 12 14.02 12 13 12 C13 9.03 13 6.06 13 3 C12.01 3.33 11.02 3.66 10 4 C9.67 6.64 9.34 9.28 9 12 C8.34 12 7.68 12 7 12 C6.67 9.36 6.34 6.72 6 4 C5.01 4 4.02 4 3 4 C2.67 6.64 2.34 9.28 2 12 C1.34 12 0.68 12 0 12 C0 8.04 0 4.08 0 0 Z " fill="#E7E8EC" transform="translate(276,134)"/>
<path d="M0 0 C3.3 0 6.6 0 10 0 C10 0.66 10 1.32 10 2 C7.69 2 5.38 2 3 2 C3 3.65 3 5.3 3 7 C5.31 7 7.62 7 10 7 C10 7.66 10 8.32 10 9 C7.69 9 5.38 9 3 9 C3 10.32 3 11.64 3 13 C5.64 13 8.28 13 11 13 C11 13.99 11 14.98 11 16 C7.37 16 3.74 16 0 16 C0 10.72 0 5.44 0 0 Z " fill="#DADADB" transform="translate(144,208)"/>
<path d="M0 0 C2.375 -0.125 2.375 -0.125 5 0 C7 2 7 2 7.1953125 4.3828125 C7.17210937 5.28773438 7.14890625 6.19265625 7.125 7.125 C7.10695313 8.03507813 7.08890625 8.94515625 7.0703125 9.8828125 C7.04710937 10.58148438 7.02390625 11.28015625 7 12 C0.9453125 12.9765625 0.9453125 12.9765625 -1 13 C-1.66 12.34 -2.32 11.68 -3 11 C-2.625 8.375 -2.625 8.375 -2 6 C-0.02 5.67 1.96 5.34 4 5 C4 4.34 4 3.68 4 3 C2.02 3.33 0.04 3.66 -2 4 C-1.34 2.68 -0.68 1.36 0 0 Z " fill="#B6B9BF" transform="translate(266,134)"/>
<path d="M0 0 C3.5 -0.375 3.5 -0.375 7 0 C9 3 9 3 9 7 C6.36 7 3.72 7 1 7 C1 7.66 1 8.32 1 9 C3.31 9 5.62 9 8 9 C7.01 10.485 7.01 10.485 6 12 C3.16818902 12.43566323 1.63936422 12.39684676 -0.8125 10.875 C-2.53501881 8.15523346 -2.32855599 6.15413751 -2 3 C-1.34 2.01 -0.68 1.02 0 0 Z " fill="#ABACB0" transform="translate(198,212)"/>
<path d="M0 0 C1 1 1 1 1.0625 3.5625 C1.041875 4.366875 1.02125 5.17125 1 6 C-1.31 6 -3.62 6 -6 6 C-6 6.99 -6 7.98 -6 9 C-2.535 8.505 -2.535 8.505 1 8 C0.67 8.99 0.34 9.98 0 11 C-5.4 12.32 -5.4 12.32 -7.875 11 C-9.61178961 7.91237402 -9.37142345 5.4666189 -9 2 C-6.746916 -2.00548266 -4.04187444 -1.05440203 0 0 Z " fill="#E5E5E7" transform="translate(163,135)"/>
<path d="M0 0 C2.375 -0.125 2.375 -0.125 5 0 C7 2 7 2 7.1953125 4.3828125 C7.17210938 5.28773438 7.14890625 6.19265625 7.125 7.125 C7.10695313 8.03507813 7.08890625 8.94515625 7.0703125 9.8828125 C7.04710938 10.58148438 7.02390625 11.28015625 7 12 C4.03 12 1.06 12 -2 12 C-2.625 9.625 -2.625 9.625 -3 7 C-1 5 -1 5 1.625 4.875 C2.40875 4.91625 3.1925 4.9575 4 5 C4 4.01 4 3.02 4 2 C2.02 2.66 0.04 3.32 -2 4 C-1.34 2.68 -0.68 1.36 0 0 Z " fill="#F4F4F5" transform="translate(89,160)"/>
<path d="M0 0 C2.33294775 -0.04241723 4.66702567 -0.04092937 7 0 C8 1 8 1 8.09765625 3.50390625 C8.08605469 4.51324219 8.07445312 5.52257812 8.0625 6.5625 C8.05347656 7.57441406 8.04445312 8.58632812 8.03515625 9.62890625 C8.02355469 10.41136719 8.01195312 11.19382813 8 12 C1.84765625 12.09765625 1.84765625 12.09765625 0 12 C-1 11 -1 11 -1.25 8.5625 C-1.1675 7.716875 -1.085 6.87125 -1 6 C2 4 2 4 5 4 C5 3.34 5 2.68 5 2 C3.02 2.33 1.04 2.66 -1 3 C-0.67 2.01 -0.34 1.02 0 0 Z " fill="#EFEEEF" transform="translate(175,212)"/>
<path d="M0 0 C0.66 0 1.32 0 2 0 C2 2.31 2 4.62 2 7 C4.31 7 6.62 7 9 7 C9 4.69 9 2.38 9 0 C9.66 0 10.32 0 11 0 C11 5.28 11 10.56 11 16 C10.34 16 9.68 16 9 16 C9 13.69 9 11.38 9 9 C6.69 9 4.38 9 2 9 C2 11.31 2 13.62 2 16 C1.01 16 0.02 16 -1 16 C-1.02701408 13.89590361 -1.04640223 11.79170822 -1.0625 9.6875 C-1.07410156 8.51574219 -1.08570312 7.34398437 -1.09765625 6.13671875 C-1 3 -1 3 0 0 Z " fill="#EEEEEE" transform="translate(106,208)"/>
<path d="M0 0 C0.99 0.103125 1.98 0.20625 3 0.3125 C5 3.3125 5 3.3125 5 7.3125 C2.69 7.3125 0.38 7.3125 -2 7.3125 C-2 7.9725 -2 8.6325 -2 9.3125 C-0.02 9.3125 1.96 9.3125 4 9.3125 C3.01 10.7975 3.01 10.7975 2 12.3125 C-0.5 12.625 -0.5 12.625 -3 12.3125 C-5 10.3125 -5 10.3125 -5.265625 8.4375 C-5.26046875 7.73625 -5.2553125 7.035 -5.25 6.3125 C-5.25515625 5.61125 -5.2603125 4.91 -5.265625 4.1875 C-4.77591168 0.73070012 -3.27162459 0.34079423 0 0 Z " fill="#EEEDF0" transform="translate(289,211.6875)"/>
<path d="M0 0 C3.3 0 6.6 0 10 0 C10 0.66 10 1.32 10 2 C7.69 2 5.38 2 3 2 C3 3.32 3 4.64 3 6 C4.98 6 6.96 6 9 6 C9 6.66 9 7.32 9 8 C7.02 8 5.04 8 3 8 C3 9.65 3 11.3 3 13 C5.31 13 7.62 13 10 13 C10 13.66 10 14.32 10 15 C6.7 15 3.4 15 0 15 C0 10.05 0 5.1 0 0 Z " fill="#DFDFE1" transform="translate(99,106)"/>
<path d="M0 0 C1.134375 0.020625 2.26875 0.04125 3.4375 0.0625 C4.0975 1.3825 4.7575 2.7025 5.4375 4.0625 C3.1275 3.7325 0.8175 3.4025 -1.5625 3.0625 C-1.5625 3.7225 -1.5625 4.3825 -1.5625 5.0625 C1.9025 6.5475 1.9025 6.5475 5.4375 8.0625 C5.48004356 10.06204746 5.47830783 12.06291636 5.4375 14.0625 C4.4375 15.0625 4.4375 15.0625 1.0625 15.25 C-2.5625 15.0625 -2.5625 15.0625 -5.5625 13.0625 C-5.5625 12.0725 -5.5625 11.0825 -5.5625 10.0625 C-4.5725 10.0625 -3.5825 10.0625 -2.5625 10.0625 C-2.2325 10.7225 -1.9025 11.3825 -1.5625 12.0625 C-0.2425 12.0625 1.0775 12.0625 2.4375 12.0625 C2.4375 11.4025 2.4375 10.7425 2.4375 10.0625 C0.1275 9.0725 -2.1825 8.0825 -4.5625 7.0625 C-4.60504356 5.06295254 -4.60330783 3.06208364 -4.5625 1.0625 C-3.5625 0.0625 -3.5625 0.0625 0 0 Z " fill="#F0F0F0" transform="translate(91.5625,105.9375)"/>
<path d="M0 0 C2.97 0 5.94 0 9 0 C9 0.66 9 1.32 9 2 C7.02 2 5.04 2 3 2 C3 3.65 3 5.3 3 7 C4.98 7 6.96 7 9 7 C9 7.66 9 8.32 9 9 C7.02 9 5.04 9 3 9 C3 10.65 3 12.3 3 14 C4.98 14 6.96 14 9 14 C9 14.66 9 15.32 9 16 C6.03 16 3.06 16 0 16 C0 10.72 0 5.44 0 0 Z " fill="#E0E0E1" transform="translate(120,208)"/>
<path d="M0 0 C0.94875 0.04125 1.8975 0.0825 2.875 0.125 C4.05071451 3.79910785 3.94866746 7.29429183 3.875 11.125 C0.27491481 11.45228047 -1.54111492 11.52922813 -4.5625 9.4375 C-6.125 7.125 -6.125 7.125 -6 4.5 C-4.66489729 0.87614979 -3.90948703 0.15637948 0 0 Z " fill="#CECED1" transform="translate(217.125,210.875)"/>
<path d="M0 0 C0.99 0 1.98 0 3 0 C3 3.3 3 6.6 3 10 C4.32 10 5.64 10 7 10 C7 7.03 7 4.06 7 1 C7.99 1 8.98 1 10 1 C10 4.96 10 8.92 10 13 C3.9453125 13.1953125 3.9453125 13.1953125 2 13 C0 11 0 11 -0.1953125 8.3984375 C-0.17210937 7.40070313 -0.14890625 6.40296875 -0.125 5.375 C-0.10695313 4.37210938 -0.08890625 3.36921875 -0.0703125 2.3359375 C-0.04710937 1.56507813 -0.02390625 0.79421875 0 0 Z " fill="#D6D7D9" transform="translate(307,134)"/>
<path d="M0 0 C3.3 0 6.6 0 10 0 C10 0.66 10 1.32 10 2 C7.69 2 5.38 2 3 2 C3 3.32 3 4.64 3 6 C5.31 6 7.62 6 10 6 C9.67 6.99 9.34 7.98 9 9 C7.02 9 5.04 9 3 9 C3 10.98 3 12.96 3 15 C2.01 15 1.02 15 0 15 C0 10.05 0 5.1 0 0 Z " fill="#CECFD2" transform="translate(86,183)"/>
<path d="M0 0 C0.99 0 1.98 0 3 0 C3.83739781 2.1234016 4.66980283 4.2487728 5.5 6.375 C5.9640625 7.55835938 6.428125 8.74171875 6.90625 9.9609375 C8 13 8 13 8 15 C7.01 15 6.02 15 5 15 C5 14.01 5 13.02 5 12 C2.69 12 0.38 12 -2 12 C-2.33 12.99 -2.66 13.98 -3 15 C-3.66 15 -4.32 15 -5 15 C-4.39816251 12.97954558 -3.72693904 10.97888961 -3 9 C-2.34 8.67 -1.68 8.34 -1 8 C-1 8.66 -1 9.32 -1 10 C0.32 10 1.64 10 3 10 C2.67 8.68 2.34 7.36 2 6 C1.01 6.33 0.02 6.66 -1 7 C-0.67 4.69 -0.34 2.38 0 0 Z " fill="#DFDEDF" transform="translate(244,208)"/>
<path d="M0 0 C1.27875 -0.061875 2.5575 -0.12375 3.875 -0.1875 C4.95394531 -0.23970703 4.95394531 -0.23970703 6.0546875 -0.29296875 C6.69664062 -0.19628906 7.33859375 -0.09960938 8 0 C10.13586678 3.20380017 10.23132175 4.01939967 10.125 7.6875 C10.10695312 8.49574219 10.08890625 9.30398437 10.0703125 10.13671875 C10.03550781 11.05904297 10.03550781 11.05904297 10 12 C9.01 12 8.02 12 7 12 C7 9.03 7 6.06 7 3 C5.68 3 4.36 3 3 3 C3 5.97 3 8.94 3 12 C2.01 12 1.02 12 0 12 C0 8.04 0 4.08 0 0 Z " fill="#E3E2E3" transform="translate(141,160)"/>
<path d="M0 0 C3 0.25 3 0.25 5 2.25 C5.3125 4.75 5.3125 4.75 5 7.25 C1.77626323 9.39915785 0.73296326 9.63286803 -3 9.25 C-5 7.25 -5 7.25 -5.25 4.75 C-4.86630891 0.91308908 -3.76694968 0.31391247 0 0 Z " fill="#399DD5" transform="translate(88,63.75)"/>
<path d="M0 0 C4.55555556 0.55555556 4.55555556 0.55555556 6 2 C6.1875 5.4375 6.1875 5.4375 6 9 C5.34 9.66 4.68 10.32 4 11 C-0.55555556 10.44444444 -0.55555556 10.44444444 -2 9 C-2.1875 5.5625 -2.1875 5.5625 -2 2 C-1.34 1.34 -0.68 0.68 0 0 Z " fill="#73747B" transform="translate(115,185)"/>
<path d="M0 0 C6.0546875 -0.1953125 6.0546875 -0.1953125 8 0 C10 2 10 2 10.1953125 4.3828125 C10.17210937 5.28773438 10.14890625 6.19265625 10.125 7.125 C10.10695313 8.03507813 10.08890625 8.94515625 10.0703125 9.8828125 C10.04710937 10.58148438 10.02390625 11.28015625 10 12 C9.01 12 8.02 12 7 12 C7 8.7 7 5.4 7 2 C5.68 2 4.36 2 3 2 C3 5.3 3 8.6 3 12 C2.01 12 1.02 12 0 12 C0 8.04 0 4.08 0 0 Z " fill="#E0E0E1" transform="translate(307,212)"/>
<path d="M0 0 C0.99 0 1.98 0 3 0 C3 3.3 3 6.6 3 10 C4.32 10 5.64 10 7 10 C7 6.7 7 3.4 7 0 C7.99 0 8.98 0 10 0 C10 3.96 10 7.92 10 12 C3.9453125 12.1953125 3.9453125 12.1953125 2 12 C0 10 0 10 -0.1953125 7.6171875 C-0.17210937 6.71226562 -0.14890625 5.80734375 -0.125 4.875 C-0.10695312 3.96492187 -0.08890625 3.05484375 -0.0703125 2.1171875 C-0.04710937 1.41851562 -0.02390625 0.71984375 0 0 Z " fill="#E3E3E4" transform="translate(168,186)"/>
<path d="M0 0 C0.66 1.32 1.32 2.64 2 4 C-0.31 3.67 -2.62 3.34 -5 3 C-5 3.66 -5 4.32 -5 5 C-3.02 5.66 -1.04 6.32 1 7 C1 8.32 1 9.64 1 11 C-1 13 -1 13 -3.625 13.125 C-4.40875 13.08375 -5.1925 13.0425 -6 13 C-6.66 11.68 -7.32 10.36 -8 9 C-5.69 9.33 -3.38 9.66 -1 10 C-1 9.34 -1 8.68 -1 8 C-2.4540625 7.5978125 -2.4540625 7.5978125 -3.9375 7.1875 C-4.948125 6.795625 -5.95875 6.40375 -7 6 C-7.33 5.01 -7.66 4.02 -8 3 C-5.53387212 -0.1151089 -3.89156016 -0.31553191 0 0 Z " fill="#E3E3E5" transform="translate(174,134)"/>
<path d="M0 0 C0.33 1.65 0.66 3.3 1 5 C0.34 5 -0.32 5 -1 5 C-1.33 4.34 -1.66 3.68 -2 3 C-3.32 3 -4.64 3 -6 3 C-7.04214691 7.61507774 -7.04214691 7.61507774 -6 12 C-4.68 12 -3.36 12 -2 12 C-1.67 11.34 -1.34 10.68 -1 10 C-0.01 10 0.98 10 2 10 C0.125 13.875 0.125 13.875 -1 15 C-6.36779911 15.46676514 -6.36779911 15.46676514 -8.671875 13.765625 C-10.34618396 11.53977898 -10.40262507 10.26250748 -10.375 7.5 C-10.38273438 6.7265625 -10.39046875 5.953125 -10.3984375 5.15625 C-9.31194623 -0.72358513 -5.14352504 -0.29114293 0 0 Z " fill="#E7E9EA" transform="translate(144,106)"/>
<path d="M0 0 C0.99 0 1.98 0 3 0 C3.66 1.65 4.32 3.3 5 5 C5.66 3.35 6.32 1.7 7 0 C7.99 0.33 8.98 0.66 10 1 C6.60695187 11.82887701 6.60695187 11.82887701 4 16 C1.8125 16.875 1.8125 16.875 0 17 C0 16.34 0 15.68 0 15 C0.66 14.67 1.32 14.34 2 14 C1.2812193 6.95792295 1.2812193 6.95792295 0 0 Z " fill="#D8D9DA" transform="translate(185,212)"/>
<path d="M0 0 C2 2 2 2 2 5 C-0.97 4.505 -0.97 4.505 -4 4 C-4 5.65 -4 7.3 -4 9 C-2.02 8.67 -0.04 8.34 2 8 C1.67 9.32 1.34 10.64 1 12 C-1.25 12.75 -1.25 12.75 -4 13 C-6.3125 11.4375 -6.3125 11.4375 -8 9 C-8.46181576 5.76728968 -8.57844751 3.91333817 -6.8125 1.125 C-4.38241919 -0.38332602 -2.80984248 -0.36023622 0 0 Z " fill="#D6D7D8" transform="translate(185,134)"/>
<path d="M0 0 C6.0546875 -0.1953125 6.0546875 -0.1953125 8 0 C10 2 10 2 10.1953125 4.1640625 C10.17210937 4.97617188 10.14890625 5.78828125 10.125 6.625 C10.10695313 7.44226563 10.08890625 8.25953125 10.0703125 9.1015625 C10.03550781 10.04128906 10.03550781 10.04128906 10 11 C9.01 11 8.02 11 7 11 C7 8.03 7 5.06 7 2 C5.68 2 4.36 2 3 2 C3 5.3 3 8.6 3 12 C2.01 12 1.02 12 0 12 C0 8.04 0 4.08 0 0 Z " fill="#D7D8DB" transform="translate(319,135)"/>
<path d="M0 0 C6.93359375 -0.09765625 6.93359375 -0.09765625 9 0 C10 1 10 1 10.09765625 3.50390625 C10.08605469 4.51324219 10.07445312 5.52257812 10.0625 6.5625 C10.05347656 7.57441406 10.04445312 8.58632812 10.03515625 9.62890625 C10.02355469 10.41136719 10.01195312 11.19382813 10 12 C9.34 12 8.68 12 8 12 C7.67 9.03 7.34 6.06 7 3 C6.01 3 5.02 3 4 3 C3.67 5.97 3.34 8.94 3 12 C2.01 12 1.02 12 0 12 C0 8.04 0 4.08 0 0 Z " fill="#D8D9DB" transform="translate(188,186)"/>
<path d="M0 0 C2.97 0 5.94 0 9 0 C9 0.66 9 1.32 9 2 C6.69 2 4.38 2 2 2 C2 3.32 2 4.64 2 6 C3.98 6 5.96 6 8 6 C8 6.66 8 7.32 8 8 C6.02 8 4.04 8 2 8 C2 9.65 2 11.3 2 13 C4.31 13 6.62 13 9 13 C9 13.66 9 14.32 9 15 C6.03 15 3.06 15 0 15 C0 10.05 0 5.1 0 0 Z " fill="#E9E8E9" transform="translate(123,106)"/>
<path d="M0 0 C3.625 0.375 3.625 0.375 7 1 C7.125 3.875 7.125 3.875 7 7 C5 9 5 9 2.5 9.25 C0 9 0 9 -2 7 C-2.25 4.5 -2.25 4.5 -2 2 C-1.34 1.34 -0.68 0.68 0 0 Z " fill="#E1495B" transform="translate(54,64)"/>
<path d="M0 0 C0.66 0 1.32 0 2 0 C2.33 2.97 2.66 5.94 3 9 C3.99 9 4.98 9 6 9 C6.33 6.03 6.66 3.06 7 0 C7.99 0 8.98 0 10 0 C10 3.96 10 7.92 10 12 C3.9453125 12.1953125 3.9453125 12.1953125 2 12 C0 10 0 10 -0.1953125 7.6171875 C-0.17210937 6.71226562 -0.14890625 5.80734375 -0.125 4.875 C-0.10695312 3.96492187 -0.08890625 3.05484375 -0.0703125 2.1171875 C-0.04710937 1.41851562 -0.02390625 0.71984375 0 0 Z " fill="#E1E1E2" transform="translate(129,160)"/>
<path d="M0 0 C2.5 0.25 2.5 0.25 4.5 2.25 C4.75 4.75 4.75 4.75 4.5 7.25 C2.5 9.25 2.5 9.25 0 9.5 C-2.5 9.25 -2.5 9.25 -4.5 7.25 C-4.75 4.75 -4.75 4.75 -4.5 2.25 C-2.5 0.25 -2.5 0.25 0 0 Z " fill="#CFBB3F" transform="translate(72.5,63.75)"/>
<path d="M0 0 C0.99 0.33 1.98 0.66 3 1 C3.33 2.65 3.66 4.3 4 6 C4.66 5.67 5.32 5.34 6 5 C5.88541307 6.43836751 5.75790884 7.87570966 5.625 9.3125 C5.55539063 10.11300781 5.48578125 10.91351563 5.4140625 11.73828125 C5 14 5 14 3 17 C2.01 17 1.02 17 0 17 C0 11.33333333 0 5.66666667 0 0 Z " fill="#B7B8BD" transform="translate(223,129)"/>
<path d="M0 0 C3.96 0 7.92 0 12 0 C12 0.66 12 1.32 12 2 C10.35 2 8.7 2 7 2 C7 6.29 7 10.58 7 15 C6.01 15 5.02 15 4 15 C4 10.71 4 6.42 4 2 C2.68 2 1.36 2 0 2 C0 1.34 0 0.68 0 0 Z " fill="#E1E2E4" transform="translate(147,106)"/>
<path d="M0 0 C2.375 -0.125 2.375 -0.125 5 0 C7 2 7 2 7.1953125 4.3828125 C7.17210937 5.28773438 7.14890625 6.19265625 7.125 7.125 C7.10695312 8.03507813 7.08890625 8.94515625 7.0703125 9.8828125 C7.04710937 10.58148438 7.02390625 11.28015625 7 12 C0.9453125 12.1953125 0.9453125 12.1953125 -1 12 C-1.66 11.34 -2.32 10.68 -3 10 C-3 9.01 -3 8.02 -3 7 C-2.34 7 -1.68 7 -1 7 C-0.67 7.66 -0.34 8.32 0 9 C2.52733235 9.65555119 2.52733235 9.65555119 5 10 C5 8.68 5 7.36 5 6 C3.68 5.67 2.36 5.34 1 5 C1.99 5 2.98 5 4 5 C4 4.01 4 3.02 4 2 C2.02 2.66 0.04 3.32 -2 4 C-1.34 2.68 -0.68 1.36 0 0 Z " fill="#ECECED" transform="translate(203,186)"/>
<path d="M0 0 C0.33 1.32 0.66 2.64 1 4 C-1.97 3.505 -1.97 3.505 -5 3 C-5.33 4.98 -5.66 6.96 -6 9 C-2.535 8.505 -2.535 8.505 1 8 C0.34 9.32 -0.32 10.64 -1 12 C-3.3125 12.25 -3.3125 12.25 -6 12 C-8.2855347 9.87208838 -8.92303658 8.52591672 -9.375 5.4375 C-9 3 -9 3 -7.875 1.1875 C-5.22464043 -0.49106106 -3.06753576 -0.20450238 0 0 Z " fill="#E6E6E7" transform="translate(262,212)"/>
<path d="M0 0 C0.94875 0.04125 1.8975 0.0825 2.875 0.125 C3.535 1.445 4.195 2.765 4.875 4.125 C3.885 4.125 2.895 4.125 1.875 4.125 C1.875 3.465 1.875 2.805 1.875 2.125 C0.555 2.455 -0.765 2.785 -2.125 3.125 C-2.125 4.775 -2.125 6.425 -2.125 8.125 C-0.145 8.125 1.835 8.125 3.875 8.125 C3.875 9.115 3.875 10.105 3.875 11.125 C1.565 11.455 -0.745 11.785 -3.125 12.125 C-5.57397847 8.45153229 -5.44037716 6.46143601 -5.125 2.125 C-3.125 0.125 -3.125 0.125 0 0 Z " fill="#ECEBED" transform="translate(324.125,211.875)"/>
<path d="M0 0 C0.99 0 1.98 0 3 0 C3 4.29 3 8.58 3 13 C5.31 13 7.62 13 10 13 C10 13.66 10 14.32 10 15 C6.7 15 3.4 15 0 15 C0 10.05 0 5.1 0 0 Z " fill="#D9D9DB" transform="translate(111,106)"/>
<path d="M0 0 C0.66 0 1.32 0 2 0 C2 5.28 2 10.56 2 16 C1.67 16 1.34 16 1 16 C0.67 13.03 0.34 10.06 0 7 C-2.31 7 -4.62 7 -7 7 C-7 5.35 -7 3.7 -7 2 C-4.69 2 -2.38 2 0 2 C0 1.34 0 0.68 0 0 Z " fill="#74767D" transform="translate(130,208)"/>
<path d="M0 0 C0.66 0 1.32 0 2 0 C2 0.99 2 1.98 2 3 C2.99 3 3.98 3 5 3 C5 3.66 5 4.32 5 5 C4.34 5 3.68 5 3 5 C3 7.64 3 10.28 3 13 C3.66 13 4.32 13 5 13 C4.67 13.99 4.34 14.98 4 16 C3.01 16 2.02 16 1 16 C-0.20272819 13.59454362 -0.10071472 12.05003047 -0.0625 9.375 C-0.05347656 8.55773437 -0.04445312 7.74046875 -0.03515625 6.8984375 C-0.02355469 6.27195313 -0.01195312 5.64546875 0 5 C-0.66 5 -1.32 5 -2 5 C-2 4.34 -2 3.68 -2 3 C-1.34 3 -0.68 3 0 3 C0 2.01 0 1.02 0 0 Z " fill="#EAEAEC" transform="translate(216,131)"/>
<path d="M0 0 C4.62 0 9.24 0 14 0 C13.01 0.33 12.02 0.66 11 1 C11.061875 1.763125 11.12375 2.52625 11.1875 3.3125 C11 6 11 6 9.5 7.8125 C9.005 8.204375 8.51 8.59625 8 9 C8 8.34 8 7.68 8 7 C6.02 7 4.04 7 2 7 C2 5.68 2 4.36 2 3 C4.31 3 6.62 3 9 3 C9 2.34 9 1.68 9 1 C6.03 1 3.06 1 0 1 C0 0.67 0 0.34 0 0 Z " fill="#6A6B75" transform="translate(100,105)"/>
<path d="M0 0 C0.99 0 1.98 0 3 0 C3.05383848 2.45862401 3.09359038 4.9160755 3.125 7.375 C3.14175781 8.07367188 3.15851563 8.77234375 3.17578125 9.4921875 C3.19344267 11.32897486 3.10303261 13.16601963 3 15 C2.34 15.66 1.68 16.32 1 17 C0.01 17 -0.98 17 -2 17 C-2 16.34 -2 15.68 -2 15 C-1.34 15 -0.68 15 0 15 C0 10.05 0 5.1 0 0 Z " fill="#DEDEDE" transform="translate(150,186)"/>
<path d="M0 0 C1.32 0 2.64 0 4 0 C4.33 0.99 4.66 1.98 5 3 C4.67 3.66 4.34 4.32 4 5 C4.598125 5.144375 5.19625 5.28875 5.8125 5.4375 C7.56150404 5.8872439 9.28677023 6.42892341 11 7 C11 7.99 11 8.98 11 10 C9.35 9.67 7.7 9.34 6 9 C6 8.01 6 7.02 6 6 C4.5459375 6.2784375 4.5459375 6.2784375 3.0625 6.5625 C2.051875 6.706875 1.04125 6.85125 0 7 C-1 6 -1 6 -1.125 3.5 C-1 1 -1 1 0 0 Z " fill="#80828B" transform="translate(322,214)"/>
<path d="M0 0 C2.31 0 4.62 0 7 0 C7 0.99 7 1.98 7 3 C6.01 3.33 5.02 3.66 4 4 C3.67 6.97 3.34 9.94 3 13 C2.01 13 1.02 13 0 13 C0 8.71 0 4.42 0 0 Z " fill="#D6D7DA" transform="translate(189,134)"/>
<path d="M0 0 C0.99 0 1.98 0 3 0 C3.66 1.65 4.32 3.3 5 5 C4.01 5.495 4.01 5.495 3 6 C2.59270772 8.32156597 2.25561323 10.6568787 2 13 C2.99 13 3.98 13 5 13 C5 13.66 5 14.32 5 15 C3.35 14.67 1.7 14.34 0 14 C0 11.03 0 8.06 0 5 C-0.66 5 -1.32 5 -2 5 C-2 4.34 -2 3.68 -2 3 C-1.34 3 -0.68 3 0 3 C0 2.01 0 1.02 0 0 Z " fill="#E5E5E7" transform="translate(154,157)"/>
<path d="M0 0 C0.66 0 1.32 0 2 0 C2 0.99 2 1.98 2 3 C2.66 3 3.32 3 4 3 C4 3.99 4 4.98 4 6 C3.34 6 2.68 6 2 6 C2.25561323 8.3431213 2.59270772 10.67843403 3 13 C3.66 13.33 4.32 13.66 5 14 C5 14.66 5 15.32 5 16 C3.35 15.67 1.7 15.34 0 15 C0 11.7 0 8.4 0 5 C-0.66 5 -1.32 5 -2 5 C-2 4.34 -2 3.68 -2 3 C-1.34 3 -0.68 3 0 3 C0 2.01 0 1.02 0 0 Z " fill="#EFEFEE" transform="translate(112,131)"/>
<path d="M0 0 C2.97 1.32 5.94 2.64 9 4 C9 4.66 9 5.32 9 6 C3.72 6 -1.56 6 -7 6 C-7 5.01 -7 4.02 -7 3 C-4.69 3 -2.38 3 0 3 C0 2.01 0 1.02 0 0 Z " fill="#7C7D83" transform="translate(164,138)"/>
<path d="M0 0 C2.31 0 4.62 0 7 0 C6.360625 0.20625 5.72125 0.4125 5.0625 0.625 C2.65074923 1.89538209 2.65074923 1.89538209 2.25 5.125 C2.1675 6.07375 2.085 7.0225 2 8 C3.32 8.33 4.64 8.66 6 9 C5.01 9 4.02 9 3 9 C3 10.98 3 12.96 3 15 C2.01 15 1.02 15 0 15 C0 10.05 0 5.1 0 0 Z " fill="#E3E3E4" transform="translate(98,183)"/>
<path d="M0 0 C0.99 0 1.98 0 3 0 C3 0.66 3 1.32 3 2 C3.66 2 4.32 2 5 2 C5 2.66 5 3.32 5 4 C4.34 4 3.68 4 3 4 C3 6.64 3 9.28 3 12 C3.66 12.33 4.32 12.66 5 13 C3.35 12.67 1.7 12.34 0 12 C-0.19401633 10.18818595 -0.38004375 8.37551468 -0.5625 6.5625 C-0.66691406 5.55316406 -0.77132813 4.54382813 -0.87890625 3.50390625 C-0.91886719 2.67761719 -0.95882813 1.85132813 -1 1 C-0.67 0.67 -0.34 0.34 0 0 Z " fill="#E0E0E2" transform="translate(332,133)"/>
<path d="M0 0 C0.99 0 1.98 0 3 0 C3 4.95 3 9.9 3 15 C2.01 15 1.02 15 0 15 C0 10.05 0 5.1 0 0 Z " fill="#DFDFE2" transform="translate(301,208)"/>
<path d="M0 0 C0.66 0 1.32 0 2 0 C2 5.28 2 10.56 2 16 C1.01 16 0.02 16 -1 16 C-1.02701408 13.89590361 -1.04640223 11.79170822 -1.0625 9.6875 C-1.07410156 8.51574219 -1.08570312 7.34398437 -1.09765625 6.13671875 C-1 3 -1 3 0 0 Z " fill="#DFE0E1" transform="translate(106,208)"/>
<path d="M0 0 C3 1 3 1 4 3 C3.01 3.33 2.02 3.66 1 4 C1 6.31 1 8.62 1 11 C1.99 11 2.98 11 4 11 C4 11.66 4 12.32 4 13 C-0.75 12.25 -0.75 12.25 -3 10 C-3.38080215 6.49662019 -3.40245078 4.63721374 -1.5 1.625 C-1.005 1.08875 -0.51 0.5525 0 0 Z " fill="#DBDADB" transform="translate(144,134)"/>
<path d="M0 0 C2.375 -0.125 2.375 -0.125 5 0 C7 2 7 2 7.1953125 4.3828125 C7.17210938 5.28773438 7.14890625 6.19265625 7.125 7.125 C7.10695313 8.03507813 7.08890625 8.94515625 7.0703125 9.8828125 C7.04710938 10.58148438 7.02390625 11.28015625 7 12 C6.34 11.34 5.68 10.68 5 10 C5 9.01 5 8.02 5 7 C3.68 6.67 2.36 6.34 1 6 C1.99 5.67 2.98 5.34 4 5 C4.33 4.34 4.66 3.68 5 3 C2.69 3.33 0.38 3.66 -2 4 C-1.34 2.68 -0.68 1.36 0 0 Z " fill="#E4E5E6" transform="translate(101,134)"/>
<path d="M0 0 C1 1 1 1 1.09765625 3.28515625 C1.08605469 4.20167969 1.07445312 5.11820313 1.0625 6.0625 C1.05347656 6.98160156 1.04445313 7.90070313 1.03515625 8.84765625 C1.02355469 9.55792969 1.01195312 10.26820313 1 11 C0.01 11 -0.98 11 -2 11 C-2 8.03 -2 5.06 -2 2 C-3.32 2.33 -4.64 2.66 -6 3 C-6 2.01 -6 1.02 -6 0 C-3.49749232 -1.25125384 -2.59701335 -0.83774624 0 0 Z " fill="#D8D9DD" transform="translate(291,135)"/>
<path d="M0 0 C2.31 0 4.62 0 7 0 C6.67 0.99 6.34 1.98 6 3 C5.01 3 4.02 3 3 3 C3 5.97 3 8.94 3 12 C2.01 12 1.02 12 0 12 C0 8.04 0 4.08 0 0 Z " fill="#D6D6D8" transform="translate(98,160)"/>
<path d="M0 0 C0.33 0 0.66 0 1 0 C1.33 3.3 1.66 6.6 2 10 C3.32 9.34 4.64 8.68 6 8 C7.32 8 8.64 8 10 8 C10 8.66 10 9.32 10 10 C8.02 10.66 6.04 11.32 4 12 C4 13.65 4 15.3 4 17 C2.68 17.33 1.36 17.66 0 18 C0 12.06 0 6.12 0 0 Z " fill="#82848B" transform="translate(96,129)"/>
<path d="M0 0 C0.33 0 0.66 0 1 0 C1 3.3 1 6.6 1 10 C-1.97 10 -4.94 10 -8 10 C-8.33 8.35 -8.66 6.7 -9 5 C-6.66666667 5 -4.33333333 5 -2 5 C-2.33 6.32 -2.66 7.64 -3 9 C-2.01 9 -1.02 9 0 9 C0 6.03 0 3.06 0 0 Z " fill="#BABCBF" transform="translate(95,162)"/>
<path d="M0 0 C0.66 0 1.32 0 2 0 C1.52013969 5.56890517 0.70084819 10.67067568 -1 16 C-1.99 16 -2.98 16 -4 16 C-4 14.35 -4 12.7 -4 11 C-3.01 11.33 -2.02 11.66 -1 12 C-1.01160156 11.30132812 -1.02320312 10.60265625 -1.03515625 9.8828125 C-1.04417969 8.97273437 -1.05320312 8.06265625 -1.0625 7.125 C-1.07410156 6.22007812 -1.08570312 5.31515625 -1.09765625 4.3828125 C-1 2 -1 2 0 0 Z " fill="#EEEFEF" transform="translate(101,208)"/>
<path d="M0 0 C0.99 0 1.98 0 3 0 C3 4.29 3 8.58 3 13 C2.01 13 1.02 13 0 13 C0 8.71 0 4.42 0 0 Z " fill="#D6D7D9" transform="translate(197,134)"/>
<path d="M0 0 C0.66 0 1.32 0 2 0 C2 5.61 2 11.22 2 17 C1.01 16.34 0.02 15.68 -1 15 C-1 12.66666667 -1 10.33333333 -1 8 C-1.99 7.34 -2.98 6.68 -4 6 C-2.68 6 -1.36 6 0 6 C0 4.02 0 2.04 0 0 Z " fill="#F2F1F2" transform="translate(94,129)"/>
<path d="M0 0 C0.99 0.66 1.98 1.32 3 2 C3.66 1.34 4.32 0.68 5 0 C7.625 -0.125 7.625 -0.125 10 0 C9.67 0.66 9.34 1.32 9 2 C9.33 2.99 9.66 3.98 10 5 C8.33388095 5.042721 6.66617115 5.04063832 5 5 C4.67 4.67 4.34 4.34 4 4 C1.94603274 4.40929986 1.94603274 4.40929986 0 5 C-0.33 6.65 -0.66 8.3 -1 10 C-1.33 10 -1.66 10 -2 10 C-2 7.69 -2 5.38 -2 3 C-1.34 3 -0.68 3 0 3 C0 2.01 0 1.02 0 0 Z " fill="#9FA1A4" transform="translate(116,134)"/>
<path d="M0 0 C0.33 0.99 0.66 1.98 1 3 C3.97 3 6.94 3 10 3 C10 4.65 10 6.3 10 8 C6.38102827 8.32899743 4.60496861 8.44576634 1.625 6.25 C0 4 0 4 0 0 Z " fill="#C7C7CB" transform="translate(211,214)"/>
<path d="M0 0 C0.33 0 0.66 0 1 0 C2 7.625 2 7.625 2 11 C0.35 11.33 -1.3 11.66 -3 12 C-2.34 11.67 -1.68 11.34 -1 11 C-1.515625 10.236875 -2.03125 9.47375 -2.5625 8.6875 C-3.036875 7.800625 -3.51125 6.91375 -4 6 C-3.67 5.01 -3.34 4.02 -3 3 C-2.01 3 -1.02 3 0 3 C0 2.01 0 1.02 0 0 Z " fill="#7B7D82" transform="translate(110,187)"/>
<path d="M0 0 C0.66 0 1.32 0 2 0 C2 0.99 2 1.98 2 3 C4.86724686 2.42655063 5.8614515 2.1385485 8 0 C8.33 1.65 8.66 3.3 9 5 C2.9453125 5.9765625 2.9453125 5.9765625 1 6 C0.34 5.34 -0.32 4.68 -1 4 C-0.625 1.875 -0.625 1.875 0 0 Z " fill="#DCDEE2" transform="translate(264,141)"/>
<path d="M0 0 C1.32 0 2.64 0 4 0 C4.33 1.98 4.66 3.96 5 6 C3.34385343 6.38218767 1.67542976 6.71395102 0 7 C-1 6 -1 6 -1.125 3.5 C-1 1 -1 1 0 0 Z " fill="#73747E" transform="translate(231,137)"/>
<path d="M0 0 C0.33 1.32 0.66 2.64 1 4 C-1.31 4 -3.62 4 -6 4 C-6 4.66 -6 5.32 -6 6 C-4.02 6 -2.04 6 0 6 C-0.99 7.485 -0.99 7.485 -2 9 C-4.625 9.1875 -4.625 9.1875 -7 9 C-7.66 7.68 -8.32 6.36 -9 5 C-8.34 5 -7.68 5 -7 5 C-7 4.34 -7 3.68 -7 3 C-4.69 3 -2.38 3 0 3 C0 2.01 0 1.02 0 0 Z " fill="#C8C9CD" transform="translate(293,215)"/>
<path d="M0 0 C2.00720923 0.28674418 4.0085944 0.61866701 6 1 C6 1.99 6 2.98 6 4 C5.01 4.495 5.01 4.495 4 5 C4.33 5.66 4.66 6.32 5 7 C3.33388095 7.042721 1.66617115 7.04063832 0 7 C-1 6 -1 6 -1.125 3.5 C-1 1 -1 1 0 0 Z " fill="#B8B9BC" transform="translate(175,217)"/>
<path d="M0 0 C0.99 0 1.98 0 3 0 C3 3.96 3 7.92 3 12 C1.68 11.34 0.36 10.68 -1 10 C-0.67 6.7 -0.34 3.4 0 0 Z " fill="#D9D9DA" transform="translate(175,186)"/>
<path d="M0 0 C2.0625 0.4375 2.0625 0.4375 4 1 C4 2.98 4 4.96 4 7 C2.0625 7.5625 2.0625 7.5625 0 8 C-1 7 -1 7 -1.125 4 C-1 1 -1 1 0 0 Z " fill="#70737A" transform="translate(159,188)"/>
<path d="M0 0 C1.32 0 2.64 0 4 0 C4.36814024 6.50381098 4.36814024 6.50381098 2.5625 8.9375 C1 10 1 10 0 10 C0 6.7 0 3.4 0 0 Z " fill="#686973" transform="translate(268,214)"/>
<path d="M0 0 C0.99 0 1.98 0 3 0 C3.99 2.97 4.98 5.94 6 9 C5.01 9.33 4.02 9.66 3 10 C2.67 8.68 2.34 7.36 2 6 C1.01 6.33 0.02 6.66 -1 7 C-0.67 4.69 -0.34 2.38 0 0 Z " fill="#D9D9DA" transform="translate(244,208)"/>
<path d="M0 0 C0.33 0 0.66 0 1 0 C1.66 2.31 2.32 4.62 3 7 C4.32 7 5.64 7 7 7 C7.33 6.34 7.66 5.68 8 5 C8.99 5 9.98 5 11 5 C9.125 8.875 9.125 8.875 8 10 C5.0625 10.1875 5.0625 10.1875 2 10 C0 8 0 8 -0.1953125 6.0546875 C-0.13020833 4.03645833 -0.06510417 2.01822917 0 0 Z " fill="#F3F4F3" transform="translate(135,111)"/>
<path d="M0 0 C0.33 0 0.66 0 1 0 C1 1.65 1 3.3 1 5 C-4.75 7 -4.75 7 -7 7 C-7 5.35 -7 3.7 -7 2 C-4.69 2 -2.38 2 0 2 C0 1.34 0 0.68 0 0 Z " fill="#696A74" transform="translate(132,112)"/>
<path d="M0 0 C2.33294775 -0.04241723 4.66702567 -0.04092937 7 0 C8 1 8 1 8.0625 3.5625 C8.041875 4.366875 8.02125 5.17125 8 6 C5.69 6 3.38 6 1 6 C1 5.67 1 5.34 1 5 C2.65 5 4.3 5 6 5 C5.67 4.34 5.34 3.68 5 3 C3.68 3 2.36 3 1 3 C0.34 3.66 -0.32 4.32 -1 5 C-0.67 3.35 -0.34 1.7 0 0 Z " fill="#EAE9EA" transform="translate(198,212)"/>
<path d="M0 0 C1.32 0 2.64 0 4 0 C4 2.31 4 4.62 4 7 C2.35 7 0.7 7 -1 7 C-1.04254356 5.00045254 -1.04080783 2.99958364 -1 1 C-0.67 0.67 -0.34 0.34 0 0 Z " fill="#676873" transform="translate(90,137)"/>
<path d="M0 0 C2 2 2 2 2 5 C-0.64 4.67 -3.28 4.34 -6 4 C-6.33 5.65 -6.66 7.3 -7 9 C-7.33 9 -7.66 9 -8 9 C-8.36190476 3.57142857 -8.36190476 3.57142857 -6.8125 1.125 C-4.38241919 -0.38332602 -2.80984248 -0.36023622 0 0 Z " fill="#D5D6D8" transform="translate(185,134)"/>
<path d="M0 0 C2.475 0.495 2.475 0.495 5 1 C5 2.65 5 4.3 5 6 C3.35 6.33 1.7 6.66 0 7 C0 4.69 0 2.38 0 0 Z " fill="#62646F" transform="translate(164,214)"/>
<path d="M0 0 C1.98 0 3.96 0 6 0 C6 0.66 6 1.32 6 2 C5.01 2.33 4.02 2.66 3 3 C2.67 5.97 2.34 8.94 2 12 C1.34 12 0.68 12 0 12 C0 8.04 0 4.08 0 0 Z " fill="#E8E8E9" transform="translate(181,186)"/>
<path d="M0 0 C0.99 0.33 1.98 0.66 3 1 C2.67 5.95 2.34 10.9 2 16 C1.34 16 0.68 16 0 16 C0 10.72 0 5.44 0 0 Z " fill="#EFEFF0" transform="translate(203,135)"/>
<path d="M0 0 C1.32 0 2.64 0 4 0 C4 2.31 4 4.62 4 7 C2.35 6.67 0.7 6.34 -1 6 C-1.042721 4.33388095 -1.04063832 2.66617115 -1 1 C-0.67 0.67 -0.34 0.34 0 0 Z " fill="#6A6C76" transform="translate(206,137)"/>
<path d="M0 0 C3.34373475 0.55728913 6.03312999 1.35173889 9 3 C8.67 3.99 8.34 4.98 8 6 C6.35 5.67 4.7 5.34 3 5 C3 4.34 3 3.68 3 3 C1.68 2.67 0.36 2.34 -1 2 C-0.67 1.34 -0.34 0.68 0 0 Z " fill="#70727A" transform="translate(86,113)"/>
<path d="M0 0 C0.99 0.33 1.98 0.66 3 1 C2.54554036 2.41791408 2.08625056 3.83428046 1.625 5.25 C1.36976563 6.03890625 1.11453125 6.8278125 0.8515625 7.640625 C0.04826333 9.86627958 -0.89711662 11.90931672 -2 14 C-2.33 14 -2.66 14 -3 14 C-3 12.02 -3 10.04 -3 8 C-2.34 8 -1.68 8 -1 8 C-0.67 5.36 -0.34 2.72 0 0 Z " fill="#EFEFEE" transform="translate(192,212)"/>
<path d="M0 0 C0.99 0 1.98 0 3 0 C3 1.32 3 2.64 3 4 C2.34 4 1.68 4 1 4 C1.33 4.66 1.66 5.32 2 6 C2.06950541 7.54023996 2.08452357 9.08334988 2.0625 10.625 C2.05347656 11.44226563 2.04445312 12.25953125 2.03515625 13.1015625 C2.02355469 13.72804687 2.01195312 14.35453125 2 15 C1.34 15 0.68 15 0 15 C0 10.05 0 5.1 0 0 Z " fill="#FAFAF8" transform="translate(126,183)"/>
<path d="M0 0 C1.32 0 2.64 0 4 0 C4 1.98 4 3.96 4 6 C2.0625 6.5625 2.0625 6.5625 0 7 C-1 6 -1 6 -1.125 3.5 C-1 1 -1 1 0 0 Z " fill="#63656F" transform="translate(120,163)"/>
<path d="M0 0 C2.5 0.125 2.5 0.125 3.5 1.125 C3.57205511 2.81108966 3.58386068 4.50000659 3.5625 6.1875 C3.55347656 7.10660156 3.54445313 8.02570313 3.53515625 8.97265625 C3.52355469 9.68292969 3.51195312 10.39320313 3.5 11.125 C2.84 11.125 2.18 11.125 1.5 11.125 C1.37625 9.206875 1.37625 9.206875 1.25 7.25 C1.04130069 5.07166582 1.04130069 5.07166582 0.5 3.125 C-1.42064793 1.5350567 -1.42064793 1.5350567 -3.5 1.125 C-2.5 0.125 -2.5 0.125 0 0 Z " fill="#EBECED" transform="translate(277.5,211.875)"/>
<path d="M0 0 C0.33 0 0.66 0 1 0 C1.125 2.875 1.125 2.875 1 6 C0.34 6.66 -0.32 7.32 -1 8 C-2.32 8 -3.64 8 -5 8 C-5.33 9.32 -5.66 10.64 -6 12 C-6.33 9.69 -6.66 7.38 -7 5 C-4.50907189 3.75453595 -3.58919267 4.2232422 -1 5 C-0.67 3.35 -0.34 1.7 0 0 Z " fill="#D7D7DA" transform="translate(211,139)"/>
<path d="M0 0 C2.0625 0.4375 2.0625 0.4375 4 1 C4 2.65 4 4.3 4 6 C2.0625 6.5625 2.0625 6.5625 0 7 C-1 6 -1 6 -1.125 3.5 C-1 1 -1 1 0 0 Z " fill="#61626F" transform="translate(298,137)"/>
<path d="M0 0 C2.0625 0.4375 2.0625 0.4375 4 1 C4 2.65 4 4.3 4 6 C2.0625 6.5625 2.0625 6.5625 0 7 C-1 6 -1 6 -1.125 3.5 C-1 1 -1 1 0 0 Z " fill="#656771" transform="translate(145,137)"/>
<path d="M0 0 C0.99 0.33 1.98 0.66 3 1 C3.08096803 2.45742463 3.13917774 3.91612807 3.1875 5.375 C3.22230469 6.18710938 3.25710937 6.99921875 3.29296875 7.8359375 C3.19628906 8.55007812 3.09960938 9.26421875 3 10 C2.01 10.66 1.02 11.32 0 12 C0 8.04 0 4.08 0 0 Z " fill="#787A80" transform="translate(109,135)"/>
<path d="M0 0 C2.31 0 4.62 0 7 0 C7 0.99 7 1.98 7 3 C5.35 3 3.7 3 2 3 C1.67 6.96 1.34 10.92 1 15 C0.67 15 0.34 15 0 15 C0 10.05 0 5.1 0 0 Z " fill="#F3F2F2" transform="translate(132,208)"/>
<path d="M0 0 C2.9375 0.875 2.9375 0.875 4.12109375 2.9296875 C4.39050781 3.57164062 4.65992187 4.21359375 4.9375 4.875 C3.47827307 4.76090407 2.02009402 4.63334456 0.5625 4.5 C-0.65566406 4.39558594 -0.65566406 4.39558594 -1.8984375 4.2890625 C-4.0625 3.875 -4.0625 3.875 -6.0625 1.875 C-3.0625 -0.125 -3.0625 -0.125 0 0 Z " fill="#DCDCDD" transform="translate(118.0625,182.125)"/>
<path d="M0 0 C2 2 2 2 2.125 4.625 C2.08375 5.40875 2.0425 6.1925 2 7 C4.31 7 6.62 7 9 7 C9 7.66 9 8.32 9 9 C6.03 9 3.06 9 0 9 C0 6.03 0 3.06 0 0 Z " fill="#EFEFEF" transform="translate(123,112)"/>
<path d="M0 0 C2.375 -0.125 2.375 -0.125 5 0 C7 2 7 2 7.1953125 3.9453125 C7.13020833 5.96354167 7.06510417 7.98177083 7 10 C6.67 10 6.34 10 6 10 C5.34 7.69 4.68 5.38 4 3 C2.02 3.33 0.04 3.66 -2 4 C-1.34 2.68 -0.68 1.36 0 0 Z " fill="#E4E6E6" transform="translate(203,186)"/>
<path d="M0 0 C0.33 0 0.66 0 1 0 C1.33 2.31 1.66 4.62 2 7 C2.99 7 3.98 7 5 7 C4.67 8.98 4.34 10.96 4 13 C3.34 13 2.68 13 2 13 C2 12.01 2 11.02 2 10 C0.68 9.67 -0.64 9.34 -2 9 C-1.34 9 -0.68 9 0 9 C0 6.03 0 3.06 0 0 Z " fill="#B2B3B9" transform="translate(250,137)"/>
<path d="M0 0 C2.31 0.33 4.62 0.66 7 1 C7.66 3.31 8.32 5.62 9 8 C7.68 8.33 6.36 8.66 5 9 C5.33 7.68 5.66 6.36 6 5 C4.02 4.01 2.04 3.02 0 2 C0 1.34 0 0.68 0 0 Z " fill="#72747B" transform="translate(169,137)"/>
<path d="M0 0 C0.99 0.33 1.98 0.66 3 1 C2.34 1 1.68 1 1 1 C1.66 3.31 2.32 5.62 3 8 C2.34 8 1.68 8 1 8 C0.67 9.65 0.34 11.3 0 13 C-0.33 13 -0.66 13 -1 13 C-1.02696365 11.20841511 -1.04637917 9.41671527 -1.0625 7.625 C-1.07410156 6.62726563 -1.08570313 5.62953125 -1.09765625 4.6015625 C-1 2 -1 2 0 0 Z " fill="#7D7F86" transform="translate(184,211)"/>
<path d="M0 0 C0.94875 0.04125 1.8975 0.0825 2.875 0.125 C1.885 0.62 1.885 0.62 0.875 1.125 C1.205 2.445 1.535 3.765 1.875 5.125 C0.225 5.125 -1.425 5.125 -3.125 5.125 C-3.125 4.465 -3.125 3.805 -3.125 3.125 C-3.785 2.795 -4.445 2.465 -5.125 2.125 C-3.125 0.125 -3.125 0.125 0 0 Z " fill="#B1B2B9" transform="translate(289.125,211.875)"/>
<path d="M0 0 C2.31 0 4.62 0 7 0 C7.33 0.99 7.66 1.98 8 3 C7.34 3 6.68 3 6 3 C6 3.66 6 4.32 6 5 C4.68 4.67 3.36 4.34 2 4 C2.99 4 3.98 4 5 4 C5 3.34 5 2.68 5 2 C3.02 2.33 1.04 2.66 -1 3 C-0.67 2.01 -0.34 1.02 0 0 Z " fill="#DADBDC" transform="translate(175,212)"/>
<path d="M0 0 C0.78375 0.04125 1.5675 0.0825 2.375 0.125 C2.045 1.115 1.715 2.105 1.375 3.125 C0.715 3.434375 0.055 3.74375 -0.625 4.0625 C-2.83105562 4.94527141 -2.83105562 4.94527141 -3.375 7.25 C-3.4575 7.86875 -3.54 8.4875 -3.625 9.125 C-4.285 9.125 -4.945 9.125 -5.625 9.125 C-4.6356383 0.22074468 -4.6356383 0.22074468 0 0 Z " fill="#CFD0D2" transform="translate(121.625,159.875)"/>
<path d="M0 0 C-0.33 2.31 -0.66 4.62 -1 7 C-1.66 7 -2.32 7 -3 7 C-3.433125 5.824375 -3.433125 5.824375 -3.875 4.625 C-4.84912254 1.90328368 -4.84912254 1.90328368 -7 0 C-3.86650268 -1.04449911 -3.01031744 -0.93423645 0 0 Z " fill="#B4B5BA" transform="translate(133,143)"/>
<path d="M0 0 C1.66611905 -0.042721 3.33382885 -0.04063832 5 0 C6 1 6 1 6.09765625 3.28515625 C6.08605469 4.20167969 6.07445312 5.11820313 6.0625 6.0625 C6.05347656 6.98160156 6.04445313 7.90070313 6.03515625 8.84765625 C6.02355469 9.55792969 6.01195312 10.26820313 6 11 C5.34 11 4.68 11 4 11 C3.67 7.7 3.34 4.4 3 1 C2.01 0.67 1.02 0.34 0 0 Z " fill="#F4F5F6" transform="translate(279,135)"/>
<path d="M0 0 C2.97 0 5.94 0 9 0 C9 0.99 9 1.98 9 3 C6.69 3.33 4.38 3.66 2 4 C1.34 2.68 0.68 1.36 0 0 Z " fill="#DFE0E2" transform="translate(319,220)"/>
<path d="M0 0 C2.00720923 0.28674418 4.0085944 0.61866701 6 1 C6 2.32 6 3.64 6 5 C4.35 5 2.7 5 1 5 C0.34 3.68 -0.32 2.36 -1 1 C-0.67 0.67 -0.34 0.34 0 0 Z " fill="#ADAFB2" transform="translate(202,191)"/>
<path d="M0 0 C1.66611905 -0.042721 3.33382885 -0.04063832 5 0 C6 1 6 1 6.09765625 3.28515625 C6.08605469 4.20167969 6.07445313 5.11820313 6.0625 6.0625 C6.05347656 6.98160156 6.04445313 7.90070313 6.03515625 8.84765625 C6.02355469 9.55792969 6.01195313 10.26820313 6 11 C5.34 11 4.68 11 4 11 C3.96261719 10.37351563 3.92523438 9.74703125 3.88671875 9.1015625 C3.82097656 8.28429687 3.75523438 7.46703125 3.6875 6.625 C3.62949219 5.81289062 3.57148437 5.00078125 3.51171875 4.1640625 C3.17009472 1.62078662 3.17009472 1.62078662 0 0 Z " fill="#F7F7F7" transform="translate(101,161)"/>
<path d="M0 0 C0.598125 0.226875 1.19625 0.45375 1.8125 0.6875 C1.8125 1.3475 1.8125 2.0075 1.8125 2.6875 C0.8225 3.0175 -0.1675 3.3475 -1.1875 3.6875 C-1.88687532 5.00397119 -2.55479133 6.33772151 -3.1875 7.6875 C-4.1775 8.1825 -4.1775 8.1825 -5.1875 8.6875 C-5.55003776 3.24943353 -5.55003776 3.24943353 -3.9375 0.75 C-2.1875 -0.3125 -2.1875 -0.3125 0 0 Z " fill="#C5C7CC" transform="translate(299.1875,134.3125)"/>
<path d="M0 0 C0.99 0 1.98 0 3 0 C3.33 0.66 3.66 1.32 4 2 C5.65 2 7.3 2 9 2 C9.33 2.99 9.66 3.98 10 5 C3.375 5.25 3.375 5.25 0 3 C0 2.01 0 1.02 0 0 Z " fill="#E2E2E3" transform="translate(86,116)"/>
<path d="M0 0 C4.75 0.75 4.75 0.75 7 3 C6.34 3 5.68 3 5 3 C5 3.66 5 4.32 5 5 C3.35 4.67 1.7 4.34 0 4 C0 2.68 0 1.36 0 0 Z " fill="#797A82" transform="translate(90,108)"/>
<path d="M0 0 C0.66 0.66 1.32 1.32 2 2 C4.32275177 2.40047444 6.65739357 2.7397104 9 3 C8.01 4.485 8.01 4.485 7 6 C4.5 6.3125 4.5 6.3125 2 6 C1.34 5.34 0.68 4.68 0 4 C0 2.68 0 1.36 0 0 Z " fill="#E6E5E6" transform="translate(197,218)"/>
<path d="M0 0 C1.65 0 3.3 0 5 0 C5 1.65 5 3.3 5 5 C3.35 5 1.7 5 0 5 C0 3.35 0 1.7 0 0 Z " fill="#6C6E76" transform="translate(134,210)"/>
<path d="M0 0 C0.33 0 0.66 0 1 0 C1 3.3 1 6.6 1 10 C-0.32 10 -1.64 10 -3 10 C-2.39009109 6.44219804 -1.4216319 3.3171411 0 0 Z " fill="#787D83" transform="translate(138,188)"/>
<path d="M0 0 C-0.99 1.485 -0.99 1.485 -2 3 C-4.09375 3.36328125 -4.09375 3.36328125 -6.5 3.3125 C-7.2940625 3.30863281 -8.088125 3.30476562 -8.90625 3.30078125 C-11 3 -11 3 -13 1 C-8.59085217 -0.10228696 -4.51617599 -0.07654536 0 0 Z " fill="#6C867B" transform="translate(332,133)"/>
<path d="M0 0 C0.33 0 0.66 0 1 0 C1 1.98 1 3.96 1 6 C-1.31 6.33 -3.62 6.66 -6 7 C-6.66 6.01 -7.32 5.02 -8 4 C-6.02 4 -4.04 4 -2 4 C-1.34 2.68 -0.68 1.36 0 0 Z " fill="#F3F2F2" transform="translate(164,191)"/>
<path d="M0 0 C0.33 0 0.66 0 1 0 C1 1.98 1 3.96 1 6 C-1.31 6.33 -3.62 6.66 -6 7 C-6.33 6.01 -6.66 5.02 -7 4 C-4.69 4 -2.38 4 0 4 C0 2.68 0 1.36 0 0 Z " fill="#85878C" transform="translate(128,137)"/>
<path d="M0 0 C0.66 0 1.32 0 2 0 C2 3.63 2 7.26 2 11 C1.34 11 0.68 11 0 11 C-0.19406478 9.35492782 -0.38007935 7.70890406 -0.5625 6.0625 C-0.66691406 5.14597656 -0.77132812 4.22945312 -0.87890625 3.28515625 C-0.91886719 2.53105469 -0.95882812 1.77695313 -1 1 C-0.67 0.67 -0.34 0.34 0 0 Z " fill="#F3F3F3" transform="translate(196,187)"/>
<path d="M0 0 C2.475 0.495 2.475 0.495 5 1 C4.67 2.32 4.34 3.64 4 5 C2.68 5 1.36 5 0 5 C0 3.35 0 1.7 0 0 Z " fill="#63646D" transform="translate(101,185)"/>
<path d="M0 0 C2.97 0 5.94 0 9 0 C9 0.66 9 1.32 9 2 C7.88625 2.103125 6.7725 2.20625 5.625 2.3125 C4.42875 2.539375 3.2325 2.76625 2 3 C1.34 3.99 0.68 4.98 0 6 C0 4.02 0 2.04 0 0 Z " fill="#EEEFEF" transform="translate(87,183)"/>
<path d="M0 0 C0 0.66 0 1.32 0 2 C-2.31 2.33 -4.62 2.66 -7 3 C-7.66 2.01 -8.32 1.02 -9 0 C-5.93109813 -1.53445094 -3.29905734 -0.54984289 0 0 Z " fill="#D8D8DA" transform="translate(128,144)"/>
<path d="M0 0 C0.4125 0.66 0.825 1.32 1.25 2 C1.8275 2.66 2.405 3.32 3 4 C4.32 4 5.64 4 7 4 C6.67 5.32 6.34 6.64 6 8 C1.125 7.125 1.125 7.125 0 6 C-0.04080783 4.00041636 -0.04254356 1.99954746 0 0 Z " fill="#DADBDE" transform="translate(295,139)"/>
<path d="M0 0 C2.625 0.375 2.625 0.375 5 1 C4.01 1.66 3.02 2.32 2 3 C1.27034634 5.56282742 1.27034634 5.56282742 1 8 C0.01 8.33 -0.98 8.66 -2 9 C-2.125 5.625 -2.125 5.625 -2 2 C-1.34 1.34 -0.68 0.68 0 0 Z " fill="#D2D3D5" transform="translate(88,135)"/>
<path d="M0 0 C2.31 0 4.62 0 7 0 C7 0.66 7 1.32 7 2 C5.824375 2.37125 5.824375 2.37125 4.625 2.75 C1.67682892 4.15389099 1.0975223 5.00675737 0 8 C-0.79953138 4.71303767 -1.09658936 3.28976808 0 0 Z " fill="#73757E" transform="translate(173,214)"/>
<path d="M0 0 C0.33 0.99 0.66 1.98 1 3 C1.66 3 2.32 3 3 3 C3.33 2.01 3.66 1.02 4 0 C4.33 1.98 4.66 3.96 5 6 C2.03 5.505 2.03 5.505 -1 5 C-0.67 3.35 -0.34 1.7 0 0 Z " fill="#95969C" transform="translate(242,212)"/>
<path d="M0 0 C1.65 0 3.3 0 5 0 C5.33 1.32 5.66 2.64 6 4 C5.01 4.495 5.01 4.495 4 5 C4 4.01 4 3.02 4 2 C2.02 2.66 0.04 3.32 -2 4 C-1.34 2.68 -0.68 1.36 0 0 Z " fill="#E6E6E7" transform="translate(89,160)"/>
<path d="M0 0 C2.375 -0.125 2.375 -0.125 5 0 C7 2 7 2 7.125 5.125 C7.08375 6.07375 7.0425 7.0225 7 8 C6.34 8 5.68 8 5 8 C4.731875 7.05125 4.46375 6.1025 4.1875 5.125 C3.25013412 1.74732727 3.25013412 1.74732727 0 0 Z " fill="#F6F6F8" transform="translate(231,135)"/>
<path d="M0 0 C3 2 3 2 3.6875 4.625 C3.790625 5.40875 3.89375 6.1925 4 7 C3.01 7 2.02 7 1 7 C0.67 6.01 0.34 5.02 0 4 C-2.00016466 2.79117904 -2.00016466 2.79117904 -4 2 C-2.68 2 -1.36 2 0 2 C0 1.34 0 0.68 0 0 Z " fill="#F1F0F1" transform="translate(248,216)"/>
<path d="M0 0 C2.29633824 3.44450737 2.54016485 5.93812283 3 10 C0.65941363 7.87219421 -0.70700306 5.88437779 -2 3 C-1.34 3 -0.68 3 0 3 C0 2.01 0 1.02 0 0 Z " fill="#E5E6E4" transform="translate(129,184)"/>
<path d="M0 0 C0.33 0 0.66 0 1 0 C1.103125 0.928125 1.20625 1.85625 1.3125 2.8125 C2.0070192 6.03254358 2.47740939 7.02579865 5 9 C2.69 9.33 0.38 9.66 -2 10 C-1.34 9.67 -0.68 9.34 0 9 C0 6.03 0 3.06 0 0 Z " fill="#777A80" transform="translate(114,163)"/>
<path d="M0 0 C0.66 0 1.32 0 2 0 C1.38722388 2.96175123 0.74627478 4.38058783 -1 7 C-3.625 7.1875 -3.625 7.1875 -6 7 C-5.195625 6.21625 -4.39125 5.4325 -3.5625 4.625 C-1.01309583 2.28017144 -1.01309583 2.28017144 0 0 Z " fill="#AFB2B8" transform="translate(364,261)"/>
<path d="M0 0 C1.32 0 2.64 0 4 0 C4 2.97 4 5.94 4 9 C1.49701566 6.06171403 0.53069061 3.82097239 0 0 Z " fill="#75777E" transform="translate(101,163)"/>
<path d="M0 0 C2.97 0 5.94 0 9 0 C6.23776722 2.76223278 3.79293383 2.57856291 0 3 C0 2.01 0 1.02 0 0 Z " fill="#71727A" transform="translate(157,141)"/>
<path d="M0 0 C0.66 0 1.32 0 2 0 C2.33 1.98 2.66 3.96 3 6 C1.68 6.33 0.36 6.66 -1 7 C-1.04254356 5.00045254 -1.04080783 2.99958364 -1 1 C-0.67 0.67 -0.34 0.34 0 0 Z " fill="#6F7078" transform="translate(116,138)"/>
<path d="M0 0 C1.65 0 3.3 0 5 0 C5.66 1.32 6.32 2.64 7 4 C4.03 3.505 4.03 3.505 1 3 C0.67 2.01 0.34 1.02 0 0 Z " fill="#D4D5D7" transform="translate(169,134)"/>
<path d="M0 0 C1.65 0 3.3 0 5 0 C5.33 1.65 5.66 3.3 6 5 C5.67 4.01 5.34 3.02 5 2 C2.69 2.66 0.38 3.32 -2 4 C-1.34 2.68 -0.68 1.36 0 0 Z " fill="#DBDEE2" transform="translate(266,134)"/>
<path d="M0 0 C0.3403125 0.9590625 0.3403125 0.9590625 0.6875 1.9375 C1.85250896 4.27193661 1.85250896 4.27193661 4.625 4.75 C5.40875 4.8325 6.1925 4.915 7 5 C6.67 5.66 6.34 6.32 6 7 C3.625 7.1875 3.625 7.1875 1 7 C-1 4 -1 4 -0.625 1.8125 C-0.41875 1.214375 -0.2125 0.61625 0 0 Z " fill="#EAE9EA" transform="translate(118,165)"/>
<path d="M0 0 C0.33 0 0.66 0 1 0 C1.66 2.64 2.32 5.28 3 8 C2.01 8.33 1.02 8.66 0 9 C-1 8 -1 8 -1.125 4.5 C-1 1 -1 1 0 0 Z " fill="#E4E4E6" transform="translate(179,137)"/>
<path d="M0 0 C-0.99 1.485 -0.99 1.485 -2 3 C-4.625 3.1875 -4.625 3.1875 -7 3 C-6.67 2.01 -6.34 1.02 -6 0 C-3 -1 -3 -1 0 0 Z " fill="#AFAFB3" transform="translate(164,136)"/>
<path d="M0 0 C0.99 0 1.98 0 3 0 C3.625 2.875 3.625 2.875 4 6 C3.34 6.66 2.68 7.32 2 8 C1.34 5.36 0.68 2.72 0 0 Z " fill="#E5E5E5" transform="translate(185,212)"/>
<path d="M0 0 C2.4375 0.375 2.4375 0.375 5 1 C5.33 1.66 5.66 2.32 6 3 C3.69 3.33 1.38 3.66 -1 4 C-0.67 2.68 -0.34 1.36 0 0 Z " fill="#D7D7D9" transform="translate(108,160)"/>
<path d="M0 0 C1.125 1.625 1.125 1.625 2 4 C1.125 7.25 1.125 7.25 0 10 C-1.125 8.375 -1.125 8.375 -2 6 C-1.125 2.75 -1.125 2.75 0 0 Z " fill="#6D6E77" transform="translate(142,211)"/>
<path d="M0 0 C0.33 0 0.66 0 1 0 C1 2.64 1 5.28 1 8 C1.66 8 2.32 8 3 8 C2.67 8.99 2.34 9.98 2 11 C1.01 10.67 0.02 10.34 -1 10 C-0.67 6.7 -0.34 3.4 0 0 Z " fill="#B9BBBF" transform="translate(218,136)"/>
</svg>
